<svg width="964" height="275" fill="none" xmlns="http://www.w3.org/2000/svg"><g clip-path="url(#clip0)"><path d="M762.11 1.1L867.57 0a95.941 95.941 0 0195.93 95.93v82.68a95.92 95.92 0 01-95.93 95.92H762.11a95.92 95.92 0 01-67.829-28.091 95.922 95.922 0 01-28.091-67.829V95.93c0-52.99 42.93-94.83 95.92-94.83zM75.28 81.13h-12c-21.8 0-33.28 11.05-33.28 27.4 0 18.55 7.94 27.14 24.3 38.19l13.43 9.05-38.83 58H0l34.81-51.89C14.71 147.54 3.47 133.66 3.47 110 3.47 80.4 24 60.39 63 60.39h38.82v153.39H75.19V81.13h.09zm136.31 21.65v111h-26.22v-46.32h-35.09v46.32h-26.22v-111h26.22v43.94h35.09v-43.94h26.22zm118.49 136.31h-24.3v-25.4h-58.93v25.4h-24.3V193h8.22c9.23-18.55 11.06-53.63 11.06-80.76v-9.5h76.55V193h11.7v46.09zm-37.92-115.57h-27.77v3.29c0 19.18-2 49.42-9.32 66.23h37.09v-69.52zM389 215.88c-33.52 0-52.53-18.73-52.53-57.37 0-33.53 15.26-58 47.24-58 26.22 0 43.21 14.61 43.21 53.17v13.88h-63.31c1.09 18.55 8.4 27.59 27.59 27.59 12.79 0 26.49-4.84 34.62-10.41v21.46c-7.67 5.3-20.01 9.68-36.82 9.68zm-25.39-67.7h36.63V146c0-13.88-4-24.66-17-24.66-12.51-.11-18.9 9.21-19.63 26.84zm107.25 11.06v54.54h-26.31v-111h26.31v51.16L508 102.78h26.5l-37.09 51.16 42.11 59.75h-29.83l-38.83-54.45zm67.15-.91c0-33.81 17.45-57.83 51-57.83 13 0 22.75 2.19 28.23 5.29v22.3c-5.3-3.29-15.26-6.86-25.4-6.86-17.18 0-26.68 12.34-26.68 36.46 0 22.93 7.77 37.54 26.5 37.54 11.05 0 19-2.83 25.58-7.49v21.38c-6.4 4.66-15 6.85-27.14 6.85-35.1-.09-52.1-20.55-52.1-57.64h.01z" fill="#000"/><path d="M787.25 155.22v-4.66h-28.06v-20.74h54.72v24.67c0 38.83-18.54 61.39-53.63 61.39-36.17 0-57.19-28.5-57.19-78.75 0-49 22.94-79 65-79 15.9 0 29.6 4.21 37.09 9.69v21.35a68.89 68.89 0 00-35.81-10.33c-27.59 0-39.28 18.73-39.28 58.29 0 38.37 9.68 58 30.69 58 20.08.1 26.47-15.43 26.47-39.91zm140.16 2.92c0 37.28-20.1 57.83-49 57.83s-49-20.55-49-57.55c0-37.28 20.1-57.83 49-57.83s49 20.46 49 57.55zm-27.13 0c0-25.58-7.31-36.81-21.84-36.81-14.53 0-21.83 11.23-21.83 37.09 0 25.58 7.31 36.82 21.83 36.82s21.84-11.33 21.84-37.1z" fill="#fff"/></g><defs><clipPath id="clip0"><path fill="#fff" d="M0 0h963.5v274.53H0z"/></clipPath></defs></svg>