<svg width="65" height="90" viewBox="0 0 65 90" fill="none" xmlns="http://www.w3.org/2000/svg"><path d="M64.803 10.425C42.495 10.99 32.503 0 32.503 0S22.52 10.99.212 10.425L0 44.641c.024 11.041 1.609 21.44 10.181 29.821C17.845 81.95 27.537 87.69 32.488 89.99V90h.024v-.01c4.95-2.3 14.643-8.04 22.306-15.528C63.403 66.08 64.982 55.682 65 44.641l-.197-34.216z" fill="#16457A"/><path d="M32.515 2.215s-9.32 9.678-30.835 9.727l.014 33.851c.024 11.041 2.08 20.58 10.958 28.63 6.761 6.142 15.644 11.38 19.863 13.523 4.216-2.144 13.1-7.39 19.864-13.523 8.875-8.05 10.934-17.59 10.958-28.63l.013-33.851c-21.514-.05-30.835-9.727-30.835-9.727z" fill="#fff"/><path d="M32.514 4.677s-8.712 9.061-28.809 9.106l.012 32.311C3.741 56.41 5.663 65.32 13.952 72.84c6.318 5.733 14.621 10.647 18.566 12.656 3.939-2.002 12.241-6.926 18.566-12.656 8.28-7.52 10.203-16.43 10.223-26.745l.016-32.31c-20.097-.046-28.81-9.107-28.81-9.107h.001z" fill="#16457A"/><path d="M21.657 37.31l.175-.356.965-1.949.181-.338-.116-.37-.598-1.947-.282-.91-.884.29-1.86.613-.9.277.282.907.2.614-3.428 1.112-2.878-9.285 3.415-1.114.2.647.281.91.887-.29 1.86-.614.885-.288-.282-.905-1.072-3.458-.281-.907-.885.288-1.86.615-.885.288.06.193-.243-.137-.368.12-4.42 1.434-.367.118-.175.352-.935 1.861-.046.093-.026.098v.01l-.07.268.082.267 3.722 12.005.115.377.342.183 1.908 1.01.342.181.365-.119 6.224-2.029.37-.115zm10.21-5.237h-.704v-.659l1.268-1.861.928 2.52H32.9v3.902h5.514v-3.902h-.98l-2.362-6.398 2.28-3.345h1.06v-3.904h-5.51v3.685l-1.739 2.555V22.33h.703v-3.904h-5.402v3.904h.69v9.745h-.69v3.903h5.402l.002-3.905zm22.52-9.69l-4.676-1.515-.885-.287-.28.907-.586 1.907-.28.909.44.14-5.32 8.496-.784-.254-.28.907-.593 1.909-.279.907.884.286 3.488 1.132.884.287.28-.907.587-1.906.28-.907-.718-.233.42-.67 2.577.835-.018.793-.717-.232-.281.907-.599 1.906-.28.907 4.372 1.417.885.287.28-.907.586-1.906.28-.907-.785-.254.4-10.087.438.143.28-.907.587-1.906.28-.907-.869-.289zm-4.684 8.282l-.799-.258.867-1.389-.068 1.647zM36.29 53.206l-3.793-11.95-3.793 11.95h-12.24l9.906 7.387-3.793 11.952 9.912-7.387 9.928 7.385-3.793-11.95 9.911-7.386H36.291z" fill="#fff"/><path d="M30.933 33.03h-.703v-1.913l2.442-3.582 2.03 5.495h-.874v2h3.657v-2h-.693l-2.763-7.483 2.839-4.167h.617v-2h-3.66v2h.707l-4.302 6.312v-6.314h.703v-2h-3.546v2h.691V33.03h-.69v2h3.545v-2zm22.584-7.834l.587-1.905-4.678-1.522-.587 1.906.711.232-6.356 10.155-.577-.187-.587 1.908 3.486 1.137.589-1.906-.989-.32 1.456-2.33 3.932 1.276-.113 2.766-.986-.32-.587 1.907 3.487 1.13.587-1.906-.577-.187.487-12.059.715.226zm-2.943 6.757l-3.11-1.008 3.376-5.404-.266 6.412zm-28.61 2.625l-.6-1.948-1.86.615.471 1.521-5.19 1.689-3.44-11.099 5.19-1.69.484 1.555 1.86-.614-1.078-3.452-1.86.614.165.53-.918.29-.679-.365-4.421 1.433-.935 1.861v.01l3.711 12.006 1.911 1.012L21 36.516l.964-1.938zM35.28 54.667l-2.781-8.78-2.781 8.78h-9L28 60.092l-2.78 8.767 7.28-5.425 7.282 5.425-2.78-8.779 7.28-5.426-9.001.013z" fill="#ED2F25"/><path d="M31.093 32.867h-.703v-1.703l2.248-3.298 1.846 5.001h-.798v2.316h3.965v-2.316h-.74l-2.698-7.302 2.74-4.03h.692V19.22h-3.967v2.315h.565l-3.855 5.655v-5.655h.703V19.22h-3.853v2.315h.69v11.332h-.69v2.316h3.853l.002-2.316zm-.308 2.005h-3.238v-1.683h.691V21.218h-.69v-1.685h3.237v1.685h-.702v6.96l4.75-6.96h-.848v-1.685h3.35v1.685h-.54l-2.933 4.3 2.828 7.66h.645v1.694h-3.35v-1.683h.945l-2.21-5.987-2.637 3.861v2.12h.702v1.689zm22.837-9.473l.68-2.207-4.97-1.616-.681 2.207.665.217-6.189 9.88-.61-.204-.674 2.22 3.781 1.228.681-2.21-.942-.304 1.285-2.048 3.708 1.202-.1 2.438-.942-.305-.68 2.207 3.782 1.229.68-2.207-.61-.205.475-11.732.66.21zM52.17 37.02v.12l.543.177-.495 1.605-3.194-1.036.495-1.605 1.032.336.128-3.092-4.156-1.347-1.63 2.606 1.033.334-.503 1.595-3.194-1.036.495-1.607.54.176 6.53-10.432-.754-.245.491-1.597 4.392 1.419-.495 1.605-.757-.244-.5 12.268zm-1.441-4.863l.297-7.202-3.793 6.07 3.496 1.132zm-.292-.425l-2.727-.885 2.961-4.74-.234 5.625zm-29.321 4.913l1.022-2.063-.669-2.158-2.154.704.471 1.521-4.89 1.595-3.35-10.792 4.89-1.595.482 1.554 2.154-.704-1.164-3.759-2.154.702.163.53-.722.236-.679-.364-4.544 1.482-.956 1.918-.026.086 3.735 12.051.02.062 2.023 1.07 6.286-2.047.062-.029zm-6.32 1.736l-1.797-.951-3.683-11.875.888-1.76 4.298-1.403.679.364 1.132-.37-.164-.53 1.567-.512.978 3.157-1.567.512-.48-1.556-5.487 1.791 3.534 11.4 5.478-1.786-.471-1.52 1.567-.513.537 1.734-.907 1.83-6.102 1.989zm18.103 8.053l-.4-1.229-.399 1.229-2.531 8.017h-9.483l1.02.762 6.666 4.954-2.54 8.018-.398 1.228 1.022-.76 6.65-4.954 6.645 4.953 1.022.76-.4-1.23-2.538-8.017 6.65-4.954 1.02-.762h-9.467l-2.54-8.015zm3.868 13.574l2.633 8.308-6.89-5.135-6.894 5.135 2.633-8.308-6.891-5.135h8.518l2.633-8.308 2.633 8.308h8.519l-6.894 5.135z" fill="#16457A"/></svg>