<svg width="67" height="92" viewBox="0 0 67 92" fill="none" xmlns="http://www.w3.org/2000/svg"><g clip-path="url(#clip0_486_16942)"><path d="M23.22 61.517c-.303.45-.63.86-.95 1.263-.584.735-1.145 1.44-1.576 2.41.935-.338 1.982-.563 3.138-.673.526-.417 1.525-1.211 2.747-2.204a10.705 10.705 0 01-3.36-.796zm12.05 29.884a15.22 15.22 0 01-2.26-2.392 6.807 6.807 0 01-1.27.122c-.358 0-.707-.03-1.047-.088-.702.95-1.746 2.157-2.797 2.618l-.613.269-.631-.223c-2.13-.752-3.792-2.73-4.605-5.41a3.997 3.997 0 01-.26-.072l-.98 2.03-1.257-.212c-2.074-.352-4.266-2.386-5.33-4.948-.752-1.808-1.568-5.397 1.098-9.575-.07-1.202.034-3.634 1.657-5.713.113-.145.233-.286.355-.422-.687-.251-1.452-.688-2.056-1.382l-.071.001a5.572 5.572 0 01-1.633-.24 10.76 10.76 0 00-1.077.962l-.944.999-1.177-.712c-.162-.1-1.388-.886-2.07-2.488a5.393 5.393 0 01-.43-.163l-.785 1.36-1.473-.865c-1.086-.638-1.727-2.351-1.948-3.624-.354-2.057.068-4.031 1.192-5.63.105-1.104.538-2.067 1.269-2.81 1.027-1.046 2.427-1.44 3.481-1.583.46-2.373.388-4.894.31-7.54-.104-3.494-.208-7.097.936-10.647-.91-1.8-2.09-5.128-.549-8.293l.246-.505.498-.258c1.442-.75 2.943-.954 3.913-.998.713-1.007 2.1-2.652 4.234-3.907-1.858-.091-3.431-.438-4.79-1.05-2.82-1.274-4.231-3.911-3.873-7.234C11.291 3.778 17.815 0 23.569 0c.548 0 1.088.035 1.605.105 2.172.293 3.791 1.697 4.442 3.854.33 1.09.436 2.58-.215 3.511 2.946-.45 6.274-.842 9.802-.842 4.535 0 8.47.646 12.032 1.978h-.001c1.903.676 3.623 1.54 5.118 2.57 3.615 1.098 6.399 4.428 6.672 8.038l.004.063v.064c0 1.49-.715 3.232-1.543 5.248-.816 1.987-1.722 4.19-2.012 6.323 1.233.225 2.29.61 2.45.67l.777.29.25.793c.768 2.448 1.133 7.025-2.371 8.657l-1.604.747-.489-1.175c-.343.65-.855 1.118-1.25 1.41a40.99 40.99 0 012.004 4.899l.09.274-.008.289c-.182 7.472-4.718 13.157-8.028 17.307-1.491 1.87-3.027 3.795-3.318 4.965 1.264 2.135 1.726 4.307 1.35 6.347.768 1.766.852 3.698.237 5.626-.918 2.88-3.202 5.118-4.935 5.98l-.716.354-.729-.325c-.247-.11-.85-.379-1.568-1.653-.996 3.122-3.32 4.923-4.753 5.362l-.885.27-.707-.598z" fill="#FEFEFE"/><path d="M61.33 33.176s-2.096-.784-3.65-.72c-.098-5.053 3.65-10.361 3.65-13.115-.234-3.104-2.789-5.83-5.718-6.607-1.42-1.014-3.117-1.878-4.974-2.534h.003c-13.656-5.107-29.875 2.128-31.335-.332 2.084-3.187 6.857-1.736 8.668-3.332.507-.445.289-4.298-3.025-4.746-4.965-.668-11.994 2.393-12.727 9.171-.248 2.293.477 4.413 2.884 5.5 6.55 2.96 17.797-2.304 23.07-.256-3.084 1.09-7.499 2.098-11.145 2.892-7.711-.817-11.148 5.58-11.148 5.58s-2.122-.204-4.052.799c-1.408 2.894.115 6.098.873 7.396-2.433 6.495.053 13.599-1.739 19.969 0 0-4.492-.3-4.434 3.371-2.402 2.871-.852 6.711-.058 7.177a4.225 4.225 0 011.184-1.273c.5.818 1.972.97 1.972.97.332 1.685 1.626 2.474 1.626 2.474s.84-.9 2.095-1.737c1.333.781 2.773.374 2.773.374.67 1.573 2.508 1.769 2.508 1.769.914-3.468 3.027-4.43 3.884-6.741 1.604 1.11 5.726 2.578 9.154-.132a86.013 86.013 0 011.52-2.372c1.505-1.04 3.378-2.139 4.157-1.689-3.03 3.422-12.866 11.14-12.866 11.14-8.734.545-7.411 7.788-7.411 7.788-4.473 6.361.061 11.948 2.764 12.407l1.248-2.584s.915 1.166 2.313.872c.558 3.023 2.17 4.864 3.822 5.447 1.199-.524 2.775-3.042 2.775-3.042 1.835.848 3.725-.025 3.725-.025s.903 1.588 2.65 3.067c1.18-.362 3.452-2.278 3.933-5.566 1.474.1 1.993-.873 1.993-.873s.847 2.476 1.581 2.803c2.39-1.186 5.949-5.617 3.666-9.878.626-2.251-.165-4.395-1.31-6.14-.08-4.387 11.12-11.41 11.396-22.724 0 0-1.55-4.824-4.14-8.526l1.585.209c.367.56.827 1.743.827 1.743s1.123-.575 1.255-1.563l1.778-.733s.603.134.932.927c3.09-1.44 1.468-6.605 1.468-6.605z" fill="#092247"/><path d="M29.723 43.38a.445.445 0 01-.002-.024v-.002a8.03 8.03 0 00-.056-.389v-.001l-.021-.12v-.004c-2.883.781-5.206-.051-5.206-.051-.398-2.172.403-3.627.403-3.627-.612.49-1.255 2.285-1.39 2.675-.094.515-.134.9-.134.9s-2.219.897-4.648-.142c.086.067.176.134.27.2l.026.019a5.65 5.65 0 00.653.39c.105.055.212.108.325.16l.01.005c.113.052.232.102.353.151l.075.029a8.46 8.46 0 00.878.29c.137.04.279.077.427.111-3.773.1-6.051-1.755-6.051-1.755 1.808 2.853 6.138 3.394 6.138 3.394s-2.201.234-4.098-.452c-.55-.198-1.074-.474-1.511-.856.52.787 1.279 1.338 2.075 1.724 1.75.847 3.683.897 3.683.897s-1.744.342-3.162.004a4.214 4.214 0 01-.376-.11 7.852 7.852 0 00.788.45c3.273 1.611 5.212-.575 5.212-.575s-1.307-1.922-1.14-3.285c.113.06.225.114.333.167.22.102.433.19.637.266 1.12.414 1.97.438 2.205.435l.065-.001.065.001c.279.003 1.415-.03 2.84-.701.11-.053.22-.107.334-.167v-.007zM28.17 56.435l-1.337.098.001.819s.507-.03 1.336-.244c0 0 .386.371.712.298 0 0 1.194-.905.282-2.92-.355 1.387-.994 1.95-.994 1.95zm-3.67-1.948c-.912 2.014.284 2.92.284 2.92.325.072.71-.299.71-.299.829.214 1.337.244 1.337.244v-.819l-1.336-.098s-.64-.562-.995-1.948zm6.787-8.89c.301.63 4.286 1.297 5.519-1.316-1.764 1.539-4.94 1.362-5.519 1.316zm.006 1.347c.645.695 2.6.683 3.285-.147-1.154.405-2.689.237-3.285.147zm-.013-2.994c-.02.008 4.03 1.734 6.047-1.755 0 0-2.276 1.854-6.047 1.756zm-1.347 6.229s.364 1.14.008 2.894c1.094-.492 1.805-1.588 1.613-3.725-1.084-.011-1.621.83-1.621.83zM6.628 61.196c.065-.165.705-1.77 1.46-1.96.486-.436.463-1.249.326-1.345-1.349-.137-2.341 2.111-1.786 3.305zM34.223 36.48c.249-.057.897.201.897.201-.617-1.072-1.852-1.019-2.646-.285.07.178.113.398.113.64 0 .585-.541 1.06-.541 1.06s-.376-.334-.5-.785c-.646.636-1.247 1.218-1.247 1.218.978.344 3.67.325 3.924-2.05zM12.89 59.746c-1.486-.037-2.388 2.508-1.683 3.768.06-.186.628-1.997 1.438-2.267.497-.517.402-1.405.246-1.5zm14.406-10.398s-5.198-.126-5.348 0c-.192 2.137.52 3.233 1.613 3.726-.355-1.755.008-2.895.008-2.895s3.744-.718 3.727-.83zm-9.152 11.001c-1.25.44-1.195 2.848-.208 3.674-.01-.173-.109-1.863.481-2.347.248-.589-.112-1.299-.273-1.327zm.598-23.869c.253 2.375 2.944 2.393 3.922 2.05 0 0-.602-.583-1.247-1.219-.124.452-.5.785-.5.785s-.54-.475-.54-1.06c0-.242.043-.463.112-.641-.794-.733-2.027-.786-2.646.286 0 0 .648-.258.899-.202zm25.009 39.145c-.343.075-1.054 1.623-.474 2.865 1.3.986 1.223 4.61 1.215 4.981 2.047-1.847 1.971-7.002-.74-7.846zm-24.2-.008c-2.69.915-2.632 6.07-.538 7.864-.019-.372-.19-3.993 1.085-5.012.549-1.255-.203-2.785-.547-2.852zM28.42 82.3c-.485 1.566-1.078 3.88-1.326 5.707-.932-1.346-1.533-3.797-1.484-5.782.025-1.027.682-2.064 1.638-1.893.916.164 1.189.94 1.171 1.969zm7.007.007c.487 1.566 1.084 3.88 1.334 5.707.929-1.343 1.526-3.793 1.474-5.778-.026-1.029-.686-2.066-1.642-1.897-.915.163-1.186.94-1.166 1.968z" fill="#fff"/><path d="M25.962 46.697s.272.39.523.39.522-.39.522-.39-.177-.99 1.096-1.026c.329-.262.427-.952.427-.952a7.798 7.798 0 01-2.045.399 7.795 7.795 0 01-2.046-.4s.1.69.429.953c1.272.036 1.094 1.026 1.094 1.026z" fill="#fff"/><path d="M26.69 38.92c-.129 0-.203.006-.203.006s-.074-.005-.203-.005a4.5 4.5 0 00-1.44.243s-.801 1.455-.403 3.627c0 0 2.323.832 5.205.05-.148-.817-.547-2.401-1.517-3.677a4.512 4.512 0 00-1.44-.243zm-3.374 3.818s.04-.385.135-.9l-.028.08s-.32-1.575.367-2.563c-.652.418-5.04 1.517-6.724.14-.006 1.027.44 2.18 1.605 3.102 2.428 1.037 4.645.141 4.645.141zm-8.768 10.135c-.39-.513.172-.838.759-.782.248.024.5.115.685.29.168.157.18.317.1.454-.217.375-1.137.572-1.544.038zm2.265 1.193a9.754 9.754 0 00-.036-.613c-.156-1.74-.754-3.384-1.367-4.668a.622.622 0 01-.546-.24c-.202-.265-.148-.539.032-.757a19.285 19.285 0 00-.494-.84c-.31-.496-.523-.78-.523-.78a16.64 16.64 0 01.206 3.45.99.99 0 01.178.01.865.865 0 01.483.226c.414.39-.085.913-.63 1.009a1.015 1.015 0 01-.128.015c-.265 2.356-.906 3.924-.906 3.924-3.284-.578-3.987 1.291-3.987 1.291-.031 1.191 1.643 1.42 1.643 1.42.823-1.562 3.325-.932 3.325-.932-1.152.633-1.417 1.67-1.417 1.67.873 1.29 2.633.754 2.633.754a7.421 7.421 0 001.488-3.744c-.422.06-.837 0-1.037-.262-.351-.462.357-.856 1.083-.933zM54.43 14.78c.77 4.206.348 7.998.085 9.65-.088.559-.159.873-.159.873s.4-.596.835-1.554c.475-1.042.989-2.51 1.076-4.105 0 0 .91-.359 1.912-.393-.482-2.18-1.73-3.573-3.75-4.47zM25.516 4.45s-.055-.502-.364-.922a1.327 1.327 0 00-1.03-.557c-1.12-.068-10.761 1.198-10.224 9.706 1.5-7.698 10.807-8.132 11.618-8.227zm7.185 16.173c.226-.603 2.13-1.109 2.423-.588.316.563.268 1.046-.456 1.25-.722.203-2.192-.06-1.967-.662zm4.44-.523c.488-.276 1.726.485 1.538 1.008-.2.564-1.006.582-1.483.3-.477-.282-.543-1.031-.056-1.308zm3.847-1.523c.405-.23 1.43.183 1.275.62-.168.47-1.138.346-1.537.11-.398-.235-.145-.498.262-.73zm2.72-1.563c.36-.15 1.33.316 1.228.663-.11.373-1.003.152-1.4-.084-.398-.236-.188-.428.172-.578zm-24.743 7.611s4.105-3.273 12.857-.568c0 0 3.928-2.03 7.899-2.194 4.283 1.472 7.652 4.552 7.652 4.552-1.029-4.108-3.75-6.63-3.75-6.63s3.466-2.05 4.143-5.451c-2.704 1.545-5.857 2.783-8.729 3.723.082.104.124.214.105.326-.1.59-.89.747-1.41.551a.795.795 0 01-.399-.341c-3.91 1.177-6.939 1.749-6.939 1.749a8.081 8.081 0 011.312 1.04c-9.035-2.02-12.741 3.243-12.741 3.243zm4.638 8.001c.147-.78-.135-2.32-.135-2.32s1.58 1.632 1.127 5.018c0 0-1.127-2.364-4.338-3.866 0 0 1.985.002 3.346 1.168zm-3.212-3.272c.107-.753.607-.958 1.178-.462.506.438.137 1.624-.288 1.68-.425.057-.992-.508-.89-1.218zm3.628-1.517c.615.042 1.007 1.169.724 1.46-.28.293-.717-.041-1.336-.417-.62-.375-.088-1.09.612-1.043zm1.686 2.744c.378.309.216 1.525-.1 1.583-.315.057-.544-.667-.772-1.194-.226-.526.445-.742.872-.39zm1.504 0c.43-.353 1.098-.137.871.389-.226.527-.456 1.252-.771 1.194-.316-.058-.478-1.274-.1-1.583zm1.687-2.744c.699-.047 1.232.668.613 1.043-.622.376-1.055.71-1.338.417-.283-.291.11-1.418.725-1.46zm-11.689 6c.032-.032.064-.064.098-.095l.057-.051a2.65 2.65 0 01.113-.085c.02-.013.038-.027.056-.04a1.604 1.604 0 01.443-.189l.008-.002c.083-.022.165-.037.248-.047l.014-.002c.081-.008.161-.01.24-.007h.02c.078.003.156.013.232.027l.027.003a2.3 2.3 0 01.226.057l.03.01c.073.023.146.052.22.083l.033.014c.073.032.144.068.215.107l.039.02c.07.04.14.082.21.126l.042.028c.068.045.136.091.204.14l.048.036a8.518 8.518 0 01.253.197l.187.159.066.058.175.157.084.078.152.144.122.118.005.005c.62.601 1.239 1.264 1.873 1.77a5.726 5.726 0 00.146.115c.83.628 1.686.957 2.602.507a1.836 1.836 0 00.157-.085c.003-.003.007-.004.011-.006a3.15 3.15 0 00.226-.148l.394-1.72.392 1.72c.98.716 1.888.495 2.765-.1l.002-.003a15.927 15.927 0 00.136-.096 2.44 2.44 0 00.126-.095c.004 0 .007-.004.009-.006.042-.032.084-.064.125-.098l.01-.008.124-.101a.073.073 0 01.01-.008c.04-.036.083-.071.123-.106a5.99 5.99 0 00.271-.245c.307-.284.612-.59.916-.893l.227-.225c.005-.007.01-.011.016-.017.076-.076.155-.15.231-.225l.015-.015.23-.217.017-.015c.076-.07.152-.14.228-.207l.019-.015a5.98 5.98 0 01.228-.193l.018-.015a8.932 8.932 0 01.249-.192c.076-.055.152-.107.227-.158a4.069 4.069 0 01.25-.15l.022-.011a3.07 3.07 0 01.23-.114l.022-.01c.076-.032.154-.062.23-.086l.022-.008c.077-.023.154-.043.232-.058l.022-.003a1.79 1.79 0 01.235-.027h.02c.08-.004.159-.001.239.007l.018.003c.08.009.161.024.243.046.006 0 .01.003.016.004.014.004.028.01.043.013.066.021.133.045.2.072l.006.004a1.593 1.593 0 01.353.222v-.002c-2.11-2.569-5.524-.826-7.23 1.636-.452-3.386 1.128-5.017 1.128-5.017s-.282 1.54-.136 2.32c1.055-.905 2.482-1.109 3.072-1.155a7.437 7.437 0 00-.121-1.27c-.185.252-.452.4-.679.37-.426-.056-.794-1.242-.289-1.68a1.1 1.1 0 01.443-.25c-.963-1.845-2.664-2.227-2.664-2.227-.98 0-2.641 1.687-2.641 2.786 0-1.114-1.662-2.786-2.643-2.786-3.394 0-5.788 2.386-5.788 2.386.082-.862.54-1.526.54-1.526s-3.182-1.313-5.492-.605c-.23 2.87 1.635 4.837 1.644 4.855 0 0-.007-.029-.015-.08a4.295 4.295 0 00-.015-.083c-.079-.476-.28-1.879-.03-2.773 3.012 1.06 2.434 2.788 1.637 5.316-.249.793.145 1.356.145 1.356s.053-.215.17-.5c.02-.05.044-.104.07-.158l.012-.028c.021-.047.047-.095.072-.143l.018-.035a2.77 2.77 0 01.096-.163 2.528 2.528 0 01.125-.184c.009-.014.02-.027.03-.04.03-.04.064-.08.098-.12l.05-.053zm32.78 14.109c-.776.084-.719-1.8.16-1.762.88.037.615 1.678-.16 1.762zm-2.061 2.616c-.439-.689 1.213-1.218 1.707-.662.494.555-1.268 1.351-1.707.662zm-.138 2.367c-1.023.642-2.339.5-2.088-.25.25-.75 3.08-.372 2.088.25zM35.035 64.074c-.53.16-1.356.108-1.957-.093-.392-.13-.69-.324-.748-.566-.075-.316.228-.648.705-.825a2.231 2.231 0 011.61.039c1.156.475 1.085 1.235.39 1.445zM51.12 43.865a1.707 1.707 0 01-.607-.08c-.806-.238-.765-1.57.083-1.74a11.271 11.271 0 00-2.047-3.361c-.3.412-.832.577-1.259-.172-.168-.295-.052-.662.184-.918-1.323-1.188-2.476-1.736-2.476-1.736 1.3 1.846 1.928 3.547 2.141 5.062.401-.105.848-.074 1.123.217.388.412-.298 1.182-1.037 1.175-.05 2.49-1.17 4.34-1.913 5.317-.38.501-.66.773-.647.783 0 0 2.365-1.537 3.764-2.852.16-.15.31-.297.439-.44-.029.077-.059.15-.09.226-1.18 2.989-3.389 5.735-6.06 8.353.403-.034.802.03 1.021.236.601.566-1.433 1.365-2.085.78-.52.483-1.054.963-1.597 1.438.175.113.23.3.1.59-.22.485-.95.716-1.709.789a189.41 189.41 0 01-2.35 1.943c1.192.134 2.421.72 1.546 1.535-.505.467-2.189.155-2.935-.402-.606.492-1.21.985-1.805 1.475a115.218 115.218 0 00-3.268 2.776c-.34.302-.676.604-1.004.909 1.15-.14 2.13-.034 1.738.833-.416.92-2.362 1.085-3.562.937-.213.22-.423.44-.628.662 0 0-5.651-.04-6.76 4.738 2.37.497 3.479 2.506 3.73 5.552.035-.012.333-.578.584-1.328v-.002c.035-.106.07-.216.103-.33l.001-.002c.036-.126.071-.256.102-.388.08-.347.136-.705.144-1.05v-.01c.002-.075 0-.146-.002-.218 0-.017 0-.032-.002-.048a2.497 2.497 0 00-.018-.19 2.156 2.156 0 00-.04-.236 1.412 1.412 0 00-.017-.074 2.995 2.995 0 00-.048-.153c-.006-.014-.01-.032-.016-.047l.001.012c-.012-.035-.022-.07-.037-.104 0 0 1.788-3.031 4.264-3.477 0 0-3.762 4.299-2.932 7.98 0 0 3.952-2.291 4.952 2.378.017-.049.028-.097.042-.145a4.02 4.02 0 00.148-1.336l-.004-.11a4.532 4.532 0 00-.477-1.706c.28-2.05.809-3.897 1.52-5.584.039-.093.082-.183.124-.276a22.773 22.773 0 012.023-3.668 1.519 1.519 0 01-.476-.352c-.214-.245-.317-.568-.23-.99.034-.164.098-.307.186-.433.46-.66 1.582-.852 2.561-.882 1.912-2.216 4.079-4.128 6.182-5.937-.527-.089-.994-.297-1.063-.581-.121-.513.931-1.073 1.94-.66.14.057.255.12.353.186.791-.681 1.563-1.352 2.299-2.025-.459-.177-.918-.44-1.207-.824-.41-.549 1.406-.742 2.25-.263.023.013.043.029.063.043 2.84-2.778 4.895-5.683 4.916-9.491a11.591 11.591 0 00-.218-2.303zm-15.838-5.721c-1.15 1.886-3.579 1.896-3.579 1.896 3.236.622 4.651-.703 5.281-1.5 0 0-.724-.618-1.702-.396z" fill="#FFAE0D"/><path d="M35.71 69.853c-.92.912-1.833 2.295-2.408 3.73-.011.032-.024.063-.036.094-.456 1.172-.682 2.374-.497 3.379l.612.263.543.233c-.077.176-.742 1.384-.52 3.298.692-2.108 1.975-2.831 3.632-2.637 1.046-1.187.558-4.554-.513-6.974a6.324 6.324 0 00-.814-1.386zm4.516-1.359c-.367-.244-.636-.347-.668-.271a5.276 5.276 0 00-.405.825c-.736 1.883-.371 3.861-.371 3.861l1.475.534c-.662 1.457.678 4.141.755 4.17.163-1.988.695-3.53 1.7-4.502.292-2.18-1.475-3.944-2.486-4.617zm-.361-41.824c-2.31-.708-5.492.605-5.492.605s.023.034.059.093c.885.599 1.567 1.397 2.091 2.269.354-.404.917-.753 1.758-1.049.302 1.091-.06 2.937-.06 2.937.01-.018 1.872-1.985 1.644-4.856z" fill="#FFAE0D"/></g><defs><clipPath id="clip0_486_16942"><path fill="#fff" transform="translate(3.519)" d="M0 0h59.964v92H0z"/></clipPath></defs></svg>