<svg width="60" height="94" viewBox="0 0 60 94" fill="none" xmlns="http://www.w3.org/2000/svg"><path d="M59.792 10.237c-.878 1.492-2.674 4.393-4.391 6.051-.24-.746-.559-1.409-.918-2.238C55.52 7.792 53.645 2.28 50.012 0c.758 2.445.838 6.673.678 8.29C47.337 4.185 40.63.621 34.124.58c7.105 4.56 14.49 10.528 16.487 20.89-1.956 2.403-4.352 4.351-7.345 5.885 1.117-8.953-3.034-17.905-8.424-19.397 1.238 2.61 2.276 7.211 2.436 11.853-3.154-2.362-4.591-5.678-5.39-9.035-2.435 3.979-1.397 12.558 4.79 16.206a16.177 16.177 0 01-.957 2.984c-1.797.414-3.753.704-5.908.953-4.671-2.57-5.11-12.475-4.671-17.117-3.074 2.445-5.07 8.993-4.112 15.128-1.597.165-2.914.538-4.072 1.077-1.916-5.264-.319-12.765.44-15.128-3.873 1.824-7.386 8.165-6.547 15.46-1.757-1.741-3.314-3.482-4.152-6.59 3.752-8.745 11.098-17.283 15.17-21.22-4.232.206-8.783 3.44-12.016 6.92 0-1.491.998-4.434 1.477-5.719-4.391 1.824-6.387 7.75-6.707 12.02l-.718.994c-.56-1.202-1.517-4.144-1.917-5.636-3.393 7.087-2.674 18.236 3.953 24.411-.52 3.855.359 7.336 2.355 9.492-.08.538 0 1.119.16 1.575-1.797 3.398-3.593 8.786-3.873 11.895v.165l.04.166a29.463 29.463 0 003.234 8.33l.2.374c.877.29 2.674.663 3.991.746-.359 5.264.998 10.569 3.912 15.003 3.114 4.767 7.904 8.456 13.134 10.072L31.17 94l.399-2.197c1.517-8.123 5.43-12.848 8.822-17.739 2.116-3.025 3.793-5.553 5.03-7.584 3.433-5.596 2.914-9.367 1.158-12.807a1094.16 1094.16 0 01-3.074-6.217c4.59-3.689 4.99-11.108 3.872-14.299C56.4 27.81 61.07 18.692 59.792 10.237z" fill="#F4F6FA"/><path d="M58.664 12.871c-.837 1.576-2.829 3.857-4.183 5.1-.359-1.492-.757-2.487-1.435-3.939.598-3.856.2-9.081-2.19-11.943.756 2.82.557 5.889.039 8.377-3.108-4.23-7.968-7.713-14.622-9.123 9.004 5.018 14.064 12.565 15.06 20.195-2.51 3.483-5.817 6.013-9.84 7.713 1.155-6.345-.439-15.924-5.42-19.656 1.276 2.695 2.112 7.506 2.073 12.068-2.79-1.576-5.578-3.857-6.734-8.294-1.155 5.474 2.351 10.823 6.335 13.104-.319 1.783-.836 3.359-1.593 4.52-2.192.498-4.503.83-7.013.995-4.581-1.824-5.697-10.574-5.298-15.592-2.112 3.65-2.83 8.957-1.873 13.353-2.47.083-4.383.705-5.857 1.534-1.992-4.188-1.673-10.326-.398-14.43-3.905 3.856-4.94 10.657-3.905 15.674-3.147-2.115-5.538-4.603-6.653-8.874C7.268 17.847 13.803 8.31 19.46 3.458c-3.785 1.41-7.889 4.893-11.275 8.791.199-2.571.677-5.266 1.633-7.133C7.03 7.273 5.396 12 5.276 15.981a47.96 47.96 0 00-1.832 2.779c-.678-1.535-1.395-3.525-1.753-5.516-1.992 6.262-1.474 16.298 5.06 21.73-.04.207-.08.415-.08.456-.478 3.276.12 7.008 2.47 9.165-.319.622-.12 1.534.2 1.866-1.794 3.11-3.706 8.75-4.025 12.026.638 2.861 1.713 5.557 3.108 8.045 1.434.373 2.988.58 4.382.705-.637 5.39.638 10.782 3.666 15.385 2.988 4.603 7.57 8.127 12.59 9.703l1.036.332.199-1.12c1.554-8.335 5.498-13.228 8.964-18.204 6.933-9.911 8.725-13.644 6.215-19.035-.956-2.032-3.426-6.966-3.585-7.298 4.701-3.11 5.378-10.409 4.223-13.56-.08-.166-.16-.498-.319-.788 7.212-4.272 12.391-11.238 12.87-19.78z" fill="#00205B"/><path d="M30.455 43.91c1.539 2.362 4.143 3.772 7.38 3.73.946 1.824 2.13 5.14 2.682 7.088l-1.341-.373c2.486 6.591 2.446 9.866.868 12.353C36.137 72.76 29.666 78.563 28.008 89.3c-7.103-3.44-10.655-8.829-12.075-14.01l1.223-2.363.04.207c.75 4.518 4.498 9.99 8.365 12.353-1.736-4.436-2.13-9.617-1.933-13.016v-.166l.118.124s1.302 1.451 2.289 2.612c.474-8.58 1.657-13.058 3.828-18.032.04-.083.592-1.16.631-1.243 1.105-2.653 1.263-5.555.237-8 .04 2.652-.71 5.264-2.17 6.88 0 0-.75-.041-1.303-.041-4.262 0-7.971 3.523-8.997 4.601l-.079.083-.04-.083c-.67-1.202-1.893-1.533-3.156-1.865-1.697-.456-3.473-.954-4.104-3.524-.987 1.866-1.855 2.86-2.802 3.192H8c.829-4.56 3.749-10.197 4.144-10.943l1.42-1.575-2.052.663c.355-2.777 1.342-5.016 2.565-6.798.474-.663 1.223-1.244 3-1.783-.632-.124-1.855-.041-2.684.125.316-1.327 1.894-4.975 8.602-5.14.948 2.57 2.605 4.518 5.012 5.264a30.73 30.73 0 002.762 0c1.145-.041 1.105.912-.078.912-.79 0-1.5-.083-2.17-.249 5.563 2.902 13.692-1.036 15.31-2.03.987 3.398-2.21 15.71-13.377 8.455zM11 42.623c.355-1.285.868-2.445 1.42-3.523a15.364 15.364 0 01-3.354-1.617c-.157.912.198 3.482 1.934 5.14z" fill="#C8102E"/><path d="M18.054 49.28c-1.776 1.453-3.268 3.238-4.56 5.106.686-2.49 1.816-4.4 3.067-5.853a10.924 10.924 0 01-.484-2.45c.363.54.887 1.163 1.29 1.62 2.14-2.035 4.56-2.823 6.134-2.657 0 0 .444-1.702.645-3.072.404 1.287.646 3.238.565 4.566-.444.042-.887.083-1.331.166-1.856 3.57-3.995 3.404-5.326 2.574zm3.55-8.842c-2.098 0-4.559 1.328-5.285 3.113.08.374.161.623.363 1.08 1.009-1.868 2.945-3.363 4.922-4.193zm-7.464.041a15.117 15.117 0 01-.807 3.695c.363-.124.807-.29 1.13-.498.242-1.038.04-2.2-.323-3.197zm10.692 8.552c-.605 1.453-2.501 2.906-5.124 3.321 1.816.872 4.156.208 5.326-1.038 0-.996-.202-2.283-.202-2.283zm17.834-10.088c-1.694.748-3.47 1.121-5.245 1.204-1.977.872-3.268 2.284-3.752 3.778.887.332 3.913.041 5.285-1.494-1.25.29-2.542 0-2.864-.416 2.42.083 4.236-.415 6.576-3.072z" fill="#00205B"/><path d="M7.39 14.047c-.199.25-.398.5-.597.79.08-1.414.279-2.995.637-4.035a29.762 29.762 0 00-.04 3.245zM3.965 24.78c-.239-.041-.557-.208-.717-.499.438.042.956-.665 1.115-1.165 1.235-3.286 4.421-8.86 6.572-11.523-2.589 2.205-6.412 7.571-7.846 10.567a46.08 46.08 0 01-1.036-4.493c-.318 4.659.478 15.226 10.196 19.261.12-.5.358-1.123.717-1.747-4.341-1.914-7.169-5.492-9-10.4zm9.479.75c-.677 3.452-.399 5.948.358 8.444.319-.416.677-.79 1.115-1.164-1.035-2.08-1.354-4.493-1.473-7.28zm38.392-13.688c.359-1.123.558-2.662.558-3.785.398 1.705.358 3.37.16 4.992-.2-.416-.479-.832-.718-1.207zm3.186 7.863l.24 1.747c.756-1.206 1.592-2.87 2.07-4.534-.717.915-1.593 2.038-2.31 2.787zm-7.248-10.11c2.549 3.87 4.819 8.072 5.138 12.772-2.43 3.828-7.488 7.697-14.218 9.86.358-.624.836-.957.836-.957 1.075-2.579 1.593-8.902.2-12.355.079 1.58.119 3.619-.08 5.782-1.315-.457-3.824-1.622-6.014-3.869 1.194 2.288 4.142 4.66 5.814 5.325-.278 1.79-.876 4.785-2.35 6.532-2.469.665-5.137 1.081-8.005 1.206-3.385-.873-5.097-3.786-6.053-9.152-.398 5.242 1.274 10.775 5.576 11.315 12.585-.25 22.103-7.363 25.409-12.73.239-5.325-2.708-10.816-6.253-13.728z" fill="#B2B1B1"/><path d="M28.736 55.47c-3.863-.25-7.49 2.331-10.328 6.62-.828 1.25-1.892 3.04-2.444 3.664-1.459.167-4.612-.208-5.834-.5-.513-.79-1.025-2.123-1.42-3.372.907.166 2.05.583 3.351 2.373.355-1.915 1.617-2.123 2.72-2.373-.118-.583-.552-1.957-.867-2.582-1.695.458-4.494.5-5.913-.166.04-.417.118-1.083.197-1.416.828-.292 1.695-1.041 2.878-3.331.985 4.747 5.676 2.706 7.293 5.58 1.97-2.041 6.07-5.247 10.367-4.498zm-8.594 13.157c-.827-1.332-1.261-3.248-1.34-4.663-1.261 2.04-1.97 3.747-1.97 3.747-.434.042-.868.042-1.302.042-.394 2.706-.118 5.746.67 8.536l1.144-2.249c.749 4.58 4.572 10.243 8.554 12.575-1.735-4.372-2.208-9.66-2.01-13.24 0 0 1.38 1.581 2.404 2.747.473-9.16 1.734-13.699 4.376-19.487-2.996 5.372-8.633 7.745-10.526 11.992z" fill="#F4F6FA"/></svg>