<svg width="795" height="484" viewBox="0 0 795 484" fill="none" xmlns="http://www.w3.org/2000/svg">
<g clip-path="url(#clip0_503_17430)">
<rect width="483" height="794" transform="translate(794.5 0.5) rotate(90)" fill="#00205B"/>
<path d="M310.432 296.453L-71.4605 75.9682L-71.4605 18.3524L335.385 253.245L310.432 296.453Z" fill="#0C2C67"/>
<path d="M348.375 274.842L348.375 483.485L298.486 483.485L298.486 274.842L348.375 274.842Z" fill="#0C2C67"/>
<path d="M348.375 102.472L348.375 274.857L298.486 274.857L298.486 102.472L348.375 102.472Z" fill="#0C2C67"/>
<path d="M341.067 120.102L305.794 84.8283L412.106 -21.4992L481.997 -21.4992L482.34 -21.1561L341.067 120.102Z" fill="#0C2C67"/>
<path d="M101.357 387.852L316.965 445.632L329.881 397.427L177.079 356.486L248.879 232.112L205.671 207.174L101.357 387.852Z" fill="#0C2C67"/>
<path d="M444.718 143.675L419.773 186.881L310.964 124.06L335.909 80.8541L444.718 143.675Z" fill="#0C2C67"/>
<path d="M558.107 172.9L445.873 -21.4996L503.489 -21.4996L601.315 147.947L558.107 172.9Z" fill="#0C2C67"/>
<path d="M498.18 208.098L498.18 274.857L448.29 274.857L448.29 169.812L639.661 118.535L602.136 -21.4999L653.8 -21.4999L700.767 153.808L498.18 208.098Z" fill="#0C2C67"/>
<path d="M706.778 -20.575L624.821 -20.575L488.798 15.8618L478.791 -21.4998L706.778 -21.4998L706.778 -20.575Z" fill="#0C2C67"/>
<path d="M-47.5818 193.601L-71.4603 234.93L-71.4603 146.903L94.5859 -19.1432L129.859 16.1303L-47.5818 193.601Z" fill="#0C2C67"/>
<path d="M-21.7795 483.5L-71.4607 483.5L-71.4607 469.749L111.529 152.81L154.737 177.762L-21.7795 483.5Z" fill="#0C2C67"/>
<path d="M312.893 125.068L198.288 71.6436L198.288 -21.4992L248.193 -21.4992L248.193 39.8453L333.968 79.8468L312.893 125.068Z" fill="#0C2C67"/>
<path d="M816.386 194.227L691.848 -21.5L749.449 -21.5L816.386 94.4326L816.386 194.227Z" fill="#0C2C67"/>
<path d="M741.251 286.683L705.973 321.961L562.079 178.066L597.356 142.789L741.251 286.683Z" fill="#0C2C67"/>
<path d="M658.006 483.5L608.102 483.5L608.102 464.588L544.072 447.436L458.834 299.795L323.438 299.795L323.438 249.905L487.635 249.905L576.945 404.586L658.006 426.302L658.006 483.5Z" fill="#0C2C67"/>
<path d="M715.92 483.5L698.664 466.244L698.664 304.329L748.554 304.329L748.554 445.572L786.482 483.5L715.92 483.5Z" fill="#0C2C67"/>
<path d="M816.386 355.01L717.158 328.417L730.074 280.227L816.386 303.36L816.386 355.01Z" fill="#0C2C67"/>
<path d="M311.82 268.31L-71.4604 47.0193L-71.4604 39.3382L315.146 262.538L311.82 268.31Z" fill="#CE0E2D"/>
<path d="M317.323 265.416L317.323 483.485L310.671 483.485L310.671 265.416L317.323 265.416Z" fill="#CE0E2D"/>
<path d="M317.323 93.0461L317.323 265.431L310.671 265.431L310.671 93.0461L317.323 93.0461Z" fill="#CE0E2D"/>
<path d="M316.353 95.3883L311.655 90.6752L423.829 -21.4989L433.226 -21.4989L316.353 95.3883Z" fill="#CE0E2D"/>
<path d="M124.744 364.838L313.132 415.309L314.862 408.896L134.841 360.647L220.735 211.872L214.963 208.546L124.744 364.838Z" fill="#CE0E2D"/>
<path d="M422.936 149.444L419.61 155.232L310.302 92.4105L313.628 86.6233L422.936 149.444Z" fill="#CE0E2D"/>
<path d="M567.399 152.661L466.858 -21.499L474.54 -21.499L573.171 149.335L567.399 152.661Z" fill="#CE0E2D"/>
<path d="M467.142 182.072L467.142 265.431L460.475 265.431L460.475 176.971L656.709 124.397L617.632 -21.4995L624.508 -21.4995L664.867 129.095L467.142 182.072Z" fill="#CE0E2D"/>
<path d="M-71.4604 168.022L-71.4604 158.611L100.447 -13.2819L105.146 -8.58373L-71.4604 168.022Z" fill="#CE0E2D"/>
<path d="M-61.617 483.5L-69.2981 483.5L120.821 154.197L126.578 157.523L-61.617 483.5Z" fill="#CE0E2D"/>
<path d="M312.595 96.0435L210.489 48.4355L210.489 -21.4999L217.141 -21.4999L217.141 44.1998L315.414 90.0179L312.595 96.0435Z" fill="#CE0E2D"/>
<path d="M816.386 157.881L712.818 -21.4994L720.499 -21.4994L816.386 144.577L816.386 157.881Z" fill="#CE0E2D"/>
<path d="M716.543 292.542L711.839 297.246L567.934 153.341L572.638 148.637L716.543 292.542Z" fill="#CE0E2D"/>
<path d="M626.954 483.5L620.302 483.5L620.302 438.562L548.89 419.441L461.892 268.757L313.997 268.757L313.997 262.105L465.725 262.105L553.275 413.714L626.954 433.461L626.954 483.5Z" fill="#CE0E2D"/>
<path d="M746.496 483.5L710.864 447.854L710.864 294.903L717.516 294.903L717.516 445.094L755.907 483.5L746.496 483.5Z" fill="#CE0E2D"/>
<path d="M816.386 325.717L713.325 298.11L715.04 291.682L816.386 318.841L816.386 325.717Z" fill="#CE0E2D"/>
<path d="M311.82 268.31L-71.4604 47.0193L-71.4604 39.3382L315.146 262.538L311.82 268.31Z" fill="#CE0E2D"/>
<path d="M317.323 265.416L317.323 483.485L310.671 483.485L310.671 265.416L317.323 265.416Z" fill="#CE0E2D"/>
<path d="M317.323 93.0461L317.323 265.431L310.671 265.431L310.671 93.0461L317.323 93.0461Z" fill="#CE0E2D"/>
<path d="M316.353 95.3883L311.655 90.6752L423.829 -21.4989L433.226 -21.4989L316.353 95.3883Z" fill="#CE0E2D"/>
<path d="M124.744 364.838L313.132 415.309L314.862 408.896L134.841 360.647L220.735 211.872L214.963 208.546L124.744 364.838Z" fill="#CE0E2D"/>
<path d="M422.936 149.444L419.61 155.232L310.302 92.4105L313.628 86.6233L422.936 149.444Z" fill="#CE0E2D"/>
<path d="M567.399 152.661L466.858 -21.499L474.54 -21.499L573.171 149.335L567.399 152.661Z" fill="#CE0E2D"/>
<path d="M467.142 182.072L467.142 265.431L460.475 265.431L460.475 176.971L656.709 124.397L617.632 -21.4995L624.508 -21.4995L664.867 129.095L467.142 182.072Z" fill="#CE0E2D"/>
<path d="M-71.4604 168.022L-71.4604 158.611L100.447 -13.2819L105.146 -8.58373L-71.4604 168.022Z" fill="#CE0E2D"/>
<path d="M-61.617 483.5L-69.2981 483.5L120.821 154.197L126.578 157.523L-61.617 483.5Z" fill="#CE0E2D"/>
<path d="M312.595 96.0435L210.489 48.4355L210.489 -21.4999L217.141 -21.4999L217.141 44.1998L315.414 90.0179L312.595 96.0435Z" fill="#CE0E2D"/>
<path d="M816.386 157.881L712.818 -21.4994L720.499 -21.4994L816.386 144.577L816.386 157.881Z" fill="#CE0E2D"/>
<path d="M716.543 292.542L711.839 297.246L567.934 153.341L572.638 148.637L716.543 292.542Z" fill="#CE0E2D"/>
<path d="M626.954 483.5L620.302 483.5L620.302 438.562L548.89 419.441L461.892 268.757L313.997 268.757L313.997 262.105L465.725 262.105L553.275 413.714L626.954 433.461L626.954 483.5Z" fill="#CE0E2D"/>
<path d="M746.496 483.5L710.864 447.854L710.864 294.903L717.516 294.903L717.516 445.094L755.907 483.5L746.496 483.5Z" fill="#CE0E2D"/>
<path d="M816.386 325.717L713.325 298.11L715.04 291.682L816.386 318.841L816.386 325.717Z" fill="#CE0E2D"/>
</g>
<defs>
<clipPath id="clip0_503_17430">
<rect width="483" height="794" fill="white" transform="translate(794.5 0.5) rotate(90)"/>
</clipPath>
</defs>
</svg>
