<svg width="483" height="794" viewBox="0 0 483 794" fill="none" xmlns="http://www.w3.org/2000/svg">
<g clip-path="url(#clip0_503_17430)">
<rect width="483" height="794" fill="#00205B"/>
<path d="M295.954 484.068L75.4685 865.961H17.8527L252.746 459.116L295.954 484.068Z" fill="#0C2C67"/>
<path d="M274.343 446.125H482.985V496.015H274.343V446.125Z" fill="#0C2C67"/>
<path d="M101.972 446.125H274.356V496.015H101.972V446.125Z" fill="#0C2C67"/>
<path d="M119.602 453.433L84.3282 488.706L-21.9993 382.394V312.503L-21.6562 312.16L119.602 453.433Z" fill="#0C2C67"/>
<path d="M387.352 693.143L445.132 477.535L396.927 464.619L355.986 617.421L231.612 545.621L206.674 588.829L387.352 693.143Z" fill="#0C2C67"/>
<path d="M143.175 349.782L186.381 374.727L123.56 483.536L80.3544 458.591L143.175 349.782Z" fill="#0C2C67"/>
<path d="M172.399 236.393L-21.9998 348.627V291.011L147.447 193.185L172.399 236.393Z" fill="#0C2C67"/>
<path d="M207.598 296.321H274.356V346.211H169.312L118.035 154.839L-22.0001 192.365V140.7L153.308 93.7334L207.598 296.321Z" fill="#0C2C67"/>
<path d="M-21.075 87.7227V169.679L15.3618 305.702L-21.9998 315.71V87.7227H-21.075Z" fill="#0C2C67"/>
<path d="M193.101 842.082L234.43 865.961H146.403L-19.6431 699.915L15.6304 664.641L193.101 842.082Z" fill="#0C2C67"/>
<path d="M483 816.28V865.961H469.249L152.31 682.971L177.262 639.763L483 816.28Z" fill="#0C2C67"/>
<path d="M124.568 481.607L71.1436 596.212H-21.9992V546.307H39.3453L79.3468 460.532L124.568 481.607Z" fill="#0C2C67"/>
<path d="M193.728 -21.886L-21.9998 102.652V45.0515L93.9328 -21.886H193.728Z" fill="#0C2C67"/>
<path d="M286.183 53.2496L321.46 88.5271L177.566 232.421L142.289 197.144L286.183 53.2496Z" fill="#0C2C67"/>
<path d="M483 136.494V186.399H464.088L446.936 250.428L299.295 335.666V471.062H249.405V306.865L404.086 217.556L425.802 136.494H483Z" fill="#0C2C67"/>
<path d="M483 78.5799L465.744 95.8363H303.829V45.9463H445.072L483 8.01807V78.5799Z" fill="#0C2C67"/>
<path d="M354.51 -21.886L327.917 77.342L279.727 64.4258L302.86 -21.886H354.51Z" fill="#0C2C67"/>
<path d="M267.81 482.681L46.5195 865.961H38.8385L262.038 479.355L267.81 482.681Z" fill="#CE0E2D"/>
<path d="M264.916 477.177H482.985V483.829H264.916V477.177Z" fill="#CE0E2D"/>
<path d="M92.5462 477.177H264.931V483.829H92.5462V477.177Z" fill="#CE0E2D"/>
<path d="M94.8882 478.147L90.1751 482.845L-21.999 370.671V361.275L94.8882 478.147Z" fill="#CE0E2D"/>
<path d="M364.337 669.757L414.809 481.368L408.396 479.638L360.146 659.66L211.372 573.765L208.046 579.537L364.337 669.757Z" fill="#CE0E2D"/>
<path d="M148.944 371.564L154.731 374.89L91.9104 484.199L86.1232 480.873L148.944 371.564Z" fill="#CE0E2D"/>
<path d="M152.161 227.101L-21.9987 327.642V319.961L148.835 221.329L152.161 227.101Z" fill="#CE0E2D"/>
<path d="M181.572 327.358H264.931V334.025H176.472L123.897 137.792L-21.9993 176.868V169.993L128.595 129.633L181.572 327.358Z" fill="#CE0E2D"/>
<path d="M167.522 865.961H158.111L-13.782 694.053L-9.08385 689.355L167.522 865.961Z" fill="#CE0E2D"/>
<path d="M483 856.117V863.798L153.697 673.679L157.023 667.922L483 856.117Z" fill="#CE0E2D"/>
<path d="M95.5435 481.905L47.9355 584.012H-21.9999V577.36H43.6998L89.5179 479.086L95.5435 481.905Z" fill="#CE0E2D"/>
<path d="M157.381 -21.886L-21.9992 81.6822V74.0011L144.077 -21.886H157.381Z" fill="#CE0E2D"/>
<path d="M292.042 77.9574L296.746 82.6611L152.841 226.566L148.137 221.862L292.042 77.9574Z" fill="#CE0E2D"/>
<path d="M483 167.547V174.198H438.062L418.941 245.61L268.257 332.608V480.503H261.605V328.775L413.214 241.225L432.961 167.547H483Z" fill="#CE0E2D"/>
<path d="M483 48.0045L447.354 83.6359H294.403V76.9839H444.594L483 38.5933V48.0045Z" fill="#CE0E2D"/>
<path d="M325.217 -21.886L297.61 81.1751L291.182 79.4599L318.342 -21.886H325.217Z" fill="#CE0E2D"/>
<path d="M267.81 482.681L46.5195 865.961H38.8385L262.038 479.355L267.81 482.681Z" fill="#CE0E2D"/>
<path d="M264.916 477.177H482.985V483.829H264.916V477.177Z" fill="#CE0E2D"/>
<path d="M92.5462 477.177H264.931V483.829H92.5462V477.177Z" fill="#CE0E2D"/>
<path d="M94.8882 478.147L90.1751 482.845L-21.999 370.671V361.275L94.8882 478.147Z" fill="#CE0E2D"/>
<path d="M364.337 669.757L414.809 481.368L408.396 479.638L360.146 659.66L211.372 573.765L208.046 579.537L364.337 669.757Z" fill="#CE0E2D"/>
<path d="M148.944 371.564L154.731 374.89L91.9104 484.199L86.1232 480.873L148.944 371.564Z" fill="#CE0E2D"/>
<path d="M152.161 227.101L-21.9987 327.642V319.961L148.835 221.329L152.161 227.101Z" fill="#CE0E2D"/>
<path d="M181.572 327.358H264.931V334.025H176.472L123.897 137.792L-21.9993 176.868V169.993L128.595 129.633L181.572 327.358Z" fill="#CE0E2D"/>
<path d="M167.522 865.961H158.111L-13.782 694.053L-9.08385 689.355L167.522 865.961Z" fill="#CE0E2D"/>
<path d="M483 856.117V863.798L153.697 673.679L157.023 667.922L483 856.117Z" fill="#CE0E2D"/>
<path d="M95.5435 481.905L47.9355 584.012H-21.9999V577.36H43.6998L89.5179 479.086L95.5435 481.905Z" fill="#CE0E2D"/>
<path d="M157.381 -21.886L-21.9992 81.6822V74.0011L144.077 -21.886H157.381Z" fill="#CE0E2D"/>
<path d="M292.042 77.9574L296.746 82.6611L152.841 226.566L148.137 221.862L292.042 77.9574Z" fill="#CE0E2D"/>
<path d="M483 167.547V174.198H438.062L418.941 245.61L268.257 332.608V480.503H261.605V328.775L413.214 241.225L432.961 167.547H483Z" fill="#CE0E2D"/>
<path d="M483 48.0045L447.354 83.6359H294.403V76.9839H444.594L483 38.5933V48.0045Z" fill="#CE0E2D"/>
<path d="M325.217 -21.886L297.61 81.1751L291.182 79.4599L318.342 -21.886H325.217Z" fill="#CE0E2D"/>
</g>
<defs>
<clipPath id="clip0_503_17430">
<rect width="483" height="794" fill="white"/>
</clipPath>
</defs>
</svg>
