<svg width="397" height="54" viewBox="0 0 397 54" fill="none" xmlns="http://www.w3.org/2000/svg"><path d="M40.893 43.334H33.25l4.781-29.562h7.644l-4.78 29.562zm27.709-28.839c-1.508-.598-3.9-1.259-6.856-1.259-7.55 0-12.865 4.026-12.898 9.78-.063 4.246 3.806 6.604 6.7 8.02 2.957 1.447 3.963 2.39 3.963 3.68-.03 1.98-2.39 2.893-4.591 2.893-3.052 0-4.688-.47-7.173-1.572l-1.006-.472-1.07 6.636c1.793.816 5.096 1.541 8.526 1.573 8.02 0 13.243-3.963 13.305-10.096.03-3.365-2.013-5.943-6.417-8.05-2.674-1.353-4.311-2.265-4.311-3.649.031-1.258 1.385-2.547 4.403-2.547 2.485-.063 4.31.535 5.694 1.132l.692.314 1.04-6.383zm10.164 18.366c.63-1.698 3.052-8.27 3.052-8.27-.032.062.629-1.73 1.006-2.831l.534 2.547s1.448 7.076 1.762 8.554h-6.354zm9.436-19.088H82.29c-1.823 0-3.209.534-3.995 2.452L66.939 43.333h8.021l1.604-4.434h9.815c.22 1.038.912 4.434.912 4.434h7.078l-6.167-29.56zm-61.339 0L19.377 33.93l-.818-4.088c-1.385-4.717-5.725-9.842-10.57-12.39l6.858 25.85h8.084l12.015-29.53h-8.083z" fill="#00579F"/><path d="M12.425 13.773H.125L0 14.37c9.594 2.453 15.948 8.367 18.559 15.475l-2.674-13.587c-.44-1.889-1.793-2.423-3.46-2.485z" fill="#FAA61A"/><path d="M207.207 15.218l-6.325 13.96h-.643v-17h-8.986v28.767h7.627c2.002 0 3.821-1.184 4.664-3.04l6.328-13.96h.643v17h8.986V12.178h-7.627c-2.006 0-3.825 1.187-4.667 3.04zm-33.798.74l-3.744 13.22h-.643l-3.743-13.22c-.636-2.239-2.648-3.78-4.934-3.78h-8.976v28.77h8.987v-17h.642l5.134 17h6.42l5.134-17h.642v17h8.987v-28.77h-8.976c-2.283 0-4.295 1.541-4.93 3.78zm51.316 9.022v15.69h8.969v-9.152h9.646c4.19 0 7.747-2.733 9.071-6.538h-27.686z" fill="#20AA4D"/><path d="M243.34 12.178h-19.901c1.208 6.695 6.961 11.767 13.882 11.767h15.455c.126-.633.193-1.291.193-1.964 0-5.411-4.309-9.803-9.629-9.803z" fill="url(#paint0_linear_570_22409)"/><path fill-rule="evenodd" clip-rule="evenodd" d="M370.523 53.851c14.558 0 26.359-11.937 26.359-26.662S385.081.527 370.523.527c-6.524 0-12.495 2.398-17.098 6.37-4.602-3.972-10.573-6.37-17.097-6.37-14.558 0-26.359 11.937-26.359 26.662s11.801 26.662 26.359 26.662c6.524 0 12.495-2.397 17.098-6.369 4.602 3.971 10.573 6.37 17.097 6.37z" fill="#ED0006"/><path fill-rule="evenodd" clip-rule="evenodd" d="M353.425 47.482a26.728 26.728 0 009.262-20.293 26.727 26.727 0 00-9.262-20.292c4.603-3.972 10.574-6.37 17.098-6.37 14.558 0 26.359 11.937 26.359 26.662s-11.801 26.662-26.359 26.662c-6.524 0-12.495-2.398-17.098-6.37z" fill="#F9A000"/><path fill-rule="evenodd" clip-rule="evenodd" d="M353.426 47.482a26.73 26.73 0 009.261-20.293 26.73 26.73 0 00-9.261-20.293 26.727 26.727 0 00-9.261 20.293 26.727 26.727 0 009.261 20.293z" fill="#FF5E00"/><defs><linearGradient id="paint0_linear_570_22409" x1="223.44" y1="18.063" x2="252.97" y2="18.063" gradientUnits="userSpaceOnUse"><stop offset=".01" stop-color="#00A7E3"/><stop offset=".337" stop-color="#009EDC"/><stop offset=".875" stop-color="#0085C9"/><stop offset="1" stop-color="#007EC4"/></linearGradient></defs></svg>