<svg width="396" height="597" viewBox="0 0 396 597" fill="none" xmlns="http://www.w3.org/2000/svg"><path d="M394.265 65.017c-5.791 9.476-17.636 27.902-28.955 38.431-1.579-4.738-3.685-8.95-6.054-14.214C366.1 49.487 353.728 14.478 329.774 0c5.002 15.53 5.528 42.38 4.475 52.645-22.111-26.059-66.333-48.697-109.239-48.96 46.854 28.955 95.551 66.86 108.713 132.667-12.898 15.267-28.692 27.639-48.434 37.378 7.37-56.857-20.005-113.714-55.541-123.19 8.16 16.583 15.004 45.801 16.057 75.283-20.795-15.004-30.271-36.062-35.536-57.384-16.057 25.27-9.213 79.758 31.587 102.922-1.579 6.844-3.685 13.161-6.317 18.952-11.845 2.633-24.743 4.475-38.958 6.055-30.797-16.32-33.693-79.232-30.797-108.713-20.269 15.53-33.43 57.12-27.113 96.078-10.529 1.053-19.215 3.422-26.849 6.844-12.635-33.43-2.106-81.074 2.896-96.078-25.534 11.582-48.698 51.855-43.17 98.184-11.582-11.056-21.848-22.112-27.375-41.854C68.916 95.289 117.35 41.063 144.199 16.057c-27.902 1.316-57.91 21.848-79.231 43.959 0-9.476 6.58-28.165 9.739-36.325-28.955 11.582-42.116 49.223-44.222 76.335l-4.738 6.318C22.06 98.71 15.744 80.021 13.112 70.545c-22.375 45.012-17.636 115.82 26.06 155.041-3.423 24.48 2.368 46.591 15.53 60.279-.527 3.422 0 7.107 1.053 10.003-11.846 21.584-23.69 55.804-25.534 75.546v1.053l.264 1.053c4.211 18.426 11.319 36.062 21.321 52.909l1.316 2.369c5.791 1.842 17.637 4.211 26.323 4.738-2.369 33.43 6.58 67.123 25.796 95.288 20.532 30.271 52.119 53.698 86.602 63.964L205.531 597l2.632-13.951c10.003-51.593 35.799-81.601 58.174-112.661 13.951-19.216 25.006-35.273 33.166-48.171 22.638-35.536 19.216-59.489 7.634-81.337-6.318-12.109-20.269-39.484-20.269-39.484 30.271-23.428 32.904-70.545 25.533-90.814 59.49-33.956 90.287-91.866 81.864-145.565z" fill="#F4F6FA"/><path d="M389.79 82.916c-5.527 10.003-18.689 24.481-27.638 32.377-2.369-9.476-5.002-15.793-9.477-25.006 3.949-24.48 1.317-57.647-14.477-75.81 5.001 17.9 3.685 37.379.263 53.172-20.532-26.849-52.645-48.96-96.604-57.91 59.489 31.85 92.919 79.758 99.5 128.192-16.584 22.111-38.432 38.168-65.018 48.96 7.634-40.273-2.895-101.079-35.798-124.77 8.423 17.11 13.951 47.645 13.687 76.6-18.426-10.003-36.851-24.48-44.485-52.646-7.634 34.746 15.53 68.703 41.853 83.18-2.106 11.319-5.528 21.322-10.529 28.692-14.478 3.159-29.745 5.264-46.328 6.317-30.271-11.582-37.642-67.123-35.009-98.973-13.951 23.164-18.689 56.857-12.372 84.759-16.32.527-28.955 4.475-38.694 9.739-13.162-26.585-11.056-65.543-2.633-91.603-25.796 24.48-32.64 67.65-25.796 99.5-20.795-13.424-36.589-29.218-43.959-56.33 13.951-36.852 57.12-97.394 94.499-128.192-25.007 8.95-52.12 31.06-74.494 55.804 1.316-16.32 4.475-33.43 10.793-45.275-18.426 13.688-29.219 43.696-30.008 68.966a303.71 303.71 0 00-12.109 17.636c-4.475-9.74-9.213-22.374-11.582-35.01-13.161 39.748-9.74 103.449 33.43 137.932-.263 1.316-.526 2.632-.526 2.895-3.16 20.795.79 44.486 16.32 58.174-2.106 3.948-.79 9.739 1.316 11.845-11.845 19.742-24.48 55.541-26.586 76.336 4.212 18.162 11.319 35.272 20.532 51.066 9.476 2.369 19.742 3.685 28.955 4.475-4.212 34.219 4.211 68.439 24.217 97.657 19.742 29.218 50.013 51.593 83.179 61.595l6.844 2.106 1.317-7.107c10.265-52.909 36.325-83.97 59.226-115.557 45.801-62.911 57.646-86.602 41.063-120.821-6.317-12.898-22.637-44.222-23.69-46.328 31.061-19.742 35.535-66.07 27.902-86.076-.527-1.053-1.053-3.158-2.106-5.001 47.644-27.112 81.864-71.335 85.022-125.56z" fill="#00205B"/><path d="M201.321 280.601c10.266 15.004 27.639 23.954 49.224 23.69 6.317 11.582 14.214 32.641 17.899 45.012l-8.949-2.369c16.583 41.853 16.32 62.648 5.791 78.442-26.06 38.431-69.229 75.283-80.285 143.459-47.381-21.848-71.071-56.067-80.547-88.971l8.16-15.004.263 1.316c5.001 28.692 30.008 63.438 55.804 78.442-11.582-28.165-14.214-61.069-12.898-82.653v-1.053l.79.79s8.686 9.212 15.267 16.583c3.159-54.488 11.055-82.917 25.533-114.504.263-.527 3.948-7.371 4.212-7.897 7.37-16.847 8.423-35.272 1.579-50.803.263 16.847-4.738 33.43-14.478 43.696 0 0-5.001-.263-8.686-.263-28.429 0-53.172 22.374-60.016 29.218l-.526.526-.264-.526c-4.474-7.634-12.635-9.74-21.058-11.845-11.319-2.896-23.164-6.055-27.376-22.375-6.58 11.846-12.371 18.163-18.689 20.269h-.526c5.528-28.955 25.007-64.754 27.639-69.492l9.476-10.003-13.688 4.212c2.37-17.636 8.95-31.851 17.11-43.17 3.159-4.211 8.16-7.896 20.005-11.318-4.211-.79-12.371-.264-17.9.789 2.107-8.423 12.636-31.587 57.384-32.64 6.318 16.32 17.373 28.692 33.43 33.43a215.23 215.23 0 0018.426 0c7.634-.263 7.371 5.791-.526 5.791-5.265 0-10.003-.526-14.478-1.579 37.115 18.426 91.34-6.581 102.132-12.898 6.581 21.584-14.74 99.763-89.234 53.698zm-129.77-8.16c2.368-8.16 5.79-15.531 9.475-22.374-8.423-2.633-16.846-6.844-22.374-10.266-1.053 5.791 1.316 22.111 12.898 32.64z" fill="#C8102E"/><path d="M118.14 311.661c-11.582 9.213-21.321 20.532-29.744 32.377 4.475-15.793 11.845-27.902 20.005-37.115-1.579-4.738-2.632-9.739-3.159-15.53 2.369 3.422 5.791 7.37 8.424 10.266 13.951-12.898 29.744-17.9 40.01-16.847 0 0 2.896-10.792 4.212-19.479 2.632 8.16 4.211 20.532 3.685 28.955-2.896.264-5.791.527-8.687 1.053-12.108 22.638-26.059 21.585-34.746 16.32zm23.164-56.067c-13.687 0-29.744 8.423-34.482 19.742.526 2.369 1.052 3.948 2.369 6.844 6.58-11.845 19.215-21.321 32.113-26.586zm-48.697.263c-.79 7.371-1.842 13.688-5.264 23.427 2.369-.789 5.264-1.842 7.37-3.158 1.58-6.581.263-13.951-2.106-20.269zm69.756 54.225c-3.949 9.213-16.321 18.426-33.43 21.058 11.845 5.528 27.112 1.316 34.746-6.58 0-6.318-1.316-14.478-1.316-14.478zm116.346-63.964c-11.055 4.738-22.637 7.107-34.219 7.633-12.899 5.528-21.322 14.478-24.481 23.954 5.791 2.106 25.533.263 34.483-9.476-8.16 1.843-16.583 0-18.689-2.632 15.794.526 27.639-2.633 42.906-19.479z" fill="#00205B"/><path d="M48.915 87.919c-1.317 1.58-2.633 3.159-3.949 5.001.527-8.95 1.843-18.952 4.212-25.533-.527 6.844-.527 14.478-.263 20.532zm-22.638 67.913c-1.58-.264-3.685-1.317-4.738-3.159 2.895.263 6.317-4.212 7.37-7.37 8.16-20.795 29.218-56.068 43.433-72.915-17.11 13.951-42.38 47.908-51.856 66.86-2.632-8.949-5.001-18.426-6.844-28.428-2.106 29.481 3.159 96.341 67.386 121.874.79-3.159 2.37-7.107 4.738-11.056-28.691-12.108-47.38-34.746-59.489-65.806zm62.648 4.738c-4.475 21.848-2.632 37.641 2.37 53.435 2.105-2.632 4.474-5.001 7.37-7.37-6.844-13.162-8.95-28.429-9.74-46.065zm253.751-86.602c2.37-7.107 3.686-16.847 3.686-23.954 2.632 10.792 2.369 21.322 1.053 31.587-1.317-2.632-3.159-5.264-4.739-7.633zm21.059 49.75l1.579 11.055c5.001-7.633 10.529-18.162 13.688-28.691-4.738 5.791-10.529 12.898-15.267 17.636zm-47.908-63.964c16.847 24.48 31.851 51.066 33.957 80.81-16.057 24.217-49.487 48.698-93.973 62.385 2.369-3.948 5.528-6.054 5.528-6.054 7.107-16.32 10.529-56.331 1.316-78.178.527 10.002.79 22.9-.526 36.588-8.687-2.895-25.27-10.266-39.748-24.48 7.897 14.478 27.376 29.481 38.432 33.693-1.843 11.319-5.791 30.271-15.531 41.327-16.32 4.211-33.956 6.844-52.908 7.633-22.375-5.527-33.694-23.953-40.011-57.91-2.632 33.167 8.423 68.176 36.852 71.598 83.18-1.579 146.091-46.591 167.939-80.547 1.579-33.693-17.9-68.44-41.327-86.865z" fill="#B2B1B1"/><path d="M188.16 349.303c-25.796-1.58-50.013 14.74-68.966 41.853-5.528 7.897-12.635 19.215-16.32 23.164-9.74 1.053-30.797-1.316-38.958-3.159-3.421-5.001-6.843-13.424-9.476-21.321 6.055 1.053 13.688 3.685 22.375 15.004 2.369-12.109 10.792-13.425 18.162-15.004-.79-3.685-3.685-12.372-5.79-16.32-11.32 2.895-30.009 3.158-39.485-1.053.263-2.633.79-6.844 1.316-8.95 5.528-1.843 11.32-6.581 19.216-21.058 6.58 30.008 37.905 17.11 48.697 35.272 13.161-12.898 40.537-33.166 69.229-28.428zm-57.384 83.18c-5.528-8.424-8.423-20.532-8.95-29.482-8.423 12.898-13.161 23.691-13.161 23.691-2.895.263-5.791.263-8.686.263-2.633 17.11-.79 36.325 4.474 53.961l7.634-14.214c5.001 28.955 30.534 64.754 57.12 79.495-11.582-27.639-14.74-61.069-13.424-83.707 0 0 9.213 10.003 16.057 17.373 3.158-57.91 11.582-86.601 29.218-123.19-20.005 33.956-57.647 48.96-70.282 75.81z" fill="#F4F6FA"/></svg>