<svg width="201" height="64" viewBox="0 0 201 64" fill="none" xmlns="http://www.w3.org/2000/svg"><path d="M41.932 6.915c-.616 1.008-1.876 2.967-3.08 4.087-.168-.504-.392-.952-.644-1.512.728-4.227-.588-7.95-3.135-9.49.532 1.652.588 4.507.476 5.6C33.197 2.827 28.494.42 23.93.391c4.983 3.08 10.162 7.11 11.562 14.11-1.372 1.623-3.052 2.939-5.151 3.975.783-6.047-2.128-12.094-5.907-13.102.867 1.764 1.595 4.871 1.707 8.007-2.211-1.596-3.22-3.836-3.78-6.103-1.707 2.687-.979 8.482 3.36 10.946a10.65 10.65 0 01-.672 2.016c-1.26.28-2.631.476-4.143.643-3.275-1.735-3.583-8.426-3.275-11.562-2.156 1.652-3.556 6.075-2.884 10.219-1.12.112-2.043.364-2.855.728-1.344-3.556-.224-8.623.308-10.219-2.716 1.232-5.18 5.515-4.592 10.442-1.231-1.175-2.323-2.351-2.911-4.45C7.329 10.133 12.48 4.366 15.336 1.707c-2.967.14-6.159 2.323-8.426 4.675 0-1.008.7-2.996 1.035-3.863-3.08 1.231-4.479 5.235-4.703 8.118l-.504.672c-.392-.812-1.064-2.8-1.344-3.807C-.986 12.29-.48 19.82 4.166 23.992c-.364 2.604.252 4.955 1.652 6.41-.056.365 0 .757.112 1.065-1.26 2.295-2.52 5.935-2.716 8.034v.112l.028.112a19.468 19.468 0 002.268 5.627l.14.252c.616.196 1.875.448 2.8.504-.253 3.556.7 7.139 2.743 10.135 2.183 3.219 5.543 5.71 9.21 6.802l1.456.448.28-1.483c1.064-5.488 3.807-8.68 6.187-11.982 1.484-2.044 2.66-3.752 3.527-5.124 2.408-3.779 2.044-6.327.812-8.65-.672-1.288-2.155-4.2-2.155-4.2 3.219-2.491 3.499-7.502 2.715-9.658 6.327-3.611 9.602-9.77 8.707-15.481z" fill="#fff"/><path d="M41.456 8.82c-.588 1.063-1.988 2.603-2.94 3.443-.252-1.008-.532-1.68-1.008-2.66.42-2.603.14-6.13-1.54-8.062.533 1.903.393 3.975.029 5.655-2.184-2.856-5.6-5.208-10.275-6.16C32.05 4.425 35.605 9.52 36.305 14.67c-1.764 2.352-4.088 4.06-6.915 5.207.812-4.283-.308-10.75-3.808-13.27.896 1.82 1.484 5.068 1.456 8.147-1.96-1.063-3.92-2.603-4.731-5.599-.812 3.696 1.652 7.307 4.451 8.847-.224 1.204-.588 2.267-1.12 3.051a32.7 32.7 0 01-4.927.672c-3.22-1.232-4.003-7.139-3.723-10.526-1.484 2.463-1.988 6.047-1.316 9.014-1.736.056-3.08.476-4.115 1.036-1.4-2.827-1.176-6.97-.28-9.742-2.744 2.603-3.472 7.195-2.744 10.582-2.211-1.428-3.891-3.107-4.675-5.99 1.484-3.92 6.075-10.36 10.05-13.635-2.66.952-5.543 3.304-7.922 5.935.14-1.735.476-3.555 1.148-4.815-1.96 1.456-3.108 4.647-3.192 7.335-.476.644-.896 1.26-1.288 1.876-.476-1.036-.98-2.38-1.231-3.724C.023 13.3.387 20.073 4.978 23.741c-.028.14-.056.28-.056.308-.336 2.211.084 4.73 1.736 6.187-.224.42-.084 1.035.14 1.26-1.26 2.1-2.604 5.906-2.828 8.118a19.552 19.552 0 002.184 5.431c1.008.252 2.1.392 3.08.476-.449 3.64.447 7.279 2.575 10.386 2.1 3.108 5.319 5.487 8.846 6.551l.728.224.14-.756c1.092-5.627 3.863-8.93 6.299-12.29 4.871-6.69 6.131-9.21 4.367-12.85-.672-1.371-2.407-4.703-2.52-4.927 3.304-2.1 3.78-7.026 2.968-9.154-.056-.112-.112-.336-.224-.532 5.067-2.883 8.707-7.587 9.043-13.354z" fill="#00205B"/><path d="M21.411 29.843c1.092 1.596 2.94 2.548 5.235 2.52.672 1.231 1.512 3.471 1.904 4.787l-.952-.252c1.764 4.451 1.736 6.663.616 8.342-2.772 4.088-7.363 8.007-8.539 15.258-5.039-2.324-7.558-5.963-8.566-9.462l.868-1.596.028.14c.531 3.051 3.191 6.747 5.935 8.342-1.232-2.995-1.512-6.495-1.372-8.79v-.112l.084.084s.924.98 1.623 1.764c.337-5.796 1.176-8.819 2.716-12.178.028-.056.42-.784.448-.84.784-1.792.896-3.752.168-5.403.028 1.791-.504 3.555-1.54 4.647 0 0-.532-.028-.924-.028-3.023 0-5.655 2.38-6.383 3.107l-.056.056-.027-.056c-.476-.812-1.344-1.035-2.24-1.26-1.204-.307-2.464-.643-2.912-2.38-.7 1.26-1.315 1.933-1.987 2.157h-.056c.588-3.08 2.66-6.887 2.94-7.391l1.007-1.064-1.456.448a10.032 10.032 0 011.82-4.591c.336-.448.868-.84 2.128-1.204-.448-.084-1.316-.028-1.904.084.224-.896 1.344-3.36 6.103-3.472.672 1.736 1.848 3.052 3.555 3.556.672.028 1.316.028 1.96 0 .812-.028.784.616-.056.616-.56 0-1.064-.056-1.54-.168 3.948 1.96 9.715-.7 10.862-1.372.7 2.296-1.567 10.61-9.49 5.711zm-13.802-.868c.252-.868.616-1.652 1.008-2.38a11.142 11.142 0 01-2.38-1.091c-.111.616.14 2.351 1.372 3.471z" fill="#C8102E"/><path d="M12.565 33.146c-1.232.98-2.268 2.184-3.164 3.444.476-1.68 1.26-2.968 2.128-3.948a7.19 7.19 0 01-.336-1.652c.252.364.616.784.896 1.092 1.484-1.372 3.163-1.903 4.255-1.791 0 0 .308-1.148.448-2.072.28.868.448 2.184.392 3.08-.308.027-.616.055-.924.111-1.288 2.408-2.771 2.296-3.695 1.736zm2.463-5.963c-1.455 0-3.163.896-3.667 2.1.056.252.112.42.252.728.7-1.26 2.044-2.268 3.415-2.828zm-5.179.028a9.936 9.936 0 01-.56 2.492c.252-.084.56-.196.784-.336.168-.7.028-1.484-.224-2.156zm7.419 5.767c-.42.98-1.736 1.96-3.555 2.24 1.26.588 2.883.14 3.695-.7 0-.672-.14-1.54-.14-1.54zm12.374-6.803a10.397 10.397 0 01-3.64.812c-1.371.588-2.267 1.54-2.603 2.548.616.224 2.715.028 3.667-1.008-.868.196-1.763 0-1.987-.28 1.68.056 2.94-.28 4.563-2.072z" fill="#00205B"/><path d="M5.202 9.35c-.14.169-.28.337-.42.533.056-.952.196-2.016.448-2.716-.056.728-.056 1.54-.028 2.184zm-2.408 7.223a.746.746 0 01-.504-.335c.308.027.672-.448.784-.784.868-2.212 3.108-5.963 4.62-7.755-1.82 1.484-4.508 5.095-5.516 7.11a29.817 29.817 0 01-.727-3.023c-.224 3.136.336 10.246 7.166 12.962a4.49 4.49 0 01.504-1.176c-3.051-1.287-5.039-3.695-6.327-6.999zm6.663.504c-.476 2.324-.28 4.004.252 5.683.224-.28.476-.532.784-.784-.728-1.4-.952-3.023-1.036-4.899zm26.988-9.21c.252-.756.392-1.792.392-2.548.28 1.148.252 2.268.112 3.36-.14-.28-.336-.56-.504-.812zm2.24 5.291l.167 1.176c.532-.812 1.12-1.932 1.456-3.052-.504.616-1.12 1.372-1.624 1.876zm-5.096-6.803c1.792 2.604 3.388 5.431 3.612 8.595-1.708 2.575-5.264 5.179-9.995 6.635a2.19 2.19 0 01.588-.644c.756-1.736 1.12-5.991.14-8.315.056 1.064.084 2.436-.056 3.891a11.486 11.486 0 01-4.227-2.603c.84 1.54 2.911 3.135 4.087 3.583-.196 1.204-.616 3.22-1.652 4.395a26.976 26.976 0 01-5.627.812c-2.38-.588-3.583-2.547-4.255-6.159-.28 3.528.896 7.251 3.92 7.615 8.846-.168 15.537-4.955 17.86-8.566.168-3.584-1.903-7.28-4.395-9.239z" fill="#B2B1B1"/><path d="M20.011 37.149c-2.743-.168-5.319 1.568-7.334 4.451-.588.84-1.344 2.044-1.736 2.464-1.036.112-3.276-.14-4.143-.336-.364-.532-.728-1.428-1.008-2.268.644.112 1.456.392 2.38 1.596.251-1.288 1.147-1.428 1.931-1.596-.084-.392-.392-1.316-.616-1.736-1.204.308-3.191.336-4.2-.112a8.6 8.6 0 01.14-.952c.589-.195 1.205-.7 2.045-2.24.7 3.192 4.03 1.82 5.179 3.752 1.4-1.371 4.31-3.527 7.362-3.023zm-6.103 8.846c-.588-.896-.895-2.183-.951-3.135a19.436 19.436 0 00-1.4 2.52c-.308.027-.616.027-.924.027-.28 1.82-.084 3.864.476 5.74l.812-1.512c.532 3.08 3.247 6.887 6.075 8.454-1.232-2.94-1.568-6.495-1.428-8.902 0 0 .98 1.064 1.708 1.847.336-6.158 1.232-9.21 3.107-13.101-2.127 3.611-6.13 5.207-7.475 8.062z" fill="#fff"/><path fill-rule="evenodd" clip-rule="evenodd" d="M94.33 26.077H80.285l-1.493 1.493v15.868l1.493 1.493h14.043l1.493-1.493V27.57l-1.493-1.493zm-3.981 14.154h-6.082v-9.565h6.082v9.565zM200.1 27.515l-1.493-1.493h-14.044l-1.493 1.493v15.868l1.493 1.493h14.044l1.493-1.493V27.515zm-5.474 12.716h-6.082v-9.565h6.082v9.565zM177.652 19l1.493 1.493v22.945l-1.493 1.493h-14.044l-1.493-1.493V27.57l1.493-1.493h9.4l-2.544 4.59h-2.93v9.564h6.082V23.59h-9.013L162.06 19h15.592zm-62.533 7.077l1.492 1.493v11.28l-1.492 1.492h-9.4l2.544-4.59h2.93v-4.975h-6.082v14.21h-5.474V27.624l-1.493-1.493h16.975v-.055zM74.978 19l2.543 4.59h-2.875v21.286h-5.474v-14.21h-3.98v14.21h-5.474v-14.21h-3.981v14.21h-5.474V28.73l-1.493-2.71h20.347v-2.43H51.37L48.826 19h26.152zm62.367 7.077v18.799h-5.473v-14.21h-6.082v14.21h-5.474V27.515l-1.493-1.493h18.522v.055zm19.905 0l1.493 1.493v8.736l-1.493 1.493h-9.4l2.544-4.59h2.93v-2.488h-6.082v9.621h11.501l-2.544 4.59h-12.993l-1.493-1.494V27.57l-1.493-1.493h17.03z" fill="#0C1931"/></svg>