<svg width="77" height="47" viewBox="0 0 77 47" fill="none" xmlns="http://www.w3.org/2000/svg"><path fill-rule="evenodd" clip-rule="evenodd" d="M38.786 41.29c-4.047 3.492-9.298 5.6-15.035 5.6C10.95 46.89.572 36.395.572 23.446S10.95 0 23.752 0c5.736 0 10.987 2.108 15.034 5.6C42.834 2.109 48.084 0 53.821 0 66.622 0 77 10.497 77 23.445c0 12.949-10.378 23.446-23.179 23.446-5.737 0-10.987-2.109-15.035-5.601z" fill="#ED0006"/><path fill-rule="evenodd" clip-rule="evenodd" d="M38.786 41.29a23.504 23.504 0 008.144-17.845c0-7.145-3.16-13.544-8.144-17.844C42.834 2.108 48.084 0 53.821 0 66.622 0 77 10.497 77 23.445c0 12.949-10.378 23.446-23.179 23.446-5.737 0-10.987-2.109-15.035-5.601z" fill="#F9A000"/><path fill-rule="evenodd" clip-rule="evenodd" d="M38.786 41.29a23.504 23.504 0 008.144-17.845C46.93 16.3 43.77 9.9 38.786 5.6a23.504 23.504 0 00-8.143 17.844c0 7.145 3.16 13.544 8.143 17.844z" fill="#FF5E00"/></svg>