<svg width="90" height="26" viewBox="0 0 90 26" fill="none" xmlns="http://www.w3.org/2000/svg"><path d="M49.208 2.918l-5.561 12.275h-.566V.244H35.18v25.297h6.707c1.76 0 3.36-1.041 4.101-2.674l5.565-12.275h.565V25.54h7.902V.244h-6.707c-1.763 0-3.363 1.044-4.104 2.674zm-29.721.651l-3.291 11.624h-.566L12.34 3.57C11.779 1.599 10.01.244 8 .244H.107v25.3H8.01v-14.95h.565l4.515 14.95h5.645l4.514-14.95h.566v14.95h7.902V.244h-7.893c-2.007 0-3.777 1.356-4.336 3.325zm45.125 7.932v13.798H72.5V17.25h8.483c3.684 0 6.812-2.403 7.976-5.749H64.612z" fill="#20AA4D"/><path d="M80.982.244h-17.5c1.062 5.888 6.12 10.348 12.207 10.348h13.59a8.82 8.82 0 00.17-1.727c0-4.759-3.789-8.62-8.467-8.62z" fill="url(#paint0_linear_570_22417)"/><defs><linearGradient id="paint0_linear_570_22417" x1="63.483" y1="5.42" x2="89.45" y2="5.42" gradientUnits="userSpaceOnUse"><stop offset=".01" stop-color="#00A7E3"/><stop offset=".337" stop-color="#009EDC"/><stop offset=".875" stop-color="#0085C9"/><stop offset="1" stop-color="#007EC4"/></linearGradient></defs></svg>