<svg width="119" height="60" viewBox="0 0 119 60" fill="none" xmlns="http://www.w3.org/2000/svg"><path fill-rule="evenodd" clip-rule="evenodd" d="M119 32.802H0V60h119V32.802zM15.945 50.676c-.854 0-1.53-.226-2.03-.677-.489-.46-.733-1.085-.733-1.872v-3.93c0-.78.249-1.399.747-1.86.498-.46 1.17-.69 2.016-.69.854 0 1.526.23 2.015.69.499.461.748 1.08.748 1.86v3.93c0 .787-.25 1.411-.748 1.872-.489.451-1.16.677-2.015.677zm0-1.407c.391 0 .694-.107.907-.32.214-.22.32-.53.32-.928v-3.705c0-.407-.106-.717-.32-.93-.213-.22-.516-.331-.907-.331-.392 0-.694.11-.908.332-.205.212-.307.522-.307.93v3.703c0 .399.102.709.307.93.214.212.516.319.908.319zm9.033-7.462v1.407h-3.124v2.456h2.897v1.408h-2.897v3.438h-1.548v-8.71h4.672zm5.885 1.407v-1.407h-4.672v8.71h1.549v-3.44h2.896V45.67H27.74v-2.456h3.123zm2.776-1.407v8.71H32.09v-8.71h1.548zm2.358 8.192c.499.451 1.175.677 2.03.677.907 0 1.592-.235 2.055-.704.463-.469.694-1.168.694-2.098v-.81h-1.548v.81c0 .93-.405 1.395-1.215 1.395-.391 0-.694-.107-.908-.32-.204-.212-.307-.521-.307-.928v-3.705c0-.407.103-.717.307-.93.214-.22.517-.331.908-.331.418 0 .725.12.921.358.196.24.294.607.294 1.102v.81h1.548v-.81c0-1.912-.916-2.867-2.75-2.867-.854 0-1.53.23-2.029.69-.498.451-.747 1.07-.747 1.859v3.93c0 .787.25 1.411.748 1.872zm7.809-8.192v8.71h-1.549v-8.71h1.549zm7.378 8.71v-.226l-2.163-8.484h-1.828l-2.176 8.484v.226h1.575l.4-1.687h2.23l.387 1.687h1.575zm-3.084-6.48l.801 3.413h-1.588l.787-3.413zm5.82-2.23v7.302h3.19v1.407h-4.738v-8.71h1.549zm11.52.65c-.445-.433-1.09-.65-1.936-.65h-2.79v8.71h1.549v-3.44h1.241c.855 0 1.504-.212 1.95-.636.444-.425.667-1.05.667-1.873v-.265c0-.806-.227-1.42-.681-1.846zm-1.175 2.961c-.204.168-.498.252-.88.252h-1.122v-2.456h1.121c.792 0 1.188.363 1.188 1.089v.265c0 .39-.102.673-.307.85zm8.589 4.873v.226h-1.535L69.53 47.05h-.56v3.465h-1.55v-8.71h2.79c.845 0 1.49.218 1.935.651.454.425.681 1.04.681 1.846v.265c0 .655-.147 1.187-.44 1.594-.285.398-.708.663-1.268.796l1.735 3.333zm-3.885-4.62h1.122c.382 0 .676-.085.88-.253.206-.177.308-.46.308-.85v-.265c0-.726-.396-1.089-1.188-1.089H68.97v2.456zm5.918 4.328c.499.451 1.175.677 2.03.677.853 0 1.525-.226 2.015-.677.498-.46.747-1.085.747-1.872v-3.93c0-.78-.249-1.399-.747-1.86-.49-.46-1.162-.69-2.016-.69-.845 0-1.517.23-2.015.69-.499.461-.748 1.08-.748 1.86v3.93c0 .787.245 1.411.734 1.872zm2.937-1.05c-.214.213-.516.32-.908.32-.391 0-.694-.107-.907-.32-.205-.22-.308-.53-.308-.928v-3.705c0-.407.103-.717.308-.93.213-.22.516-.331.907-.331.392 0 .694.11.908.332.213.212.32.522.32.93v3.703c0 .399-.107.709-.32.93zm5.95-7.142c.88 0 1.566.234 2.055.703.499.46.748 1.107.748 1.939v3.439c0 .823-.25 1.469-.748 1.938-.49.46-1.174.69-2.055.69h-2.496v-8.71h2.496zm.053 7.302c.392 0 .69-.11.894-.332.214-.221.32-.544.32-.969v-3.293c0-.425-.106-.748-.32-.969-.204-.221-.502-.332-.894-.332h-1.001v5.895h1.001zm5.02.93c.445.424 1.099.637 1.962.637s1.513-.208 1.95-.624c.444-.425.667-1.053.667-1.886v-6.36h-1.549v6.347c0 .744-.356 1.116-1.068 1.116-.72 0-1.081-.372-1.081-1.116v-6.346H88.18v6.36c0 .823.222 1.447.667 1.872zm8.958.637c-.854 0-1.53-.226-2.029-.677-.498-.46-.747-1.085-.747-1.872v-3.93c0-.788.25-1.408.748-1.86.498-.46 1.174-.69 2.028-.69 1.834 0 2.75.956 2.75 2.868v.81h-1.548v-.81c0-.495-.098-.863-.294-1.102-.196-.239-.503-.358-.92-.358-.393 0-.695.11-.909.332-.204.212-.307.522-.307.93v3.703c0 .408.103.717.307.93.214.212.516.319.908.319.81 0 1.215-.465 1.215-1.395v-.81h1.548v.81c0 .93-.231 1.63-.694 2.098-.463.47-1.148.704-2.056.704zm8.536-8.87h-5.126v1.408h1.789v7.303h1.548v-7.303h1.789v-1.407zM35.973 5.533H24.95L23.777 6.7v12.405l1.172 1.168h11.023l1.172-1.168V6.7l-1.172-1.167zM32.85 16.599h-4.775V9.12h4.774v7.478zM119 6.657l-1.172-1.167h-11.024l-1.172 1.167v12.405l1.172 1.167h11.024L119 19.062V6.657zm-4.297 9.942h-4.774V9.12h4.774v7.478zM101.379 0l1.172 1.167v17.939l-1.172 1.167H90.355l-1.172-1.168V6.7l1.172-1.167h7.378L95.737 9.12h-2.3v7.478h4.773V3.588h-7.074L89.14 0h12.239zM52.292 5.533L53.464 6.7v8.818l-1.172 1.167h-7.378l1.996-3.588h2.3v-3.89h-4.773v11.109H40.14V6.743l-1.172-1.167h13.324v-.043zM20.783 0l1.996 3.588h-2.256v16.641h-4.297V9.121H13.1v11.108H8.804V9.121H5.68v11.108H1.383V7.608L.21 5.49h15.972V3.588H2.25L.254 0h20.529zm48.956 5.533v14.696h-4.296V9.121h-4.774v11.108h-4.297V6.657L55.2 5.49h14.54v.043zm15.625 0L86.536 6.7v6.83l-1.172 1.167h-7.378l1.996-3.588h2.3V9.164h-4.774v7.52h9.028l-1.997 3.589h-10.2l-1.17-1.168V6.7l-1.173-1.167h13.368z" fill="#F4F6FA"/></svg>