<svg width="83" height="28" viewBox="0 0 83 28" fill="none" xmlns="http://www.w3.org/2000/svg"><path d="M35.96 26.642h-6.723L33.443.647h6.722L35.96 26.642zm24.365-25.36C59 .757 56.898.176 54.296.176c-6.638 0-11.313 3.54-11.341 8.6-.055 3.733 3.346 5.807 5.891 7.052 2.6 1.272 3.485 2.102 3.485 3.236-.027 1.742-2.102 2.544-4.037 2.544-2.684 0-4.122-.413-6.307-1.382l-.885-.416-.941 5.835c1.576.719 4.481 1.356 7.497 1.384 7.053 0 11.645-3.485 11.7-8.877.027-2.96-1.77-5.227-5.643-7.08-2.351-1.19-3.79-1.991-3.79-3.208.027-1.106 1.217-2.24 3.871-2.24 2.185-.055 3.791.47 5.007.996l.608.276.914-5.614zm8.938 16.151c.554-1.493 2.684-7.273 2.684-7.273-.028.056.553-1.52.885-2.489l.47 2.24s1.272 6.222 1.549 7.522h-5.588zM77.561.647h-5.2c-1.603 0-2.821.47-3.513 2.157l-9.985 23.838h7.053l1.411-3.9h8.63c.194.913.803 3.9.803 3.9h6.224L77.561.647zm-53.939 0L17.04 18.373l-.72-3.595c-1.216-4.148-5.033-8.655-9.293-10.896l6.03 22.733h7.108L30.73.646h-7.108z" fill="#00579F"/><path d="M10.926.647H.111L0 1.173C8.437 3.33 14.024 8.53 16.32 14.78L13.969 2.833c-.388-1.66-1.577-2.13-3.043-2.186z" fill="#FAA61A"/></svg>