<?xml version="1.0" encoding="utf-8"?><svg xmlns="http://www.w3.org/2000/svg" xmlns:xlink="http://www.w3.org/1999/xlink"><symbol viewBox="0 0 18 18" id="airplane-icon" xmlns="http://www.w3.org/2000/svg"><path d="M14.3 17.6l1.6-1.6-2.4-9.3 3.8-3.8c.7-.7.8-1.8.2-2.4-.6-.6-1.7-.5-2.4.2l-3.8 3.8L2 2 .4 3.7l7.3 4.4L4 11.7 1.1 11 0 12.1l3.7 2.2L5.9 18 7 16.9 6.3 14l3.7-3.7 4.3 7.3z"/></symbol><symbol viewBox="0 0 24.9 9.1" id="hockey-stick-icon" xmlns="http://www.w3.org/2000/svg"><path d="M17.8 6H0v3H15.3l5.1.1 4.5-5.4L22.8 0z"/></symbol><symbol viewBox="0 0 21.7 18.3" id="home-icon" xmlns="http://www.w3.org/2000/svg"><path d="M17.8 7.1V2h-3v2l-3.9-4L0 11.1h2.6v7.2h6.7v-5.9h3v5.9H19v-7.2h2.6l-3.8-4z"/></symbol><symbol viewBox="0 0 10.5 9" id="pointer-horizontal-icon" xmlns="http://www.w3.org/2000/svg"><path fill="none" d="M0 4.5h10m0 0l-4-4m4 4l-4 4"/></symbol><symbol viewBox="0 0 19 18.1" id="present-icon" xmlns="http://www.w3.org/2000/svg"><path d="M17.1 10.5v6.7c0 .3-.1.5-.3.7-.2.2-.4.3-.7.3H2.9c-.3 0-.5-.1-.7-.3-.2-.2-.3-.4-.3-.7v-6.6l15.2-.1zM11.9 0c1.1 0 2.2.6 2.8 1.5.6 1 .7 2.2.2 3.2h3.2c.3 0 .5.1.7.3.1.2.2.5.2.7v2.9c0 .3-.1.5-.3.7-.2.2-.4.3-.7.3H.9c-.3 0-.5-.1-.7-.3C.1 9 0 8.8 0 8.6V5.7c0-.2.1-.5.3-.7.2-.2.4-.3.7-.3h3.2c-.5-1-.4-2.1.1-3C4.7.8 5.6.2 6.7 0c1-.1 2.1.2 2.8 1 .6-.6 1.5-1 2.4-1zM7.1 1.9c-.5 0-1 .3-1.2.7-.2.4-.3.9-.1 1.4.3.4.7.7 1.2.7h1.5V3.3c0-.4-.1-.7-.4-1-.2-.2-.5-.4-.8-.4h-.2zm4.8 0h-.1c-.3 0-.6.2-.9.4-.2.2-.4.5-.4.9v1.5H12c.5 0 .9-.3 1.1-.7.2-.4.2-.9 0-1.3-.2-.5-.6-.7-1.1-.8h-.1z"/></symbol><symbol fill="none" viewBox="0 0 22 13" id="slide-arrow" xmlns="http://www.w3.org/2000/svg"><path d="M1 1l10 10L21 1" stroke="#0C1931" stroke-width="2"/></symbol><symbol fill="currentColor" viewBox="0 0 8 15" id="slider-arrow" xmlns="http://www.w3.org/2000/svg"><path fill-rule="evenodd" clip-rule="evenodd" d="M6.001 7.5L0 1.07 1 0l7 7.5L1 15l-1-1.07L6.001 7.5z"/></symbol><symbol fill="none" viewBox="0 0 36 14" id="slider-arrow-1" xmlns="http://www.w3.org/2000/svg"><path fill-rule="evenodd" clip-rule="evenodd" d="M28.762.296L35.408 7l-6.646 6.704-1.42-1.408L31.6 8H0V6h31.6l-4.258-4.296 1.42-1.408z" fill="#F4F6FA"/></symbol><symbol viewBox="0 0 20.5 20.5" id="ticket-icon" xmlns="http://www.w3.org/2000/svg"><path d="M8.3 20.5c-.2 0-.4-.1-.5-.2l-2.2-2.2c-.3-.3-.3-.7-.1-1 .2-.3.3-.6.3-1s-.2-.7-.4-.9c-.3-.3-.6-.4-.9-.4-.3 0-.7.1-1 .3-.3.2-.7.2-1-.1L.3 12.8c-.3-.3-.3-.8 0-1.1L11.7.2c.3-.3.8-.3 1.1 0L15 2.4c.3.3.3.7.1 1-.2.3-.3.6-.3 1s.2.7.4.9c.3.3.6.4.9.4.4 0 .7-.1 1-.3.3-.2.7-.2 1 .1l2.2 2.2c.3.3.3.8 0 1.1L8.8 20.3c-.2.1-.4.2-.5.2zM7 17.4l1.3 1.3L18.7 8.3 17.4 7c-.4.2-.9.3-1.4.3-.7 0-1.4-.3-1.9-.9-.5-.5-.8-1.2-.9-1.9 0-.5.1-1 .3-1.4l-1.3-1.3L1.8 12.2l1.3 1.3c.4-.2.9-.3 1.4-.3.7 0 1.4.3 1.9.9.5.5.8 1.2.9 1.9 0 .5-.1 1-.3 1.4z"/><path d="M9.6 16.5c-.2 0-.4-.1-.5-.2l-.4-.4c-.3-.3-.3-.8 0-1.1.3-.3.8-.3 1.1 0l.4.4c.3.3.3.8 0 1.1-.2.1-.4.2-.6.2zm-1.8-1.7c-.2 0-.4-.1-.5-.2l-.4-.4c-.1-.1-.2-.3-.2-.5s.1-.4.2-.5c.3-.3.8-.3 1.1 0l.4.4c.1.1.2.3.2.5s-.1.4-.2.5-.4.2-.6.2zM6 13c-.2 0-.4-.1-.5-.2l-.4-.4c-.1-.1-.2-.3-.2-.5s.1-.4.2-.5c.3-.3.8-.3 1.1 0l.4.4c.1.1.2.3.2.5s-.1.4-.2.5-.4.2-.6.2zm10.6-1.8c-.2 0-.4-.1-.5-.2l-.4-.4c-.1-.1-.2-.3-.2-.5s.1-.4.2-.5c.3-.3.8-.3 1.1 0l.4.4c.1.1.2.3.2.5s-.1.4-.2.5-.4.2-.6.2zm-12.3 0c-.2 0-.4-.1-.5-.2l-.4-.4c-.1-.1-.2-.3-.2-.5s.1-.4.2-.5c.3-.3.8-.3 1.1 0l.4.4c.1.1.1.3.1.5s0 .4-.2.5-.3.2-.5.2zm10.6-1.8c-.2 0-.4-.1-.5-.2l-.4-.4c-.1-.1-.2-.3-.2-.5s.1-.4.2-.5c.3-.3.8-.3 1.1 0l.4.4c.1.1.2.3.2.5s-.1.4-.2.5-.4.2-.6.2zm-1.8-1.7c-.2 0-.4-.1-.5-.2l-.4-.5c-.1-.1-.2-.3-.2-.5s0-.4.2-.5c.3-.3.8-.3 1.1 0l.4.4c.1.1.2.3.2.5s-.1.4-.2.5c-.2.2-.4.3-.6.3zm-1.7-1.8c-.2 0-.4-.1-.5-.2l-.4-.4c-.1-.1-.2-.3-.2-.5s.1-.4.2-.5c.3-.3.8-.3 1.1 0l.4.4c0 .1.1.3.1.5s-.1.4-.2.5c-.2.2-.3.2-.5.2z"/></symbol><symbol viewBox="0 0 26 18" id="view-line-icon" xmlns="http://www.w3.org/2000/svg"><path fill-rule="evenodd" clip-rule="evenodd" d="M26 0H0v4h26V0zm0 7H0v4h26V7zM0 14h26v4H0v-4z"/></symbol><symbol viewBox="0 0 26 18" id="view-table-icon" xmlns="http://www.w3.org/2000/svg"><path d="M0 0h7.3v4H0V0zM0 7h7.3v4H0V7zM7.3 14H0v4h7.3v-4zM9.4 0h7.3v4H9.4V0zM16.6 7H9.4v4h7.3V7zM9.4 14h7.3v4H9.4v-4zM26 0h-7.3v4H26V0zM18.7 7H26v4h-7.3V7zM26 14h-7.3v4H26v-4z"/></symbol></svg>