<?xml version="1.0" standalone="no"?>
<!DOCTYPE svg PUBLIC "-//W3C//DTD SVG 1.1//EN" "http://www.w3.org/Graphics/SVG/1.1/DTD/svg11.dtd" >
<svg xmlns="http://www.w3.org/2000/svg">
<metadata>Generated by IcoMoon</metadata>
<defs>
<font id="icomoon" horiz-adv-x="1024">
<font-face units-per-em="1024" ascent="960" descent="-64" />
<missing-glyph horiz-adv-x="1024" />
<glyph unicode="&#x20;" horiz-adv-x="512" d="" />
<glyph unicode="&#xe900;" glyph-name="facebook" d="M619.883 448.595h-69.604v-309.929h-105.457v309.929h-50.155v108.922h50.155v70.485c0 50.404 19.699 129.331 106.396 129.331l78.116-0.397v-105.728h-56.678c-9.297 0-22.368-5.645-22.368-29.69v-64.102h78.81l-9.214-108.821z" />
<glyph unicode="&#xe901;" glyph-name="instagram" d="M398.709 727.552h225.591c91.674 0 166.259-74.588 166.259-166.261v-225.591c0-91.689-74.571-166.261-166.259-166.261h-225.591c-91.674 0-166.261 74.573-166.261 166.261v225.591c0 91.674 74.588 166.261 166.261 166.261zM624.318 225.577c60.802 0 110.106 49.301 110.106 110.108v225.591c0 60.821-49.303 110.123-110.106 110.123h-225.594c-60.821 0-110.123-49.301-110.123-110.123v-225.591c0-60.806 49.301-110.108 110.123-110.108h225.594zM367.166 448.491c0 79.595 64.759 144.354 144.354 144.354 79.597 0 144.352-64.759 144.352-144.354s-64.755-144.339-144.352-144.339c-79.595 0-144.354 64.745-144.354 144.339zM423.322 448.491c0-48.715 39.486-88.201 88.198-88.201s88.201 39.486 88.201 88.201c0 48.71-39.488 88.198-88.201 88.198s-88.198-39.488-88.198-88.198zM656.132 557.165c19.102 0 34.59 15.486 34.59 34.59s-15.488 34.59-34.59 34.59c-19.106 0-34.59-15.486-34.59-34.59s15.484-34.59 34.59-34.59z" />
<glyph unicode="&#xe902;" glyph-name="ok" d="M482.822 316.853c-45.95 4.698-87.379 15.795-122.85 43.004-4.401 3.388-8.945 6.65-12.962 10.43-15.526 14.624-17.090 31.371-4.804 48.631 10.509 14.769 28.151 18.72 46.49 10.238 3.55-1.643 6.933-3.695 10.174-5.899 66.106-44.544 156.919-45.775 223.273-2.001 6.573 4.943 13.6 8.973 21.747 11.031 15.836 3.987 30.605-1.719 39.102-15.307 9.709-15.518 9.583-30.665-2.377-42.714-18.353-18.47-40.42-31.834-64.941-41.163-23.185-8.813-48.58-13.252-73.717-16.198 3.793-4.049 5.581-6.039 7.953-8.378 34.129-33.632 68.41-67.121 102.428-100.853 11.59-11.494 14.010-25.747 7.631-39.115-6.98-14.613-22.596-24.226-37.914-23.198-9.702 0.659-17.269 5.395-23.991 12.036-25.756 25.417-51.996 50.368-77.231 76.267-7.343 7.531-10.876 6.106-17.357-0.433-25.911-26.161-52.243-51.919-78.733-77.532-11.893-11.501-26.048-13.57-39.84-7.002-14.662 6.97-23.994 21.651-23.273 36.401 0.495 9.978 5.5 17.598 12.482 24.437 33.777 33.075 67.46 66.238 101.156 99.369 2.227 2.204 4.307 4.544 7.554 7.947zM361.419 592.638c-0.474-86.863 67.078-158.765 149.476-159.061 83.228-0.297 151.251 69.967 151.682 156.659 0.416 88.738-66.5 160.529-149.875 160.764-83.2 0.25-150.81-70.528-151.283-158.361zM512.094 669.939c40.905-0.047 73.532-34.374 73.681-77.502 0.132-43.13-32.422-77.692-73.295-77.847-41.007-0.156-73.918 33.937-74.227 76.911-0.311 43.518 32.612 78.485 73.841 78.438z" />
<glyph unicode="&#xe903;" glyph-name="telegram" d="M814.758 447.996c0-167.206-135.548-302.754-302.754-302.754s-302.754 135.548-302.754 302.754c0 167.206 135.548 302.754 302.754 302.754s302.754-135.548 302.754-302.754zM522.861 527.23c-29.449-12.247-88.301-37.598-176.561-76.051-14.332-5.698-21.839-11.275-22.522-16.725-1.156-9.214 10.383-12.843 26.095-17.783 2.138-0.672 4.352-1.367 6.622-2.106 15.458-5.026 36.252-10.903 47.061-11.138 9.805-0.211 20.749 3.831 32.832 12.128 82.464 55.665 125.030 83.802 127.703 84.407 1.886 0.429 4.499 0.966 6.268-0.608 1.771-1.572 1.598-4.553 1.41-5.353-1.143-4.873-46.434-46.98-69.873-68.77-7.307-6.793-12.491-11.612-13.549-12.71-2.374-2.466-4.794-4.798-7.117-7.040-14.362-13.843-25.131-24.224 0.595-41.178 12.363-8.147 22.257-14.884 32.126-21.606 10.778-7.339 21.53-14.66 35.439-23.778 3.543-2.323 6.929-4.736 10.225-7.087 12.544-8.943 23.812-16.977 37.737-15.695 8.090 0.745 16.446 8.352 20.689 31.038 10.031 53.619 29.745 169.792 34.302 217.666 0.399 4.194-0.105 9.562-0.508 11.917-0.403 2.357-1.246 5.715-4.309 8.201-3.627 2.942-9.227 3.563-11.731 3.52-11.388-0.201-28.858-6.276-112.934-41.248z" />
<glyph unicode="&#xe904;" glyph-name="tiktok" d="M630.705 747.677h-99.556v-408.255c0-48.644-38.291-88.602-85.941-88.602-47.652 0-85.943 39.957-85.943 88.602 0 47.774 37.44 86.863 83.39 88.599v102.498c-101.259-1.737-182.946-85.995-182.946-191.098 0-105.973 83.39-191.1 186.351-191.1 102.959 0 186.349 85.995 186.349 191.1v209.34c37.44-27.797 83.388-44.301 131.891-45.169v102.498c-74.88 2.605-133.594 65.148-133.594 141.586z" />
<glyph unicode="&#xe905;" glyph-name="twitter" d="M777.762 624.791c-19.917-8.631-41.346-14.47-63.814-17.077 22.942 13.434 40.548 34.69 48.858 60.060-21.466-12.448-45.252-21.476-70.547-26.342-20.269 21.094-49.143 34.276-81.118 34.276-61.344 0-111.1-48.625-111.1-108.578 0-8.51 0.988-16.794 2.893-24.747-92.335 4.527-174.204 47.753-229.003 113.461-9.562-16.032-15.046-34.697-15.046-54.592 0-37.662 19.629-70.91 49.423-90.377-18.204 0.559-35.347 5.442-50.319 13.596-0.009-0.461-0.009-0.922-0.009-1.376 0-52.61 38.313-96.491 89.129-106.458-9.314-2.494-19.149-3.814-29.265-3.814-7.174 0-14.127 0.672-20.905 1.935 14.135-43.125 55.157-74.519 103.785-75.403-38.031-29.126-85.929-46.479-137.995-46.479-8.949 0-17.813 0.51-26.49 1.521 49.141-30.816 107.554-48.787 170.291-48.787 204.354 0 316.109 165.449 316.109 308.943 0 4.704-0.107 9.393-0.322 14.042 21.724 15.305 40.557 34.421 55.445 56.196z" />
<glyph unicode="&#xe906;" glyph-name="vk" d="M506.411 278.359h38.662c0 0 11.68 1.212 17.641 7.287 5.489 5.581 5.312 16.055 5.312 16.055s-0.755 49.052 23.324 56.273c23.733 7.117 54.21-47.405 86.515-68.369 24.427-15.863 42.991-12.384 42.991-12.384l86.377 1.137c0 0 45.184 2.63 23.759 36.22-1.756 2.75-12.476 24.851-64.222 70.263-54.159 47.531-46.906 39.844 18.334 122.061 39.733 50.071 55.618 80.64 50.658 93.734-4.734 12.469-33.956 9.173-33.956 9.173l-97.254-0.572c0 0-7.209 0.928-12.557-2.093-5.225-2.965-8.587-9.871-8.587-9.871s-15.394-38.748-35.923-71.699c-43.307-69.532-60.623-73.201-67.701-68.885-16.461 10.063-12.354 40.425-12.354 61.995 0 67.381 10.81 95.475-21.047 102.748-10.573 2.417-18.351 4.011-45.387 4.269-34.701 0.339-64.073-0.1-80.704-7.804-11.063-5.124-19.599-16.54-14.4-17.195 6.428-0.813 20.986-3.712 28.704-13.649 9.967-12.819 9.615-41.611 9.615-41.611s5.726-79.322-13.374-89.175c-13.109-6.758-31.091 7.040-69.7 70.121-19.785 32.314-34.72 68.030-34.72 68.030s-2.88 6.675-8.017 10.244c-6.234 4.326-14.944 5.705-14.944 5.705l-92.418-0.574c0 0-13.873-0.365-18.966-6.069-4.531-5.071-0.36-15.565-0.36-15.565s72.354-160.053 154.278-240.71c75.119-73.948 160.422-69.090 160.422-69.090z" />
<glyph unicode="&#xe907;" glyph-name="youtube" d="M852.727 582.743c0 0-6.79 46.47-27.703 66.876-26.481 26.854-56.087 26.987-69.666 28.567-97.235 6.844-243.223 6.844-243.223 6.844h-0.271c0 0-145.988 0-243.223-6.844-13.581-1.581-43.185-1.713-69.667-28.567-20.914-20.405-27.568-66.876-27.568-66.876s-7.062-54.633-7.062-109.135v-51.078c0-54.5 6.926-109.135 6.926-109.135s6.79-46.47 27.568-66.876c26.481-26.854 61.248-25.933 76.729-28.83 55.678-5.133 236.431-6.714 236.431-6.714s146.125 0.262 243.36 6.978c13.579 1.579 43.185 1.711 69.666 28.565 20.913 20.405 27.703 66.876 27.703 66.876s6.925 54.502 6.925 109.135v51.078c0 54.502-6.925 109.135-6.925 109.135zM440.16 360.525v189.438l187.814-95.049-187.814-94.389z" />
<glyph unicode="&#xe908;" glyph-name="ticket" horiz-adv-x="977" d="M581.091 925.091c-9.451-0.13-17.975-3.995-24.183-10.183l-535.090-535.090c-6.315-6.317-10.221-15.044-10.221-24.682s3.906-18.364 10.221-24.682l103.182-103.182c6.318-6.321 15.049-10.231 24.692-10.231 8.302 0 15.927 2.898 21.92 7.737l-0.066-0.052c12.841 10.305 29.018 15.535 45.455 14.636 16.434-0.896 31.993-7.812 43.636-19.455 11.641-11.641 18.556-27.196 19.455-43.636s-4.333-32.615-14.636-45.455c-4.788-5.926-7.685-13.551-7.685-21.853 0-9.643 3.91-18.374 10.231-24.692l103.182-103.182c6.317-6.315 15.044-10.221 24.682-10.221s18.364 3.906 24.682 10.221l535.091 535.091c6.315 6.317 10.221 15.044 10.221 24.682s-3.906 18.364-10.221 24.682l-103.182 103.182c-6.318 6.321-15.049 10.231-24.692 10.231-8.302 0-15.928-2.898-21.92-7.737l0.066 0.052c-12.839-10.304-29.014-15.534-45.455-14.636s-31.996 7.813-43.636 19.455c-11.643 11.644-18.559 27.203-19.455 43.636-0.899 16.437 4.331 32.613 14.636 45.455 4.788 5.926 7.685 13.551 7.685 21.853 0 9.643-3.91 18.374-10.231 24.692l-103.182 103.182c-6.314 6.294-15.026 10.186-24.647 10.186-0.188 0-0.376-0.001-0.563-0.004h0.028zM581.547 840.818l65.273-65.273c-8.556-19.477-20.361-38.072-19.182-59.636 1.832-33.601 16.031-65.392 39.818-89.182 23.79-23.791 55.586-37.982 89.182-39.818 21.592-1.179 40.229 10.601 59.727 19.182l65.18-65.182-485.727-485.727-65.182 65.182c8.581 19.498 20.361 38.135 19.182 59.727-1.836 33.596-16.027 65.392-39.818 89.182-23.789 23.788-55.581 37.986-89.182 39.818-21.564 1.18-40.16-10.626-59.636-19.182l-65.273 65.273zM519.091 739c-3.704-0.096-7.223-0.754-10.518-1.892l0.245 0.074c-1.354-0.449-2.436-0.88-3.491-1.362l0.218 0.089c-2.294-1.073-4.263-2.255-6.094-3.612l0.094 0.067c-1.023-0.741-1.911-1.456-2.763-2.213l0.036 0.031c-3.409-3.063-6.191-6.746-8.182-10.882l-0.091-0.209c-0.921-1.885-1.731-4.095-2.312-6.395l-0.052-0.241c-0.665-2.547-1.046-5.47-1.046-8.483 0-1.883 0.149-3.731 0.436-5.534l-0.026 0.199c0.998-6.091 3.441-11.482 6.967-15.986l-0.058 0.077c0.837-1.066 1.67-2.015 2.552-2.915l20.63-20.63c2.454-2.383 5.269-4.413 8.35-5.999l0.196-0.092c0.827-0.446 1.874-0.934 2.948-1.371l0.234-0.084c0.827-0.34 1.915-0.712 3.026-1.030l0.246-0.060c2.802-0.809 6.021-1.275 9.348-1.275 2.811 0 5.544 0.332 8.162 0.959l-0.238-0.048c1.386 0.337 2.509 0.68 3.607 1.077l-0.243-0.077c1.354 0.449 2.436 0.88 3.491 1.362l-0.218-0.089c1.263 0.556 2.277 1.072 3.262 1.636l-0.171-0.090c2.131 1.253 3.975 2.605 5.67 4.121l-0.034-0.030c4.274 3.833 7.578 8.659 9.559 14.121l0.077 0.243c0.32 0.854 0.663 1.978 0.949 3.123l0.051 0.24c0.231 0.911 0.453 2.082 0.616 3.273l0.020 0.181c0.214 1.452 0.336 3.129 0.336 4.834 0 0.73-0.022 1.455-0.067 2.173l0.005-0.099c-0.145 2.522-0.535 4.884-1.147 7.153l0.056-0.244c-0.337 1.386-0.68 2.509-1.077 3.607l0.077-0.243c-0.52 1.307-1.009 2.355-1.546 3.372l0.092-0.19c-0.589 1.215-1.133 2.197-1.723 3.15l0.086-0.15c-0.698 1.129-1.357 2.078-2.061 2.991l0.060-0.082c-0.863 1.099-1.726 2.077-2.64 3.004l-20.632 20.632c-0.788 0.777-1.618 1.52-2.482 2.222l-0.064 0.050c-1.72 1.354-3.657 2.594-5.71 3.636l-0.199 0.092c-0.827 0.446-1.874 0.934-2.948 1.371l-0.234 0.084c-0.827 0.34-1.915 0.712-3.026 1.030l-0.246 0.060c-0.891 0.277-2.054 0.56-3.237 0.784l-0.217 0.034c-1.724 0.302-3.71 0.474-5.736 0.474-0.412 0-0.823-0.007-1.232-0.021l0.059 0.002zM601.636 657.909c-1.289-0.034-2.516-0.132-3.723-0.292l0.178 0.019c-1.325-0.15-2.47-0.342-3.594-0.588l0.231 0.042c-2.539-0.6-4.752-1.38-6.85-2.363l0.214 0.090c-3.343-1.556-6.22-3.472-8.759-5.756l0.032 0.028c-0.867-0.787-1.668-1.588-2.429-2.426l-0.026-0.029c-0.77-0.807-1.514-1.666-2.215-2.56l-0.057-0.076c-0.606-0.819-1.237-1.768-1.82-2.749l-0.088-0.16c-1.705-2.773-3.077-5.984-3.948-9.395l-0.052-0.242c-0.53-2.035-0.888-4.402-0.997-6.834l-0.003-0.075c-0.029-0.529-0.045-1.149-0.045-1.773s0.016-1.243 0.049-1.859l-0.004 0.086c0.073-1.297 0.202-2.485 0.389-3.654l-0.026 0.2c0.615-3.711 1.724-7.040 3.273-10.109l-0.092 0.2c0.615-1.242 1.19-2.254 1.812-3.233l-0.084 0.142c1.311-2.050 2.719-3.835 4.284-5.467l-0.012 0.012c0.154-0.209 0.244-0.327 0.335-0.445l-0.060 0.081 20.636-20.636c0.807-0.77 1.666-1.514 2.56-2.215l0.076-0.057c1.723-1.389 3.66-2.657 5.716-3.727l0.194-0.092c1.832-0.968 3.974-1.835 6.208-2.484l0.247-0.061c2.814-0.817 6.047-1.286 9.39-1.286 0.343 0 0.684 0.005 1.024 0.015l-0.050-0.001c1.262 0.038 2.457 0.136 3.633 0.292l-0.178-0.019c1.372 0.183 2.544 0.406 3.693 0.685l-0.239-0.049c4.822 1.156 9.053 3.168 12.732 5.885l-0.095-0.067c2.828 2.079 5.256 4.478 7.3 7.184l0.064 0.088c4.083 5.369 6.66 12.081 6.997 19.378l0.003 0.077c0.014 0.37 0.022 0.805 0.022 1.241 0 2.034-0.174 4.027-0.508 5.966l0.030-0.207c-0.615 3.711-1.724 7.040-3.273 10.109l0.092-0.2c-0.586 1.253-1.132 2.266-1.724 3.247l0.088-0.157c-1.311 2.050-2.719 3.835-4.284 5.467l0.012-0.012c-0.122 0.124-0.24 0.242-0.359 0.36l-20.641 20.64c-0.807 0.77-1.666 1.514-2.56 2.215l-0.076 0.057c-1.699 1.386-3.605 2.653-5.629 3.727l-0.189 0.092c-1.832 0.968-3.974 1.835-6.208 2.484l-0.247 0.061c-0.899 0.253-2.066 0.507-3.253 0.7l-0.201 0.027c-0.945 0.185-2.128 0.346-3.327 0.446l-0.127 0.009c-0.516 0.027-1.12 0.043-1.727 0.043s-1.211-0.016-1.811-0.046l0.084 0.003zM684.091 575.364c-1.262-0.038-2.457-0.136-3.633-0.292l0.178 0.019c-1.352-0.146-2.529-0.338-3.684-0.587l0.23 0.042c-1.356-0.342-2.447-0.685-3.515-1.078l0.242 0.078c-3.54-1.226-6.609-2.858-9.37-4.886l0.097 0.068c-1.966-1.415-3.691-2.938-5.253-4.615l-0.019-0.021c-0.73-0.797-1.445-1.655-2.118-2.548l-0.064-0.089c-0.606-0.819-1.237-1.768-1.821-2.749l-0.088-0.16c-0.538-0.837-1.112-1.849-1.636-2.89l-0.091-0.201c-0.392-0.836-0.823-1.919-1.2-3.027l-0.073-0.246c-0.731-1.922-1.333-4.187-1.702-6.53l-0.026-0.197c-0.138-0.997-0.236-2.192-0.273-3.402l-0.001-0.053c-0.029-0.529-0.045-1.149-0.045-1.773s0.016-1.243 0.049-1.859l-0.004 0.086c0.073-1.297 0.202-2.485 0.389-3.654l-0.026 0.2c0.225-1.361 0.478-2.496 0.785-3.609l-0.058 0.245c0.672-2.512 1.51-4.687 2.546-6.746l-0.091 0.201c0.615-1.242 1.19-2.254 1.812-3.233l-0.084 0.142c0.697-1.088 1.355-2.007 2.056-2.891l-0.056 0.073c0.759-0.97 1.502-1.829 2.286-2.65l-0.013 0.014c0.154-0.209 0.244-0.327 0.335-0.445l-0.060 0.081 20.637-20.636c0.807-0.77 1.666-1.514 2.56-2.215l0.076-0.057c0.824-0.683 1.742-1.37 2.694-2.012l0.124-0.079c1.798-1.173 3.864-2.242 6.036-3.1l0.237-0.082c0.827-0.34 1.915-0.712 3.026-1.031l0.246-0.060c2.017-0.583 4.373-1.003 6.798-1.175l0.112-0.006c0.761-0.059 1.648-0.093 2.542-0.093 1.539 0 3.056 0.1 4.542 0.293l-0.175-0.019c1.372 0.183 2.544 0.406 3.693 0.685l-0.239-0.049c5.971 1.424 11.153 4.214 15.396 8.029l-0.032-0.028c6.809 6.095 11.202 14.768 11.634 24.471l0.003 0.074c0.014 0.37 0.022 0.805 0.022 1.241 0 2.034-0.174 4.027-0.508 5.966l0.030-0.207c-0.615 3.711-1.724 7.040-3.273 10.109l0.092-0.2c-1.106 2.255-2.316 4.193-3.697 5.992l0.061-0.083c-0.863 1.099-1.726 2.077-2.64 3.004l-20.631 20.632c-0.807 0.77-1.666 1.514-2.56 2.215l-0.076 0.057c-3.487 2.815-7.615 5-12.117 6.303l-0.247 0.061c-2.727 0.765-5.859 1.205-9.093 1.205-0.447 0-0.892-0.008-1.334-0.025l0.064 0.002zM190.364 492.909c-3.716-0.128-7.23-0.817-10.517-1.985l0.244 0.076c-1.354-0.449-2.436-0.88-3.491-1.362l0.218 0.089c-2.294-1.073-4.263-2.255-6.094-3.612l0.094 0.067c-1.023-0.741-1.912-1.456-2.763-2.213l0.036 0.031c-2.566-2.298-4.766-4.932-6.549-7.847l-0.087-0.153c-0.505-0.825-1.050-1.838-1.546-2.88l-0.090-0.211c-0.417-0.818-0.876-1.867-1.284-2.942l-0.080-0.24c-0.71-1.955-1.283-4.256-1.615-6.634l-0.021-0.184c-0.219-1.468-0.344-3.163-0.344-4.886 0-3.176 0.424-6.252 1.218-9.176l-0.057 0.245c1.267-4.769 3.364-8.932 6.151-12.535l-0.060 0.080c0.863-1.099 1.726-2.077 2.64-3.004l20.632-20.632c5.689-5.549 13.278-9.175 21.701-9.811l0.117-0.007c0.737-0.055 1.597-0.087 2.464-0.087 2.802 0 5.526 0.33 8.137 0.953l-0.238-0.048c4.822 1.156 9.053 3.168 12.732 5.885l-0.095-0.067c1.023 0.741 1.912 1.456 2.763 2.213l-0.036-0.031c1.735 1.535 3.286 3.202 4.665 5.007l0.062 0.084c2.672 3.554 4.712 7.752 5.858 12.305l0.051 0.241c0.67 2.557 1.055 5.493 1.055 8.518 0 1.903-0.152 3.771-0.445 5.591l0.027-0.2c-0.225 1.361-0.478 2.496-0.785 3.609l0.058-0.245c-0.374 1.389-0.746 2.509-1.172 3.602l0.082-0.238c-0.488 1.315-0.947 2.364-1.455 3.385l0.091-0.203c-0.615 1.242-1.19 2.254-1.812 3.233l0.084-0.142c-1.377 2.192-2.877 4.096-4.554 5.827l-20.627 20.627c-1.623 1.59-3.407 3.028-5.322 4.282l-0.133 0.082c-2.744 1.79-5.917 3.25-9.299 4.213l-0.246 0.060c-2.814 0.817-6.047 1.286-9.39 1.286-0.343 0-0.684-0.005-1.024-0.015l0.050 0.001zM765.182 492.909c-1.263-0.038-2.457-0.137-3.633-0.294l0.179 0.020c-2.562-0.354-4.863-0.926-7.062-1.713l0.244 0.076c-3.54-1.226-6.609-2.858-9.37-4.886l0.097 0.068c-0.981-0.737-1.84-1.452-2.662-2.205l0.026 0.024c-1.735-1.535-3.286-3.202-4.665-5.007l-0.062-0.084c-1.985-2.637-3.645-5.675-4.832-8.939l-0.077-0.243c-0.738-1.951-1.34-4.248-1.703-6.624l-0.024-0.194c-0.217-1.461-0.34-3.147-0.34-4.862 0-0.752 0.024-1.499 0.071-2.239l-0.005 0.101c0.152-2.493 0.541-4.823 1.147-7.063l-0.056 0.244c1.577-5.894 4.479-10.977 8.38-15.108l-0.016 0.017c0.121-0.123 0.24-0.242 0.359-0.359l20.64-20.64c0.807-0.77 1.666-1.514 2.56-2.215l0.076-0.057c0.824-0.683 1.742-1.37 2.694-2.012l0.124-0.079c0.815-0.536 1.796-1.11 2.806-1.636l0.194-0.092c1.859-0.974 4.032-1.842 6.299-2.486l0.246-0.060c0.868-0.249 2.003-0.502 3.158-0.699l0.206-0.029c1.864-0.353 4.008-0.555 6.199-0.555 0.282 0 0.563 0.003 0.843 0.010l-0.042-0.001c1.263 0.038 2.457 0.137 3.633 0.294l-0.179-0.020c1.372 0.183 2.544 0.406 3.693 0.685l-0.239-0.049c1.386 0.337 2.509 0.68 3.607 1.077l-0.243-0.077c3.506 1.235 6.544 2.866 9.277 4.885l-0.095-0.067c1.023 0.741 1.911 1.456 2.763 2.213l-0.036-0.031c0.909 0.794 1.739 1.596 2.528 2.436l0.017 0.019c2.284 2.482 4.228 5.327 5.727 8.428l0.091 0.208c2.102 4.358 3.33 9.476 3.33 14.88 0 4.42-0.821 8.648-2.32 12.54l0.081-0.239c-0.488 1.315-0.947 2.364-1.455 3.385l0.091-0.203c-1.703 3.423-3.798 6.36-6.281 8.918l0.008-0.009-20.636 20.636c-0.807 0.77-1.666 1.514-2.56 2.215l-0.076 0.057c-1.699 1.386-3.605 2.653-5.629 3.727l-0.189 0.092c-1.859 0.974-4.032 1.842-6.299 2.486l-0.246 0.060c-0.868 0.249-2.003 0.502-3.158 0.699l-0.206 0.029c-1.864 0.353-4.008 0.555-6.199 0.555-0.282 0-0.563-0.003-0.843-0.010l0.042 0.001zM271.455 410.364c-4.942-0.153-9.577-1.31-13.759-3.272l0.214 0.090c-3.343-1.556-6.22-3.472-8.759-5.756l0.032 0.028c-0.867-0.787-1.668-1.587-2.429-2.425l-0.026-0.029c-0.77-0.807-1.514-1.666-2.215-2.56l-0.057-0.076c-0.606-0.819-1.237-1.768-1.821-2.749l-0.088-0.16c-0.505-0.825-1.050-1.838-1.546-2.88l-0.090-0.211c-0.915-1.857-1.724-4.036-2.31-6.303l-0.053-0.242c-0.231-0.911-0.453-2.082-0.616-3.273l-0.020-0.181c-0.161-0.969-0.291-2.158-0.359-3.362l-0.004-0.092c-0.029-0.529-0.045-1.149-0.045-1.773s0.016-1.243 0.049-1.859l-0.004 0.086c0.235-3.718 1.015-7.186 2.263-10.42l-0.081 0.239c0.488-1.315 0.947-2.364 1.455-3.385l-0.091 0.203c0.615-1.242 1.19-2.254 1.812-3.233l-0.084 0.142c0.697-1.088 1.355-2.007 2.056-2.891l-0.056 0.073c0.841-1.107 1.675-2.085 2.559-3.014l20.622-20.622c3.271-3.154 7.171-5.681 11.49-7.373l0.237-0.082c3.752-1.502 8.101-2.374 12.654-2.374 1.564 0 3.104 0.103 4.614 0.302l-0.177-0.019c1.352 0.146 2.529 0.338 3.684 0.587l-0.23-0.042c1.386 0.337 2.509 0.68 3.607 1.077l-0.243-0.077c2.447 0.843 4.549 1.826 6.525 2.998l-0.161-0.089c1.141 0.672 2.090 1.303 3.005 1.977l-0.096-0.068c1.929 1.416 3.624 2.938 5.159 4.611l0.023 0.026c0.77 0.807 1.514 1.666 2.215 2.56l0.057 0.076c1.993 2.663 3.654 5.731 4.833 9.029l0.076 0.244c0.315 0.825 0.658 1.917 0.947 3.030l0.053 0.243c0.231 0.911 0.453 2.082 0.616 3.273l0.020 0.181c0.161 0.969 0.291 2.158 0.359 3.362l0.004 0.092c0.029 0.529 0.045 1.149 0.045 1.773s-0.016 1.243-0.049 1.859l0.004-0.086c-0.186 2.507-0.605 4.832-1.242 7.064l0.060-0.246c-0.64 2.51-1.448 4.688-2.455 6.752l0.091-0.207c-0.615 1.242-1.19 2.254-1.812 3.233l0.084-0.142c-0.697 1.088-1.355 2.007-2.056 2.891l0.056-0.073c-0.758 0.97-1.502 1.829-2.286 2.65l0.013-0.014c-0.121 0.123-0.24 0.241-0.359 0.359l-0.004 0.004-20.546 20.637c-3.267 3.188-7.167 5.745-11.491 7.463l-0.236 0.083c-0.827 0.34-1.915 0.712-3.026 1.030l-0.246 0.060c-2.814 0.817-6.047 1.286-9.39 1.286-0.343 0-0.684-0.005-1.024-0.015l0.050 0.001zM354 327.818c-3.716-0.128-7.23-0.817-10.517-1.985l0.244 0.076c-1.354-0.449-2.436-0.88-3.491-1.362l0.218 0.089c-1.253-0.586-2.266-1.132-3.247-1.724l0.157 0.088c-2.131-1.253-3.975-2.605-5.67-4.121l0.034 0.030c-1.735-1.535-3.286-3.202-4.665-5.006l-0.062-0.084c-1.29-1.737-2.473-3.706-3.455-5.787l-0.090-0.213c-1.408-2.902-2.458-6.27-2.977-9.811l-0.023-0.189c-0.222-1.481-0.349-3.189-0.349-4.928 0-1.951 0.16-3.866 0.468-5.73l-0.028 0.203c0.394-2.54 0.996-4.805 1.806-6.968l-0.079 0.241c0.488-1.315 0.947-2.364 1.455-3.385l-0.091 0.203c1.134-2.252 2.373-4.189 3.784-5.984l-0.057 0.075c0.758-0.97 1.502-1.829 2.286-2.65l-0.013 0.014c0.154-0.21 0.244-0.328 0.334-0.446l-0.061 0.083 20.636-20.637c1.623-1.59 3.407-3.028 5.322-4.282l0.133-0.082c0.837-0.538 1.849-1.112 2.89-1.636l0.201-0.091c1.832-0.968 3.974-1.835 6.208-2.484l0.247-0.061c2.785-0.799 5.984-1.259 9.29-1.259 4.063 0 7.964 0.694 11.591 1.97l-0.245-0.075c2.447 0.843 4.549 1.826 6.525 2.998l-0.161-0.089c4.108 2.431 7.554 5.529 10.299 9.183l0.065 0.090c1.985 2.637 3.645 5.675 4.832 8.939l0.077 0.243c0.704 1.926 1.275 4.195 1.614 6.54l0.022 0.188c0.161 0.969 0.291 2.158 0.359 3.362l0.004 0.092c0.007 0.262 0.011 0.571 0.011 0.88 0 0.938-0.037 1.867-0.11 2.786l0.008-0.121c-0.273 4.909-1.518 9.466-3.546 13.568l0.091-0.204c-0.615 1.242-1.19 2.254-1.812 3.233l0.084-0.142c-0.697 1.088-1.355 2.007-2.056 2.891l0.056-0.073c-0.758 0.97-1.502 1.829-2.286 2.65l0.013-0.014c-0.121 0.123-0.24 0.241-0.359 0.359l-20.64 20.641c-1.623 1.59-3.407 3.028-5.322 4.282l-0.133 0.082c-4.645 3.028-10.234 4.999-16.248 5.448l-0.116 0.007c-0.798 0.065-1.728 0.102-2.667 0.102-0.277 0-0.553-0.003-0.829-0.010l0.041 0.001zM436.818 247.455c-0.025 0-0.054 0-0.084 0-19.282 0-34.913-15.631-34.913-34.913 0-9.842 4.072-18.732 10.624-25.079l20.645-20.645c6.363-6.62 15.293-10.733 25.184-10.733 19.282 0 34.913 15.631 34.913 34.913 0 9.891-4.113 18.821-10.721 25.173l-0.012 0.011-20.636 20.636c-6.335 6.541-15.19 10.61-24.995 10.636h-0.005z" />
<glyph unicode="&#xe909;" glyph-name="star" d="M512 934.941l177.204-294.45 334.796-77.54-225.28-259.52 29.713-342.373-316.433 134.057-316.433-134.057 29.714 342.373-225.28 259.52 334.796 77.54zM382.932 574.238l-243.851-56.476 164.084-189.024-21.641-249.37 230.476 97.642 230.477-97.642-21.641 249.37 164.086 189.024-243.854 56.476-129.068 214.465z" />
<glyph unicode="&#xe90a;" glyph-name="stick" d="M605.936 197.428l377.695 654.196-123.304 71.19-417.732-723.542h-365.624c-25.238 0-42.891-24.956-34.482-48.75l45.427-128.556c10.329-29.235 37.963-48.779 68.963-48.779h302.356c28.966 0 55.203 17.093 66.907 43.593z" />
<glyph unicode="&#xe90b;" glyph-name="attach" d="M262.322 958.479c-28.625-3.392-56.523-12.474-81.92-27.137-25.16-14.526-47.13-34.011-64.54-57.324s-29.951-49.919-36.996-78.261c-7.045-28.343-8.465-57.883-4.269-86.901s13.977-56.994 28.662-82.429l312.233-540.817c38.848-67.29 101.899-117.14 175.936-138.431 74.041-21.284 153.175-11.976 219.335 26.223 66.161 38.201 113.748 102.085 132.333 176.851s6.937 154.282-31.914 221.571l-208.155 360.511c-9.164 15.678-25.914 26.043-45.085 26.043-28.745 0-52.047-23.302-52.047-52.047 0-9.586 2.592-18.567 7.112-26.28l-0.133 0.245 208.155-360.511c25.562-44.271 32.98-96.393 21.039-144.428-11.941-48.036-41.93-87.992-83.343-111.904-41.403-23.905-90.96-29.938-138.533-16.262-47.567 13.679-88.987 46.187-114.546 90.458l-312.233 540.817c-8.095 14.021-13.463 29.49-15.754 45.331-2.29 15.84-1.514 31.766 2.236 46.855s10.39 28.981 19.413 41.062c9.022 12.081 20.248 22.036 33.134 29.475 26.042 15.035 57.215 18.948 87.409 10.265 30.195-8.682 56.72-29.397 73.078-57.731l242.915-420.681c7.157-12.398 9.112-26.902 5.895-39.842-3.218-12.948-11.071-23.205-21.751-29.373-10.679-6.164-23.467-7.853-36.285-4.167-12.828 3.689-24.453 12.709-31.609 25.105l-138.736 240.374c-9.166 15.669-25.912 26.028-45.077 26.028-28.745 0-52.047-23.302-52.047-52.047 0-9.58 2.588-18.555 7.104-26.265l-0.133 0.246 138.736-240.374c20.447-35.417 53.709-61.779 92.999-73.078 39.297-11.301 81.66-6.423 117.087 14.026 35.416 20.455 60.775 54.738 70.639 94.422 9.865 39.681 3.674 81.571-16.77 116.986l-242.814 420.681c-29.647 51.351-77.8 89.41-134.467 105.704-28.334 8.147-57.666 10.405-86.291 7.013z" />
<glyph unicode="&#xe90c;" glyph-name="star-filled" d="M512 934.943l151.258-330.164 360.742-41.826-267.266-245.879 71.702-356.016-316.436 178.205-316.434-178.205 71.698 356.016-267.264 245.879 360.745 41.826z" />
<glyph unicode="&#xe90d;" glyph-name="basket" d="M512 960c-133.798 0-243.106-109.308-243.106-243.106v-37.989h-94.578l-67.537-742.905h810.441l-67.537 742.905h-94.578v37.989c0 133.798-109.308 243.106-243.106 243.106zM512 879.009c89.998 0 162.115-72.116 162.115-162.115v-37.989h-324.229v37.989c0 89.998 72.116 162.115 162.115 162.115z" />
<glyph unicode="&#xe90e;" glyph-name="user" horiz-adv-x="745" d="M339.103 553.083c112.366 0 203.459 91.091 203.459 203.459s-91.092 203.459-203.459 203.459c-112.367 0-203.459-91.091-203.459-203.459s91.091-203.459 203.459-203.459zM0 10.538c0 255.098 151.819 406.917 339.098 406.917s339.098-151.819 339.098-406.917h-678.195z" />
<glyph unicode="&#xe90f;" glyph-name="menu-opened" d="M319 770.286l-84.071-70.571 205.5-244.786-153.5-182.929h-286.929l54.857-146.286h256l119.429 146.286h-0.143l81.857 97.571 81.857-97.571h-0.143l119.428-146.286h256l54.857 146.286h-286.929l-153.429 182.929 205.429 244.786-84.071 70.571-193-230.071z" />
<glyph unicode="&#xe910;" glyph-name="menu" d="M0 591.419h1024v112.64h-1024zM0 191.941h1024v112.638h-1024z" />
<glyph unicode="&#xe911;" glyph-name="search" horiz-adv-x="896" d="M644.934 316.998l251.059-251.059-67.878-67.878-251.060 251.059 67.88 67.878zM380.063 801.937c-150.221 0-272-121.779-272-272s121.779-271.998 272-271.998c150.221 0 272.001 121.777 272.001 271.998s-121.78 272-272.001 272zM12.063 529.937c0 203.241 164.759 368 368 368s368.001-164.759 368.001-368c0-203.24-164.761-367.998-368.001-367.998s-368 164.758-368 367.998z" />
<glyph unicode="&#xe912;" glyph-name="close" d="M431.157 448.001l-431.156-431.157 80.842-80.844 431.156 431.159 431.158-431.159 80.837 80.844-431.153 431.157 431.161 431.157-80.844 80.842-431.158-431.157-431.158 431.157-80.842-80.842z" />
<glyph unicode="&#xe913;" glyph-name="menu-back" d="M241.101 692.215l-221.811-221.811-19.29-22.404 19.29-22.404 221.811-221.811 44.808 44.808-167.72 167.72h905.811v63.375h-905.811l167.72 167.72z" />
<glyph unicode="&#xe914;" glyph-name="pagination-more" d="M186.182 448c0-51.413-41.678-93.091-93.091-93.091s-93.091 41.678-93.091 93.091c0 51.413 41.678 93.091 93.091 93.091s93.091-41.678 93.091-93.091zM605.091 448c0-51.413-41.677-93.091-93.091-93.091s-93.091 41.678-93.091 93.091 41.678 93.091 93.091 93.091c51.414 0 93.091-41.678 93.091-93.091zM930.909 354.909c51.414 0 93.091 41.678 93.091 93.091s-41.677 93.091-93.091 93.091c-51.414 0-93.091-41.678-93.091-93.091s41.677-93.091 93.091-93.091z" />
<glyph unicode="&#xe915;" glyph-name="checkbox" d="M907.929 824.262l-525.703-520.383-266.156 263.577-116.071-117.36 382.227-378.358 641.773 635.164z" />
<glyph unicode="&#xe916;" glyph-name="checkbox-rounded" d="M720.727 612.909l-270-256.364-147.455 140-48-50.545 195.455-185.818 318 302.182zM1024 448c0-282.77-229.23-512-512-512v0c-282.77 0-512 229.23-512 512v0c0 282.77 229.23 512 512 512v0c282.77 0 512-229.23 512-512v0z" />
<glyph unicode="&#xe917;" glyph-name="filter" d="M428.182 678.982h595.818v-113.778h-609.793c-24.489-40.312-68.813-67.24-119.427-67.24s-94.938 26.928-119.427 67.24h-175.353v113.778h161.377c17.636 56.915 70.691 98.254 133.402 98.254s115.767-41.34 133.403-98.254zM0 192.845h636.934c23.478-44.077 69.894-74.081 123.318-74.081s99.84 30.003 123.324 74.081h140.425v113.776h-132.659c-19.632 53.358-70.918 91.417-131.089 91.417s-111.451-38.059-131.083-91.417h-629.168z" />
<glyph unicode="&#xe918;" glyph-name="puck" horiz-adv-x="962" d="M748.662 597.032c-110.502 191.391-266.054 294.090-361.751 238.838l-201.466-116.316c-95.696-55.25-84.536-241.311 25.965-432.703 110.5-191.395 266.051-294.093 361.752-238.84l201.464 116.317c95.697 55.249 84.536 241.31-25.963 432.705zM619.452 272.614l-0.006-0.003c-56.304 47.569-103.533 104.938-139.401 169.335-37.835 63.261-63.904 132.844-76.949 205.393-9.405 61.274-0.912 107.821 22.59 121.39 40.963 23.65 161.221-46.605 255.826-210.469 94.605-163.862 95.319-303.135 54.359-326.783-23.502-13.57-68.062 2.346-116.426 41.131l0.006 0.006z" />
<glyph unicode="&#xe919;" glyph-name="ruler" horiz-adv-x="975" d="M722.286 935.619l-60.952-59.615 97.524-96.301-44.193-44.329-95.998 97.83-65.521-65.73 126.474-126.873-42.667-44.329-128 128.401-70.095-71.843 96.002-97.83-42.667-42.8-97.526 97.829-64-64.2 128-128.403-44.19-42.798-128 128.401-71.619-71.842 99.048-97.831-44.19-44.329-97.524 99.357-68.571-67.257 129.524-129.931-44.19-42.798-129.524 129.931-59.429-59.616 257.524-258.331 717.714 721.493-252.952 253.745z" />
<glyph unicode="&#xe91a;" glyph-name="in-cart" d="M33 893.929c-8.761 0-17.162-3.448-23.357-9.643s-9.643-14.596-9.643-23.357c0-8.761 3.448-17.163 9.643-23.357s14.596-9.714 23.357-9.714h105.714l148.643-627.571h545.071l26.429 80.929c-32.084-9.966-65.548-15.042-99.143-14.929-87.607 0-171.623 34.837-233.571 96.786-61.948 61.945-96.714 145.963-96.714 233.571h-168.5l-64.357 272.5c-1.804 6.992-5.904 13.24-11.571 17.714s-12.638 6.939-19.857 7.071zM759.714 860.929c-52.264 0-103.328-15.534-146.786-44.571s-77.356-70.285-97.357-118.571c-20.001-48.287-25.196-101.455-15-152.714 10.196-51.262 35.33-98.327 72.286-135.286 36.959-36.955 84.095-62.161 135.357-72.357 51.259-10.196 104.358-4.929 152.643 15.071 48.289 20.001 89.534 53.828 118.571 97.286s44.571 94.591 44.571 146.857c0 70.085-27.871 137.299-77.429 186.857s-116.772 77.429-186.857 77.429zM859.429 704l51.714-51.714-172.143-172.143-117.286 117.286 51.714 51.714 65.571-65.571zM330.286 134.214c-36.487 0-66-29.584-66-66.071s29.513-66.071 66-66.071c36.486 0 66.071 29.584 66.071 66.071s-29.586 66.071-66.071 66.071zM759.714 134.214c-36.487 0-66-29.584-66-66.071s29.513-66.071 66-66.071c36.487 0 66.071 29.584 66.071 66.071s-29.584 66.071-66.071 66.071z" />
<glyph unicode="&#xe91b;" glyph-name="to-cart" d="M759.735 266.319c-87.607 0-171.626 34.801-233.574 96.75-61.948 61.945-96.75 145.964-96.75 233.572h-168.463l-64.413 272.516c-1.804 6.992-5.849 13.2-11.516 17.674s-12.645 6.968-19.864 7.1h-132.129c-8.761 0-17.163-3.48-23.357-9.675s-9.675-14.597-9.675-23.357c0-8.761 3.48-17.163 9.675-23.357s14.597-9.675 23.357-9.675h105.703l148.645-627.614h545.033l26.427 80.929c-32.084-9.966-65.503-14.976-99.098-14.863zM759.735 2.069c36.487 0 66.066 29.579 66.066 66.066s-29.579 66.063-66.066 66.063c-36.487 0-66.063-29.575-66.063-66.063s29.575-66.066 66.063-66.066zM330.307 2.069c36.486 0 66.065 29.579 66.065 66.066s-29.579 66.063-66.065 66.063c-36.487 0-66.064-29.575-66.064-66.063s29.578-66.066 66.064-66.066zM759.749 860.895c-52.264 0-103.355-15.499-146.812-44.536s-77.327-70.309-97.328-118.595c-20.001-48.287-25.234-101.42-15.038-152.681s35.365-98.346 72.32-135.305c36.959-36.955 84.045-62.124 135.307-72.32 51.259-10.196 104.393-4.963 152.678 15.038 48.289 20.001 89.56 53.87 118.597 97.328s44.533 94.548 44.533 146.814c0 70.085-27.838 137.3-77.396 186.858-49.562 49.558-116.776 77.399-186.862 77.399zM891.878 563.605h-99.094v-99.098h-66.066v99.098h-99.098v66.064h99.098v99.097h66.066v-99.097h99.094z" />
<glyph unicode="&#xe91c;" glyph-name="plus-rounded" d="M512 874.7c-235.648 0-426.7-191.052-426.7-426.7 0-235.646 191.052-426.7 426.7-426.7 235.645 0 426.6 191.054 426.6 426.7 0 235.648-190.955 426.7-426.6 426.7zM469.3 661.3h85.3v-170.6h170.7v-85.4h-170.7v-170.6h-85.3v170.6h-170.7v85.4h170.7v170.6z" />
<glyph unicode="&#xe91d;" glyph-name="geo" d="M511.979 874.656c-166.4 0-298.666-132.266-298.666-298.666 0-256.003 298.666-554.665 298.666-554.665s298.664 302.931 298.664 554.665c0 166.4-132.262 298.666-298.664 298.666zM383.979 703.99h256c23.464 0 42.664-19.2 42.664-42.667v-213.333c0-23.467-19.2-42.667-42.664-42.667h-256c-23.466 0-42.666 19.2-42.666 42.667v213.333c0 23.467 19.2 42.667 42.666 42.667zM469.313 618.656c-5.654 0.080-11.267-0.964-16.514-3.073s-10.022-5.238-14.049-9.208c-4.026-3.97-7.224-8.7-9.406-13.917s-3.306-10.814-3.306-16.468c0-5.654 1.124-11.252 3.306-16.469s5.38-9.947 9.406-13.917c4.027-3.97 8.802-7.1 14.049-9.208s10.86-3.153 16.514-3.073h85.333c5.654-0.080 11.267 0.964 16.514 3.073s10.022 5.238 14.049 9.208c4.026 3.97 7.224 8.701 9.405 13.917s3.306 10.815 3.306 16.469c0 5.654-1.124 11.252-3.306 16.468s-5.379 9.947-9.405 13.917c-4.027 3.97-8.802 7.1-14.049 9.208s-10.86 3.153-16.514 3.073h-85.333z" />
<glyph unicode="&#xe91e;" glyph-name="gift" d="M341.317 789.325c-56.4 0-102.4-46-102.4-102.4 0-12 2.533-23.466 6.4-34.133h-6.4c-37.733 0-68.266-30.534-68.266-68.267v-136.535h307.2v204.802h68.264v-204.802h307.2v136.535c0 37.733-30.531 68.267-68.265 68.267h-6.4c3.866 10.666 6.4 22.133 6.4 34.133 0 56.4-45.998 102.4-102.4 102.4-48.399 0-95.201-32.933-131.2-68.266h-78.933c-36 35.333-82.8 68.266-131.2 68.266zM341.317 721.058c30.8 0 69.6-32.667 101.334-68.266h-101.334c-18.8 0-34.134 15.333-34.134 34.133s15.333 34.134 34.134 34.134zM682.65 721.058c18.801 0 34.135-15.333 34.135-34.134s-15.334-34.133-34.135-34.133h-101.335c30.802 34.533 70.267 68.266 101.335 68.266zM170.65 379.725v-204.8c0-37.734 30.533-68.265 68.266-68.265h238.934v273.065h-307.2zM546.115 379.725v-273.065h238.935c37.734 0 68.265 30.531 68.265 68.265v204.8h-307.2z" />
<glyph unicode="&#xe91f;" glyph-name="sale" d="M512.056 891.725c-16.254 0-32.542-7.928-42.065-23.8l-18.533-30.934c-7.987-13.312-21.116-22.304-36.067-26.4-0.17-0.034-0.362-0.099-0.533-0.134-15.121-4.164-31.145-2.878-44.867 4.733l-31.6 17.467c-32.358 17.988-72.186-5-72.8-42l-0.6-36.534c-0.273-15.462-7.144-29.811-18.066-40.733l-0.333-0.333c-10.923-10.957-25.271-17.828-40.734-18.066l-36.467-0.6c-37.034-0.649-60.055-40.442-42.066-72.8l17.533-31.667c7.543-13.619 8.797-29.581 4.666-44.6-0.068-0.273-0.164-0.527-0.266-0.8-4.062-14.848-12.924-27.948-26.134-35.867l-31.067-18.6c-31.744-19.046-31.744-65.052 0-84.068l31.067-18.601c13.21-7.916 22.106-21.018 26.134-35.866 0.068-0.271 0.164-0.527 0.266-0.799 4.13-15.017 2.877-30.981-4.666-44.6l-17.533-31.734c-17.954-32.358 5.066-72.187 42.066-72.801l36.467-0.599c15.462-0.271 29.811-7.142 40.734-18.063l0.333-0.338c10.957-10.921 17.828-25.267 18.066-40.73l0.6-36.47c0.614-36.997 40.442-60.022 72.8-42.066l31.667 17.603c13.585 7.542 29.581 8.796 44.6 4.664 0.273-0.067 0.527-0.164 0.8-0.266 14.848-4.060 27.948-12.989 35.867-26.199l18.6-31.002c19.046-31.744 65.018-31.744 84.064 0l18.601 31.002c7.921 13.21 20.951 22.17 35.799 26.199 0.276 0.067 0.594 0.164 0.87 0.266 14.981 4.132 30.915 2.877 44.534-4.664l31.667-17.603c32.358-17.956 72.182 5.069 72.796 42.066l0.599 36.47c0.276 15.462 7.148 29.809 18.068 40.73l0.333 0.338c10.926 10.957 25.272 17.828 40.735 18.063l36.531 0.599c37.002 0.614 60.022 40.443 42.071 72.801l-17.603 31.667c-7.542 13.619-8.796 29.583-4.664 44.6 0.067 0.271 0.164 0.527 0.266 0.799 4.060 14.848 12.989 27.95 26.199 35.866l31.002 18.601c31.846 19.046 31.841 65.088 0.133 84.134l-31.002 18.6c-13.21 7.919-22.175 20.952-26.199 35.8-0.072 0.273-0.164 0.594-0.266 0.867-4.132 14.985-2.877 30.914 4.664 44.533l17.603 31.667c17.951 32.358-5.069 72.186-42.071 72.8l-36.531 0.6c-15.462 0.273-29.809 7.144-40.735 18.067l-0.333 0.333c-10.957 10.922-17.828 25.271-18.068 40.733l-0.599 36.533c-0.645 37.069-40.438 60.055-72.796 42.067l-31.667-17.533c-13.588-7.543-29.583-8.797-44.6-4.667-0.276 0.069-0.527 0.164-0.804 0.267-14.848 4.062-27.945 12.924-35.866 26.134l-18.601 31.067c-9.523 15.872-25.743 23.8-41.999 23.8zM395.924 637.925c53.692 0 88.734-36.872 88.734-93.533 0-56.422-35.042-93.533-88.734-93.533-53.384 0-88.733 37.111-88.733 93.533s35.11 93.533 88.733 93.533zM588.989 628.858h83.4l-138.132-190.735-96.732-170.998h-83.733l135.933 189.799 99.265 171.933zM395.924 583.992c-15.291 0-24.533-14.585-24.533-39.4 0-24.576 9.242-39.333 24.533-39.333 15.053 0 24.333 14.791 24.333 39.333 0 25.054-8.769 39.4-24.333 39.4zM628.326 445.123c53.381 0 88.463-36.874 88.463-93.266 0-56.694-35.082-93.732-88.463-93.732-53.386 0-88.468 37.074-88.468 93.732 0 56.392 35.082 93.266 88.468 93.266zM628.326 391.194c-15.293 0-24.602-14.52-24.602-39.337 0-24.576 9.308-39.398 24.602-39.398 15.053 0 24.264 14.822 24.264 39.398 0 25.088-9.006 39.337-24.264 39.337z" />
<glyph unicode="&#xe920;" glyph-name="logout" d="M400 480h371.2l-108.8 108.8 45.865 45.866 187.735-187.731-185.6-185.6-45.865 45.865 108.8 108.8h-373.335v64zM502.4 832v-64h-310.4v-640h310.4v-64h-310.4c-17.066 0-32 6.4-44.8 19.2s-19.2 27.735-19.2 44.8v640c0 17.066 6.4 32 19.2 44.8s27.734 19.2 44.8 19.2h310.4z" />
<glyph unicode="&#xe921;" glyph-name="edit" horiz-adv-x="967" d="M181.333 145.783h44.326l488.592 488.591-44.328 44.326-488.59-488.595v-44.322zM120.889 85.339v128.944l592.356 592.358c11.418 11.417 25.691 16.958 42.815 16.622s31.397-6.212 42.815-17.63l43.321-43.319c11.418-11.417 17.124-25.521 17.124-42.311s-5.706-30.894-17.124-42.311l-592.357-592.354h-128.948zM795.853 721.011v0zM714.251 634.374v0z" />
<glyph unicode="&#xe922;" glyph-name="select-arrow" d="M512 321.011l-414.885 414.884-80.453-80.453 495.338-495.337 495.338 495.337-80.452 80.453z" />
<glyph unicode="&#xe923;" glyph-name="stadium" d="M938.502 634.792c0 85.163-73.798 154.583-164.25 154.583h-219.753v-144.583c97.283-18.475 170.665-99.555 170.665-196.75s-73.382-178.275-170.665-196.752v-144.582h219.753c90.451 0 164.25 69.421 164.25 154.586v373.499zM639.834 448.042c0 33.948-13.486 66.505-37.491 90.51s-56.562 37.49-90.509 37.49c-33.948 0-66.506-13.485-90.51-37.49s-37.49-56.563-37.49-90.51c0-33.948 13.485-66.505 37.49-90.509s56.562-37.491 90.51-37.491c33.948 0 66.505 13.485 90.509 37.491s37.491 56.562 37.491 90.509zM469.167 789.375h-219.75c-90.453 0-164.25-69.42-164.25-154.583v-373.499c0-85.12 73.796-154.586 164.25-154.586h219.75v144.582c-97.28 18.477-170.667 99.558-170.667 196.752s73.387 178.275 170.667 196.75v144.583z" />
<glyph unicode="&#xe924;" glyph-name="link-arrow" d="M542.344 864.083l-120.667-120.667 207.833-207.833h-561.333v-170.667h561.333l-212.333-212.333 120.667-120.667 417.979 418.333-59.979 60.333z" />
<glyph unicode="&#xe925;" glyph-name="link-arrow-light" d="M545.952 882.722l-80.444-80.444 294.889-294.778h-713.556v-113.778h713.556l-299.889-300 80.444-80.444 397 397.111 39.208 40.222-39.208 40.222z" />
<glyph unicode="&#xe926;" glyph-name="no-photo" d="M512 947.2c-275.255 0-499.2-223.945-499.2-499.2s223.945-499.2 499.2-499.2c275.255 0 499.2 223.945 499.2 499.2s-223.945 499.2-499.2 499.2zM96 448c0 99.744 35.344 191.346 94.085 263.090l68.653-68.654c-22.78-14.856-37.939-40.461-37.939-69.638v-291.198c0-45.885 37.334-83.2 83.2-83.2h398.775l72.315-72.315c-71.745-58.74-163.345-94.085-263.089-94.085-229.389 0-416 186.61-416 416zM646.636 372.19l-33.065 33.065c1.529 7.089 2.43 14.404 2.43 21.944 0 57.344-46.64 104.001-104.001 104.001-7.54 0-14.855-0.898-21.944-2.43l-33.068 33.065c17.002 6.973 35.533 10.964 55.013 10.964 80.275 0 145.599-65.324 145.599-145.599 0-19.48-3.99-38.011-10.964-55.009zM422.291 478.884c-8.841-15.292-14.292-32.785-14.292-51.685 0-57.341 46.64-103.997 104.001-103.997 18.9 0 36.396 5.448 51.681 14.292l30.392-30.392c-23.395-16.039-51.633-25.501-82.074-25.501-80.275 0-145.599 65.324-145.599 145.599 0 30.44 9.462 58.679 25.501 82.074l30.389-30.389zM833.915 184.911l-47.322 47.322c10.298 13.848 16.606 30.819 16.606 49.367v291.198c0 45.887-37.332 83.202-83.197 83.202h-95.389l-29.413 29.412c-7.84 7.861-18.323 12.188-29.413 12.188h-107.575c-11.090 0-21.572-4.326-29.413-12.188l-29.413-29.412h-36.564l-113.914 113.915c71.744 58.741 163.346 94.085 263.090 94.085 229.39 0 416-186.611 416-416 0-99.744-35.345-191.345-94.085-263.089z" />
<glyph unicode="&#xe927;" glyph-name="t" horiz-adv-x="1143" d="M1142.857 778.394l-101.102 181.606h-1039.558l101.099-181.606h705.494v-96.273h-808.791l59.341-107.214v-638.907h217.583v562.325h158.242v-562.325h217.582v562.325h158.242v-562.325h217.583v842.394h114.286z" />
</font>
</defs>
</svg>
