<svg width="294" height="66" viewBox="0 0 294 66" fill="none" xmlns="http://www.w3.org/2000/svg"><path fill="#0C1931" d="M0 35h268v29H0z"/><path d="M10.84 45.36h1.446v3.636h4.092V45.36h1.44V54h-1.44v-3.648h-4.092V54H10.84v-8.64zM25.116 54H23.73v-4.23L20.646 54h-1.158v-6.48h1.386v4.122l3.096-4.122h1.146V54zm3.34-3.24l-2.231-3.24h1.584l2.106 3.138V47.52h1.284v3.138l2.106-3.138h1.578l-2.232 3.24L35.027 54h-1.668l-2.16-3.138V54h-1.284v-3.138L27.749 54H26.08l2.376-3.24zm7.52-3.24h1.446v2.556h2.91V47.52h1.446V54h-1.446v-2.568h-2.91V54h-1.446v-6.48zM49.07 54h-1.386v-4.23L44.6 54h-1.158v-6.48h1.386v4.122l3.096-4.122h1.146V54zm7.301 0h-1.386v-4.23L51.9 54h-1.158v-6.48h1.386v4.122l3.096-4.122h1.146V54zm-2.622-7.212a1.807 1.807 0 01-1.818-1.818h1.128c0 .128.03.244.09.348a.759.759 0 00.252.252c.104.06.22.09.348.09.128 0 .244-.03.348-.09a.707.707 0 00.246-.252.65.65 0 00.096-.348h1.128c0 .328-.082.632-.246.912a1.787 1.787 0 01-1.572.906zm6.71-1.428h1.445v3.636h4.092V45.36h1.44V54h-1.44v-3.648h-4.092V54h-1.446v-8.64zm11.521 8.82c-.64 0-1.204-.144-1.692-.432a2.986 2.986 0 01-1.134-1.212c-.264-.52-.396-1.112-.396-1.776 0-.672.134-1.266.402-1.782.272-.52.652-.922 1.14-1.206.492-.288 1.052-.432 1.68-.432.644 0 1.21.146 1.698.438.488.288.866.692 1.134 1.212.268.516.402 1.106.402 1.77 0 .668-.136 1.262-.408 1.782a2.946 2.946 0 01-1.134 1.206c-.488.288-1.052.432-1.692.432zm0-1.356c.372 0 .686-.086.942-.258a1.53 1.53 0 00.57-.72c.128-.312.192-.674.192-1.086 0-.644-.146-1.148-.438-1.512-.292-.368-.714-.552-1.266-.552-.38 0-.696.086-.948.258-.252.168-.44.406-.564.714-.12.308-.18.672-.18 1.092 0 .424.064.792.192 1.104.128.308.318.546.57.714.252.164.562.246.93.246zm4.544-5.304h2.946c.42 0 .776.042 1.068.126.344.104.628.294.852.57.224.276.336.632.336 1.068 0 .26-.042.482-.126.666a1.335 1.335 0 01-.78.702c.156.024.304.07.444.138.24.116.43.284.57.504.14.22.21.51.21.87 0 .44-.106.808-.318 1.104-.212.296-.518.502-.918.618-.14.04-.304.07-.492.09-.188.016-.39.024-.606.024h-3.186v-6.48zm3.084 5.364c.088 0 .18-.008.276-.024.1-.016.19-.038.27-.066a.538.538 0 00.306-.264.854.854 0 00.108-.426.712.712 0 00-.138-.456.724.724 0 00-.36-.252c-.108-.044-.272-.066-.492-.066h-1.59v1.554h1.62zm-.42-2.688c.132 0 .256-.006.372-.018a.996.996 0 00.288-.078.554.554 0 00.282-.258.837.837 0 00.102-.42.821.821 0 00-.114-.438.538.538 0 00-.324-.258c-.136-.048-.348-.072-.636-.072h-1.17v1.542h1.2zm4.063-2.676h4.62v1.356h-3.174V54H83.25v-6.48zm8.51 6.66c-.64 0-1.203-.144-1.691-.432a2.986 2.986 0 01-1.134-1.212c-.264-.52-.396-1.112-.396-1.776 0-.672.134-1.266.402-1.782.272-.52.652-.922 1.14-1.206.492-.288 1.052-.432 1.68-.432.644 0 1.21.146 1.698.438.488.288.866.692 1.134 1.212.268.516.402 1.106.402 1.77 0 .668-.136 1.262-.408 1.782a2.946 2.946 0 01-1.134 1.206c-.488.288-1.052.432-1.692.432zm0-1.356c.373 0 .687-.086.943-.258a1.53 1.53 0 00.57-.72c.128-.312.192-.674.192-1.086 0-.644-.146-1.148-.438-1.512-.292-.368-.714-.552-1.266-.552-.38 0-.696.086-.948.258-.252.168-.44.406-.564.714-.12.308-.18.672-.18 1.092 0 .424.064.792.192 1.104.128.308.318.546.57.714.252.164.562.246.93.246zm7.67 1.356c-.615 0-1.14-.148-1.571-.444a2.74 2.74 0 01-.978-1.218c-.22-.516-.33-1.102-.33-1.758 0-.66.108-1.248.324-1.764.22-.516.542-.92.966-1.212.424-.296.936-.444 1.536-.444s1.128.148 1.584.444c.456.292.808.698 1.056 1.218.248.516.372 1.102.372 1.758a4.06 4.06 0 01-.366 1.746c-.244.52-.592.93-1.044 1.23-.448.296-.964.444-1.548.444zm-3.125-6.66h1.278v4.548h.18v4.812h-1.458v-9.36zm2.904 5.364c.364 0 .67-.092.918-.276.248-.184.432-.436.552-.756.12-.32.18-.684.18-1.092 0-.404-.062-.766-.186-1.086a1.63 1.63 0 00-.57-.756c-.252-.188-.566-.282-.942-.282-.36 0-.658.088-.894.264a1.545 1.545 0 00-.516.738c-.112.316-.168.69-.168 1.122 0 .432.056.808.168 1.128.116.316.294.562.534.738.24.172.548.258.924.258zm7.364 1.296c-.64 0-1.204-.144-1.692-.432a2.986 2.986 0 01-1.134-1.212c-.264-.52-.396-1.112-.396-1.776 0-.672.134-1.266.402-1.782.272-.52.652-.922 1.14-1.206.492-.288 1.052-.432 1.68-.432.644 0 1.21.146 1.698.438.488.288.866.692 1.134 1.212.268.516.402 1.106.402 1.77 0 .668-.136 1.262-.408 1.782a2.946 2.946 0 01-1.134 1.206c-.488.288-1.052.432-1.692.432zm0-1.356c.372 0 .686-.086.942-.258a1.53 1.53 0 00.57-.72c.128-.312.192-.674.192-1.086 0-.644-.146-1.148-.438-1.512-.292-.368-.714-.552-1.266-.552-.38 0-.696.086-.948.258-.252.168-.44.406-.564.714-.12.308-.18.672-.18 1.092 0 .424.064.792.192 1.104.128.308.318.546.57.714.252.164.562.246.93.246zm4.076.042c.236 0 .422-.05.558-.15.136-.104.246-.27.33-.498.084-.228.156-.548.216-.96.072-.488.13-1.022.174-1.602.048-.584.09-1.296.126-2.136h4.824v5.346h.654v2.574h-1.368V54h-4.152v1.44h-1.362v-2.574zm4.788 0v-4.212h-2.118a54.18 54.18 0 01-.102 1.512c-.04.484-.084.92-.132 1.308a4.816 4.816 0 01-.174.858 1.381 1.381 0 01-.324.534h2.85zm3.262 2.04a.665.665 0 00.39-.072.496.496 0 00.234-.252.909.909 0 00.072-.408l-.012-.084V54h-.768v-1.542h1.482v1.602c0 .352-.056.646-.168.882a.995.995 0 01-.504.51c-.22.104-.49.13-.81.078l.084-.624zm6.07-7.386h5.628V54h-1.446v-5.124h-2.736V54h-1.446v-6.48zm10.427 6.66c-.616 0-1.14-.148-1.572-.444a2.74 2.74 0 01-.978-1.218c-.22-.516-.33-1.102-.33-1.758 0-.66.108-1.248.324-1.764.22-.516.542-.92.966-1.212.424-.296.936-.444 1.536-.444s1.128.148 1.584.444c.456.292.808.698 1.056 1.218.248.516.372 1.102.372 1.758a4.06 4.06 0 01-.366 1.746c-.244.52-.592.93-1.044 1.23-.448.296-.964.444-1.548.444zm-3.126-6.66h1.278v4.548h.18v4.812h-1.458v-9.36zm2.904 5.364c.364 0 .67-.092.918-.276.248-.184.432-.436.552-.756.12-.32.18-.684.18-1.092 0-.404-.062-.766-.186-1.086a1.63 1.63 0 00-.57-.756c-.252-.188-.566-.282-.942-.282-.36 0-.658.088-.894.264a1.545 1.545 0 00-.516.738c-.112.316-.168.69-.168 1.122 0 .432.056.808.168 1.128.116.316.294.562.534.738.24.172.548.258.924.258zm4.383-3.234h3.6v1.134h-3.6V49.65zm6.785-.846h-2.166V47.52h5.778v1.284h-2.166V54h-1.446v-5.196zm4.028 3.714h1.482V54h-1.482v-1.482zm5.807-7.158h5.58v1.356h-4.134V54h-1.446v-8.64zm7.507 8.82c-.452 0-.842-.086-1.17-.258a1.86 1.86 0 01-.75-.708c-.168-.3-.252-.63-.252-.99 0-.48.118-.88.354-1.2.24-.32.614-.566 1.122-.738.292-.1.638-.184 1.038-.252.404-.072.976-.16 1.716-.264.2-.032.396-.062.588-.09l-.516.294c0-.304-.044-.552-.132-.744a.85.85 0 00-.426-.426c-.196-.092-.454-.138-.774-.138a1.74 1.74 0 00-.876.222c-.26.144-.44.372-.54.684l-1.32-.414a2.368 2.368 0 01.936-1.332c.46-.324 1.06-.486 1.8-.486.604 0 1.12.098 1.548.294.428.196.744.5.948.912.108.208.176.424.204.648.028.22.042.496.042.828V54h-1.266v-1.404l.21.228c-.2.316-.418.574-.654.774a2.317 2.317 0 01-.798.438c-.3.096-.644.144-1.032.144zm.288-1.152c.308 0 .578-.054.81-.162.236-.112.424-.25.564-.414.144-.164.244-.33.3-.498.06-.144.098-.308.114-.492.02-.184.03-.384.03-.6v-.12l.444.132-.522.084c-.54.084-.956.154-1.248.21a6.215 6.215 0 00-.75.186c-.26.096-.456.212-.588.348a.683.683 0 00-.198.504c0 .16.04.302.12.426.08.124.198.222.354.294.156.068.346.102.57.102zm4.814-5.508h4.62v1.356h-3.174V54h-1.446v-6.48zm7.425 6.66c-.452 0-.842-.086-1.17-.258a1.86 1.86 0 01-.75-.708c-.168-.3-.252-.63-.252-.99 0-.48.118-.88.354-1.2.24-.32.614-.566 1.122-.738.292-.1.638-.184 1.038-.252.404-.072.976-.16 1.716-.264.2-.032.396-.062.588-.09l-.516.294c0-.304-.044-.552-.132-.744a.85.85 0 00-.426-.426c-.196-.092-.454-.138-.774-.138a1.74 1.74 0 00-.876.222c-.26.144-.44.372-.54.684l-1.32-.414a2.368 2.368 0 01.936-1.332c.46-.324 1.06-.486 1.8-.486.604 0 1.12.098 1.548.294.428.196.744.5.948.912.108.208.176.424.204.648.028.22.042.496.042.828V54h-1.266v-1.404l.21.228c-.2.316-.418.574-.654.774a2.317 2.317 0 01-.798.438c-.3.096-.644.144-1.032.144zm.288-1.152c.308 0 .578-.054.81-.162.236-.112.424-.25.564-.414.144-.164.244-.33.3-.498.06-.144.098-.308.114-.492.02-.184.03-.384.03-.6v-.12l.444.132-.522.084c-.54.084-.956.154-1.248.21a6.215 6.215 0 00-.75.186c-.26.096-.456.212-.588.348a.683.683 0 00-.198.504c0 .16.04.302.12.426.08.124.198.222.354.294.156.068.346.102.57.102zm7.928 1.152c-.616 0-1.14-.148-1.572-.444a2.74 2.74 0 01-.978-1.218c-.22-.516-.33-1.102-.33-1.758 0-.66.108-1.248.324-1.764.22-.516.542-.92.966-1.212.424-.296.936-.444 1.536-.444s1.128.148 1.584.444c.456.292.808.698 1.056 1.218.248.516.372 1.102.372 1.758a4.06 4.06 0 01-.366 1.746c-.244.52-.592.93-1.044 1.23-.448.296-.964.444-1.548.444zm-3.126-6.66h1.278v4.548h.18v4.812h-1.458v-9.36zm2.904 5.364c.364 0 .67-.092.918-.276.248-.184.432-.436.552-.756.12-.32.18-.684.18-1.092 0-.404-.062-.766-.186-1.086a1.63 1.63 0 00-.57-.756c-.252-.188-.566-.282-.942-.282-.36 0-.658.088-.894.264a1.545 1.545 0 00-.516.738c-.112.316-.168.69-.168 1.122 0 .432.056.808.168 1.128.116.316.294.562.534.738.24.172.548.258.924.258zM194.124 54h-1.386v-4.23L189.654 54h-1.158v-6.48h1.386v4.122l3.096-4.122h1.146V54zm1.673-6.48h1.446v2.556h2.91V47.52h1.446V54h-1.446v-2.568h-2.91V54h-1.446v-6.48zm9.289 6.66c-.452 0-.842-.086-1.17-.258a1.86 1.86 0 01-.75-.708c-.168-.3-.252-.63-.252-.99 0-.48.118-.88.354-1.2.24-.32.614-.566 1.122-.738.292-.1.638-.184 1.038-.252.404-.072.976-.16 1.716-.264.2-.032.396-.062.588-.09l-.516.294c0-.304-.044-.552-.132-.744a.85.85 0 00-.426-.426c-.196-.092-.454-.138-.774-.138a1.74 1.74 0 00-.876.222c-.26.144-.44.372-.54.684l-1.32-.414a2.368 2.368 0 01.936-1.332c.46-.324 1.06-.486 1.8-.486.604 0 1.12.098 1.548.294.428.196.744.5.948.912.108.208.176.424.204.648.028.22.042.496.042.828V54h-1.266v-1.404l.21.228c-.2.316-.418.574-.654.774a2.317 2.317 0 01-.798.438c-.3.096-.644.144-1.032.144zm.288-1.152c.308 0 .578-.054.81-.162.236-.112.424-.25.564-.414.144-.164.244-.33.3-.498.06-.144.098-.308.114-.492.02-.184.03-.384.03-.6v-.12l.444.132-.522.084c-.54.084-.956.154-1.248.21a6.215 6.215 0 00-.75.186c-.26.096-.456.212-.588.348a.683.683 0 00-.198.504c0 .16.04.302.12.426.08.124.198.222.354.294.156.068.346.102.57.102zm4.778 1.878a.665.665 0 00.39-.072.496.496 0 00.234-.252.909.909 0 00.072-.408l-.012-.084V54h-.768v-1.542h1.482v1.602c0 .352-.056.646-.168.882a.995.995 0 01-.504.51c-.22.104-.49.13-.81.078l.084-.624zm5.843-2.178l3.696-3.294c.276-.244.472-.478.588-.702.12-.228.18-.456.18-.684a1.56 1.56 0 00-.186-.768 1.34 1.34 0 00-.516-.54 1.43 1.43 0 00-.75-.198c-.292 0-.556.068-.792.204-.232.136-.412.32-.54.552a1.394 1.394 0 00-.18.738h-1.488c0-.568.128-1.068.384-1.5a2.607 2.607 0 011.068-1.002c.46-.236.986-.354 1.578-.354.548 0 1.042.124 1.482.372.444.244.792.586 1.044 1.026.252.436.378.932.378 1.488 0 .396-.054.732-.162 1.008-.104.272-.25.516-.438.732a9.048 9.048 0 01-.864.828l-.03.03-2.622 2.322-.132-.36h4.248v1.362h-5.946v-1.26zm10.178-7.536c.56 0 1.066.134 1.518.402.456.264.814.636 1.074 1.116.264.476.396 1.014.396 1.614v2.628c0 .648-.132 1.216-.396 1.704-.26.488-.628.864-1.104 1.128-.476.264-1.026.396-1.65.396-.452 0-.872-.076-1.26-.228a2.923 2.923 0 01-1.026-.69l1.044-1.014c.156.18.342.322.558.426.22.104.448.156.684.156a1.638 1.638 0 001.464-.852c.14-.256.21-.532.21-.828v-1.434l.264.288a2.565 2.565 0 01-.894.678c-.344.16-.708.24-1.092.24a2.802 2.802 0 01-1.434-.366 2.678 2.678 0 01-.99-1.014 2.939 2.939 0 01-.36-1.452c0-.528.136-1.014.408-1.458a2.957 2.957 0 011.092-1.05c.46-.26.958-.39 1.494-.39zm0 1.386c-.276 0-.532.068-.768.204a1.48 1.48 0 00-.762 1.308c0 .276.068.532.204.768.136.232.32.418.552.558.232.136.486.204.762.204s.53-.068.762-.204c.236-.14.422-.326.558-.558a1.512 1.512 0 000-1.518 1.476 1.476 0 00-.546-.552 1.447 1.447 0 00-.762-.21z" fill="#F4F6FA"/><path d="M268 63l24-11.838V2h-48v49.162L268 63z" fill="#C8102E"/><path fill-rule="evenodd" clip-rule="evenodd" d="M268 65.23l26-12.825V0h-52v52.406l26 12.824zm-22-15.312V4h44v45.918L268 60.77l-22-10.852z" fill="#F4F6FA"/><path d="M278.8 20.73l-1.805-3.181h-18.556l1.805 3.182h12.593v1.687H258.4l1.059 1.878V35.49h3.884v-9.852h2.825v9.852h3.884v-9.852h2.824v9.852h3.884V20.73h2.04z" fill="#F4F6FA"/></svg>