<svg width="326" height="79" viewBox="0 0 326 79" fill="none" xmlns="http://www.w3.org/2000/svg"><path fill="#0C1931" d="M0 44h294v35H0z"/><path d="M12.91 56.64h1.566v3.939h4.434V56.64h1.56V66h-1.56v-3.952h-4.434V66H12.91v-9.36zM28.376 66h-1.502v-4.583L23.534 66h-1.255v-7.02h1.501v4.466l3.354-4.466h1.242V66zm3.619-3.51l-2.418-3.51h1.716l2.282 3.4v-3.4h1.39v3.4l2.282-3.4h1.71l-2.419 3.51L39.114 66h-1.807l-2.34-3.4V66h-1.392v-3.4L31.229 66h-1.807l2.574-3.51zm8.146-3.51h1.567v2.769h3.152V58.98h1.567V66H44.86v-2.782h-3.152V66H40.14v-7.02zM54.325 66h-1.501v-4.583L49.483 66h-1.255v-7.02h1.502v4.466l3.354-4.466h1.241V66zm7.91 0h-1.502v-4.583L57.392 66h-1.255v-7.02h1.502v4.466l3.354-4.466h1.241V66zm-2.841-7.813a1.958 1.958 0 01-1.97-1.97h1.222a.74.74 0 00.098.377.82.82 0 00.273.273.741.741 0 00.377.098.74.74 0 00.377-.098.765.765 0 00.266-.273.704.704 0 00.104-.377h1.222c0 .356-.089.685-.266.989a1.936 1.936 0 01-1.703.981zm7.268-1.547h1.566v3.939h4.434V56.64h1.56V66h-1.56v-3.952h-4.434V66h-1.566v-9.36zm12.482 9.555c-.693 0-1.304-.156-1.833-.468a3.234 3.234 0 01-1.228-1.313c-.286-.563-.43-1.205-.43-1.924 0-.728.146-1.372.436-1.93a3.182 3.182 0 011.235-1.307c.533-.312 1.14-.468 1.82-.468.698 0 1.311.158 1.84.475.529.312.938.75 1.228 1.313.29.559.436 1.198.436 1.917 0 .724-.147 1.367-.442 1.93-.29.56-.7.995-1.229 1.307-.528.312-1.14.468-1.833.468zm0-1.469c.403 0 .743-.093 1.02-.28a1.65 1.65 0 00.618-.78c.139-.337.208-.73.208-1.176 0-.698-.158-1.244-.474-1.638-.317-.399-.774-.598-1.372-.598-.411 0-.754.093-1.027.28-.273.181-.476.44-.61.773-.13.334-.196.728-.196 1.183 0 .46.07.858.208 1.196.139.334.345.592.618.774.273.177.609.266 1.007.266zm4.923-5.746h3.191c.455 0 .841.046 1.157.137.373.112.68.318.923.617s.364.685.364 1.157c0 .282-.045.522-.136.721a1.446 1.446 0 01-.845.761c.169.026.33.076.48.15.26.125.467.307.618.545.152.239.228.553.228.943 0 .477-.115.875-.345 1.196-.23.32-.56.544-.994.67-.152.043-.33.075-.533.097a7.777 7.777 0 01-.657.026h-3.451v-7.02zm3.34 5.811a1.863 1.863 0 00.592-.098.583.583 0 00.332-.285.925.925 0 00.117-.462.771.771 0 00-.15-.494.783.783 0 00-.39-.273c-.117-.048-.294-.072-.533-.072h-1.722v1.684h1.755zm-.454-2.912c.143 0 .277-.006.403-.02.126-.017.23-.045.312-.084a.6.6 0 00.305-.28.907.907 0 00.11-.454.89.89 0 00-.123-.475.583.583 0 00-.35-.28c-.148-.052-.378-.078-.69-.078h-1.267v1.671h1.3zm4.401-2.899h5.005v1.469h-3.438V66h-1.567v-7.02zm9.22 7.215c-.693 0-1.304-.156-1.833-.468a3.234 3.234 0 01-1.228-1.313c-.287-.563-.43-1.205-.43-1.924 0-.728.146-1.372.436-1.93a3.181 3.181 0 011.235-1.307c.533-.312 1.14-.468 1.82-.468.698 0 1.311.158 1.839.475.529.312.939.75 1.229 1.313.29.559.435 1.198.435 1.917 0 .724-.147 1.367-.442 1.93a3.18 3.18 0 01-1.228 1.307c-.529.312-1.14.468-1.833.468zm0-1.469c.403 0 .743-.093 1.02-.28a1.65 1.65 0 00.618-.78c.139-.337.208-.73.208-1.176 0-.698-.158-1.244-.475-1.638-.316-.399-.773-.598-1.371-.598-.412 0-.754.093-1.027.28-.273.181-.477.44-.611.773-.13.334-.195.728-.195 1.183 0 .46.07.858.208 1.196.139.334.344.592.618.774.273.177.608.266 1.007.266zm8.309 1.469c-.667 0-1.235-.16-1.703-.481a2.965 2.965 0 01-1.059-1.32c-.239-.559-.358-1.193-.358-1.904 0-.715.117-1.352.351-1.911.238-.559.587-.997 1.047-1.313.459-.32 1.014-.481 1.664-.481.65 0 1.222.16 1.716.481a3.12 3.12 0 011.144 1.32c.268.559.403 1.193.403 1.904 0 .698-.133 1.328-.397 1.892a3.18 3.18 0 01-1.131 1.332c-.485.32-1.044.481-1.677.481zm-3.386-7.215h1.384v4.927h.195v5.213h-1.579V58.98zm3.146 5.811c.394 0 .725-.1.994-.299.269-.2.468-.472.598-.819.13-.347.195-.741.195-1.183 0-.438-.067-.83-.201-1.177a1.773 1.773 0 00-.618-.819c-.273-.203-.613-.305-1.02-.305-.39 0-.713.095-.969.286-.251.19-.438.457-.559.8-.121.342-.182.747-.182 1.215 0 .468.061.875.182 1.222.126.342.319.609.579.8.26.186.593.279 1.001.279zm7.978 1.404c-.693 0-1.304-.156-1.833-.468a3.238 3.238 0 01-1.229-1.313c-.286-.563-.429-1.205-.429-1.924 0-.728.146-1.372.436-1.93a3.182 3.182 0 011.235-1.307c.533-.312 1.14-.468 1.82-.468.698 0 1.311.158 1.839.475.529.312.939.75 1.229 1.313.29.559.435 1.198.435 1.917 0 .724-.147 1.367-.442 1.93a3.18 3.18 0 01-1.228 1.307c-.529.312-1.14.468-1.833.468zm0-1.469c.403 0 .743-.093 1.02-.28a1.65 1.65 0 00.618-.78c.139-.337.208-.73.208-1.176 0-.698-.158-1.244-.475-1.638-.316-.399-.773-.598-1.371-.598-.412 0-.754.093-1.027.28-.273.181-.477.44-.611.773-.13.334-.195.728-.195 1.183 0 .46.069.858.208 1.196.139.334.344.592.617.774.273.177.609.266 1.008.266zm4.415.046c.256 0 .458-.055.605-.163.147-.113.266-.292.357-.54.091-.247.169-.593.234-1.04a24.94 24.94 0 00.189-1.735c.052-.633.097-1.404.136-2.314h5.226v5.792h.709v2.788h-1.482V66h-4.498v1.56h-1.476v-2.788zm5.187 0v-4.564h-2.294c-.03.564-.067 1.11-.111 1.639-.043.524-.091.996-.143 1.416a5.194 5.194 0 01-.188.93 1.505 1.505 0 01-.351.579h3.087zm3.534 2.21a.718.718 0 00.422-.079.538.538 0 00.254-.273.994.994 0 00.078-.441l-.013-.091V66h-.832v-1.67h1.605v1.735c0 .381-.06.7-.182.956-.121.26-.303.444-.546.552-.238.113-.531.14-.877.085l.091-.677zm6.577-8.002h6.097V66h-1.567v-5.551H137.9V66h-1.566v-7.02zm11.295 7.215c-.667 0-1.235-.16-1.703-.481a2.965 2.965 0 01-1.059-1.32c-.239-.559-.358-1.193-.358-1.904 0-.715.117-1.352.351-1.911.239-.559.587-.997 1.047-1.313.459-.32 1.014-.481 1.664-.481.65 0 1.222.16 1.716.481a3.12 3.12 0 011.144 1.32c.268.559.403 1.193.403 1.904 0 .698-.132 1.328-.397 1.892a3.18 3.18 0 01-1.131 1.332c-.485.32-1.044.481-1.677.481zm-3.386-7.215h1.384v4.927h.195v5.213h-1.579V58.98zm3.146 5.811c.394 0 .726-.1.994-.299.269-.2.468-.472.598-.819.13-.347.195-.741.195-1.183 0-.438-.067-.83-.201-1.177a1.766 1.766 0 00-.618-.819c-.273-.203-.613-.305-1.02-.305-.39 0-.713.095-.969.286a1.68 1.68 0 00-.559.8c-.121.342-.182.747-.182 1.215 0 .468.061.875.182 1.222.126.342.319.609.579.8.26.186.593.279 1.001.279zm4.747-3.503h3.9v1.228h-3.9v-1.228zm7.351-.917h-2.347V58.98h6.26v1.391h-2.347V66h-1.566v-5.629zm4.364 4.023h1.605V66h-1.605v-1.606zm6.29-7.754h6.045v1.469h-4.478V66h-1.567v-9.36zm8.133 9.555c-.489 0-.912-.093-1.267-.28a2.023 2.023 0 01-.813-.767 2.158 2.158 0 01-.273-1.072c0-.52.128-.953.384-1.3.26-.347.665-.613 1.215-.8a7.374 7.374 0 011.125-.273 54.831 54.831 0 011.859-.286c.217-.034.429-.067.637-.097l-.559.319c0-.33-.048-.599-.143-.806a.918.918 0 00-.462-.462c-.212-.1-.491-.15-.838-.15-.351 0-.667.08-.949.241-.282.156-.477.403-.585.741l-1.43-.449c.178-.615.516-1.096 1.014-1.442.498-.351 1.148-.527 1.95-.527.654 0 1.213.106 1.677.319.464.212.806.541 1.027.988.117.225.191.459.221.702.03.238.045.537.045.897V66h-1.371v-1.521l.227.247a3.61 3.61 0 01-.708.838 2.51 2.51 0 01-.865.475 3.665 3.665 0 01-1.118.156zm.312-1.248c.334 0 .627-.059.878-.175.256-.122.459-.271.611-.449.156-.178.264-.357.325-.54.065-.156.106-.333.123-.532.022-.2.033-.416.033-.65v-.13l.481.143-.566.09c-.585.091-1.035.167-1.352.228a6.73 6.73 0 00-.812.201c-.282.104-.494.23-.637.377a.74.74 0 00-.215.547c0 .173.044.327.13.461.087.134.215.24.384.319.169.073.375.11.617.11zm5.216-5.967h5.005v1.469h-3.439V66h-1.566v-7.02zm8.044 7.215c-.49 0-.913-.093-1.268-.28a2.014 2.014 0 01-.812-.767 2.158 2.158 0 01-.273-1.072c0-.52.127-.953.383-1.3.26-.347.665-.613 1.216-.8a7.26 7.26 0 011.124-.273 54.831 54.831 0 011.859-.286c.217-.034.429-.067.637-.097l-.559.319c0-.33-.048-.599-.143-.806a.92.92 0 00-.461-.462c-.213-.1-.492-.15-.839-.15-.351 0-.667.08-.949.241-.282.156-.477.403-.585.741l-1.43-.449c.178-.615.516-1.096 1.014-1.442.498-.351 1.148-.527 1.95-.527.654 0 1.213.106 1.677.319.464.212.806.541 1.027.988.117.225.191.459.221.702.03.238.046.537.046.897V66h-1.372v-1.521l.228.247a3.637 3.637 0 01-.709.838 2.495 2.495 0 01-.864.475 3.67 3.67 0 01-1.118.156zm.312-1.248c.333 0 .626-.059.877-.175.256-.122.459-.271.611-.449.156-.178.264-.357.325-.54.065-.156.106-.333.124-.532.021-.2.032-.416.032-.65v-.13l.481.143-.565.09a40.46 40.46 0 00-1.352.228c-.317.06-.588.128-.813.201-.282.104-.494.23-.637.377a.74.74 0 00-.214.547.83.83 0 00.13.461c.086.134.214.24.383.319.169.073.375.11.618.11zm8.588 1.248c-.667 0-1.235-.16-1.703-.481a2.965 2.965 0 01-1.059-1.32c-.238-.559-.358-1.193-.358-1.904 0-.715.117-1.352.351-1.911.239-.559.588-.997 1.047-1.313.459-.32 1.014-.481 1.664-.481.65 0 1.222.16 1.716.481a3.12 3.12 0 011.144 1.32c.269.559.403 1.193.403 1.904 0 .698-.132 1.328-.397 1.892a3.18 3.18 0 01-1.131 1.332c-.485.32-1.044.481-1.677.481zm-3.386-7.215h1.384v4.927h.195v5.213h-1.579V58.98zm3.146 5.811c.394 0 .726-.1.994-.299.269-.2.468-.472.598-.819.13-.347.195-.741.195-1.183 0-.438-.067-.83-.201-1.177a1.76 1.76 0 00-.618-.819c-.273-.203-.613-.305-1.02-.305-.39 0-.713.095-.969.286a1.68 1.68 0 00-.559.8c-.121.342-.182.747-.182 1.215 0 .468.061.875.182 1.222.126.342.319.609.579.8.26.186.594.279 1.001.279zM211.468 66h-1.502v-4.583L206.625 66h-1.254v-7.02h1.501v4.466l3.354-4.466h1.242V66zm1.812-7.02h1.566v2.769h3.153V58.98h1.566V66h-1.566v-2.782h-3.153V66h-1.566v-7.02zm10.063 7.215c-.49 0-.912-.093-1.268-.28a2.014 2.014 0 01-.812-.767 2.158 2.158 0 01-.273-1.072c0-.52.128-.953.383-1.3.26-.347.665-.613 1.216-.8a7.26 7.26 0 011.124-.273 55.237 55.237 0 011.859-.286c.217-.034.429-.067.637-.097l-.559.319c0-.33-.047-.599-.143-.806a.92.92 0 00-.461-.462c-.213-.1-.492-.15-.839-.15-.351 0-.667.08-.949.241-.281.156-.476.403-.585.741l-1.43-.449c.178-.615.516-1.096 1.014-1.442.499-.351 1.149-.527 1.95-.527.655 0 1.214.106 1.677.319.464.212.806.541 1.027.988.117.225.191.459.221.702.031.238.046.537.046.897V66h-1.372v-1.521l.228.247a3.637 3.637 0 01-.709.838 2.495 2.495 0 01-.864.475 3.67 3.67 0 01-1.118.156zm.312-1.248c.333 0 .626-.059.877-.175.256-.122.46-.271.611-.449.156-.178.265-.357.325-.54.065-.156.106-.333.124-.532.021-.2.032-.416.032-.65v-.13l.481.143-.565.09a40.46 40.46 0 00-1.352.228c-.317.06-.587.128-.813.201-.281.104-.494.23-.637.377a.74.74 0 00-.214.547.83.83 0 00.13.461c.086.134.214.24.383.319.169.073.375.11.618.11zm5.176 2.034a.718.718 0 00.422-.078.538.538 0 00.254-.273.994.994 0 00.078-.441l-.013-.091V66h-.832v-1.67h1.605v1.735c0 .381-.06.7-.182.956-.121.26-.303.444-.546.552-.238.113-.53.14-.877.085l.091-.677zm6.33-2.359l4.004-3.569c.299-.264.511-.517.637-.76.13-.247.195-.494.195-.741 0-.312-.067-.59-.202-.832a1.45 1.45 0 00-.559-.585 1.547 1.547 0 00-.812-.215c-.317 0-.603.074-.858.221a1.542 1.542 0 00-.585.599 1.504 1.504 0 00-.195.799h-1.612c0-.615.138-1.157.416-1.625.277-.468.663-.83 1.157-1.086.498-.255 1.068-.383 1.709-.383a3.21 3.21 0 011.606.403c.481.264.858.635 1.131 1.111.273.473.409 1.01.409 1.612 0 .43-.058.794-.175 1.093a2.627 2.627 0 01-.475.792 9.642 9.642 0 01-.936.897l-.032.033-2.841 2.515-.143-.39h4.602v1.476h-6.441v-1.365zm11.026-8.164c.607 0 1.155.145 1.645.436a3.03 3.03 0 011.163 1.209c.286.515.429 1.098.429 1.748v2.847c0 .702-.143 1.317-.429 1.846a2.95 2.95 0 01-1.196 1.222c-.515.286-1.111.429-1.787.429a3.7 3.7 0 01-1.365-.247 3.168 3.168 0 01-1.112-.747l1.131-1.099c.169.195.371.349.605.462.238.112.485.169.741.169a1.772 1.772 0 001.586-.924c.152-.277.227-.576.227-.896v-1.554l.286.312a2.771 2.771 0 01-.968.735c-.373.173-.767.26-1.183.26a3.037 3.037 0 01-1.554-.397 2.9 2.9 0 01-1.072-1.099 3.183 3.183 0 01-.39-1.573c0-.572.147-1.098.442-1.579.295-.481.689-.86 1.183-1.138a3.233 3.233 0 011.618-.422zm0 1.502c-.299 0-.576.073-.832.22a1.606 1.606 0 00-.825 1.417c0 .3.074.577.221.832a1.7 1.7 0 00.598.605 1.6 1.6 0 00.825.221c.299 0 .575-.074.826-.221.256-.152.457-.353.604-.605.148-.255.221-.532.221-.832 0-.29-.073-.56-.221-.812a1.6 1.6 0 00-.591-.598 1.569 1.569 0 00-.826-.227z" fill="#F4F6FA"/><path d="M293.786 76.505l29.32-14.459V2h-58.641v60.046l29.321 14.459z" fill="#C8102E"/><path fill-rule="evenodd" clip-rule="evenodd" d="M293.786 78.735l31.32-15.445V0h-62.641v63.29l31.321 15.445zm-27.321-17.933V4h54.641v56.802l-27.32 13.473-27.321-13.473z" fill="#F4F6FA"/><path d="M306.718 25.354l-2.215-4.002h-22.777l2.215 4.002h15.458v2.121h-17.721l1.3 2.363v14.08h4.767V31.524h3.467v12.392h4.768V31.525h3.467v12.392h4.767V25.354h2.504z" fill="#F4F6FA"/></svg>