<svg width="406" height="109" viewBox="0 0 406 109" fill="none" xmlns="http://www.w3.org/2000/svg"><path fill="#0C1931" d="M0 66h363v42H0z"/><path d="M17.12 93V81.48h1.928v4.848h5.456V81.48h1.92V93h-1.92v-4.864h-5.456V93H17.12zm19.035-8.64V93h-1.848v-5.64L30.195 93H28.65v-8.64h1.848v5.496l4.128-5.496h1.528zM37.44 93l3.168-4.32-2.976-4.32h2.112l2.808 4.184V84.36h1.712v4.184l2.808-4.184h2.104L46.2 88.68 49.37 93h-2.224l-2.88-4.184V93h-1.712v-4.184L39.665 93h-2.224zm13.194 0v-8.64h1.928v3.408h3.88V84.36h1.928V93h-1.928v-3.424h-3.88V93h-1.928zm17.457-8.64V93h-1.848v-5.64L62.132 93h-1.544v-8.64h1.848v5.496l4.128-5.496h1.528zm6.239-.976c-.443 0-.848-.11-1.216-.328a2.505 2.505 0 01-.88-.872 2.35 2.35 0 01-.328-1.224h1.504c0 .256.088.475.264.656.181.176.4.264.656.264a.881.881 0 00.648-.264.894.894 0 00.272-.656h1.504c0 .448-.11.856-.328 1.224a2.506 2.506 0 01-.88.872 2.336 2.336 0 01-1.216.328zm3.496.976V93h-1.848v-5.64L71.867 93h-1.544v-8.64h1.848v5.496l4.128-5.496h1.528zm5.45 8.64V81.48h1.927v4.848h5.456V81.48h1.92V93h-1.92v-4.864h-5.456V93h-1.928zm15.362.24c-.864 0-1.618-.195-2.264-.584a4.012 4.012 0 01-1.504-1.608c-.352-.688-.528-1.477-.528-2.368 0-.907.181-1.701.544-2.384a4.011 4.011 0 011.512-1.6c.645-.384 1.392-.576 2.24-.576.87 0 1.627.195 2.272.584.645.39 1.147.928 1.504 1.616.357.683.536 1.47.536 2.36 0 .896-.181 1.688-.544 2.376a4.01 4.01 0 01-1.504 1.608c-.645.384-1.4.576-2.264.576zm0-1.808c.768 0 1.339-.256 1.712-.768s.56-1.173.56-1.984c0-.837-.189-1.504-.568-2-.379-.501-.947-.752-1.704-.752-.517 0-.944.117-1.28.352-.33.23-.576.552-.736.968-.16.41-.24.888-.24 1.432 0 .837.19 1.507.568 2.008.384.496.947.744 1.688.744zm6.06 1.568v-8.64h3.928c.282 0 .546.016.792.048.245.032.456.072.632.12.416.123.784.363 1.104.72.32.352.48.84.48 1.464 0 .368-.059.672-.176.912a1.827 1.827 0 01-.744.784 1.704 1.704 0 01-.288.128 1.93 1.93 0 011.328.824c.202.283.304.68.304 1.192 0 .581-.142 1.072-.424 1.472-.278.395-.686.67-1.224.824a4.374 4.374 0 01-.68.12 9.465 9.465 0 01-.784.032h-4.248zm1.952-1.488h2.16a2.353 2.353 0 00.728-.12.713.713 0 00.416-.368c.09-.176.136-.36.136-.552 0-.261-.067-.47-.2-.624a.92.92 0 00-.464-.32 1.06 1.06 0 00-.352-.072 3.626 3.626 0 00-.304-.016h-2.12v2.072zm0-3.584h1.6c.165 0 .325-.008.48-.024a1.44 1.44 0 00.4-.104.692.692 0 00.384-.352 1.19 1.19 0 00.128-.552c0-.213-.048-.405-.144-.576a.688.688 0 00-.44-.352 1.428 1.428 0 00-.488-.088 17.165 17.165 0 00-.36-.008h-1.56v2.056zM113.651 93v-8.64h6.16v1.808h-4.232V93h-1.928zm11.348.24c-.864 0-1.619-.195-2.264-.584a4.004 4.004 0 01-1.504-1.608c-.352-.688-.528-1.477-.528-2.368 0-.907.181-1.701.544-2.384a4.002 4.002 0 011.512-1.6c.645-.384 1.392-.576 2.24-.576.869 0 1.626.195 2.272.584a4.01 4.01 0 011.504 1.616c.357.683.536 1.47.536 2.36 0 .896-.182 1.688-.544 2.376a4.018 4.018 0 01-1.504 1.608c-.646.384-1.4.576-2.264.576zm0-1.808c.768 0 1.338-.256 1.712-.768.373-.512.56-1.173.56-1.984 0-.837-.19-1.504-.568-2-.379-.501-.947-.752-1.704-.752-.518 0-.944.117-1.28.352-.331.23-.576.552-.736.968-.16.41-.24.888-.24 1.432 0 .837.189 1.507.568 2.008.384.496.946.744 1.688.744zm10.226 1.808c-.843 0-1.549-.2-2.12-.6-.571-.4-1-.944-1.288-1.632-.288-.693-.432-1.47-.432-2.328 0-.87.144-1.648.432-2.336.288-.688.709-1.23 1.264-1.624.56-.4 1.251-.6 2.072-.6.816 0 1.523.2 2.12.6a3.929 3.929 0 011.4 1.624c.331.683.496 1.461.496 2.336 0 .864-.163 1.64-.488 2.328a3.969 3.969 0 01-1.376 1.632c-.592.4-1.285.6-2.08.6zm-4.168 3.6V84.36h1.704v6.064h.24v6.416h-1.944zm3.872-5.328c.501 0 .915-.125 1.24-.376.325-.25.565-.59.72-1.016.16-.432.24-.912.24-1.44 0-.523-.08-.997-.24-1.424a2.19 2.19 0 00-.744-1.024c-.336-.256-.763-.384-1.28-.384-.491 0-.891.12-1.2.36-.309.235-.539.565-.688.992-.144.421-.216.915-.216 1.48 0 .56.072 1.053.216 1.48.149.427.381.76.696 1 .32.235.739.352 1.256.352zm9.82 1.728c-.864 0-1.619-.195-2.264-.584a4.004 4.004 0 01-1.504-1.608c-.352-.688-.528-1.477-.528-2.368 0-.907.181-1.701.544-2.384a4.002 4.002 0 011.512-1.6c.645-.384 1.392-.576 2.24-.576.869 0 1.626.195 2.272.584a4.01 4.01 0 011.504 1.616c.357.683.536 1.47.536 2.36 0 .896-.182 1.688-.544 2.376a4.018 4.018 0 01-1.504 1.608c-.646.384-1.4.576-2.264.576zm0-1.808c.768 0 1.338-.256 1.712-.768.373-.512.56-1.173.56-1.984 0-.837-.19-1.504-.568-2-.379-.501-.947-.752-1.704-.752-.518 0-.944.117-1.28.352-.331.23-.576.552-.736.968-.16.41-.24.888-.24 1.432 0 .837.189 1.507.568 2.008.384.496.946.744 1.688.744zm5.434 3.488v-3.432c.469 0 .803-.16 1-.48.197-.32.355-.875.472-1.664.075-.47.136-.965.184-1.488.048-.523.088-1.075.12-1.656.037-.581.069-1.195.096-1.84h6.432v7.128h.872v3.432h-1.824V93h-5.536v1.92h-1.816zm2.584-3.432h3.8v-5.616h-2.824a55.104 55.104 0 01-.216 2.928c-.027.299-.059.576-.096.832a7.434 7.434 0 01-.216 1.104 1.751 1.751 0 01-.448.752zm8.037 3.552l.112-.832c.245.021.44-.021.584-.128a.733.733 0 00.288-.44c.053-.187.066-.4.04-.64h-1.024v-2.056h1.976v2.136c0 .699-.166 1.227-.496 1.584-.331.357-.824.483-1.48.376zM169.01 93v-8.64h7.504V93h-1.928v-6.832h-3.648V93h-1.928zm13.903.24c-.843 0-1.55-.2-2.12-.6-.571-.4-1-.944-1.288-1.632-.288-.693-.432-1.47-.432-2.328 0-.87.144-1.648.432-2.336.288-.688.709-1.23 1.264-1.624.56-.4 1.25-.6 2.072-.6.816 0 1.522.2 2.12.6a3.936 3.936 0 011.4 1.624c.33.683.496 1.461.496 2.336 0 .864-.163 1.64-.488 2.328a3.976 3.976 0 01-1.376 1.632c-.592.4-1.286.6-2.08.6zm-4.168 3.6V84.36h1.704v6.064h.24v6.416h-1.944zm3.872-5.328c.501 0 .914-.125 1.24-.376.325-.25.565-.59.72-1.016.16-.432.24-.912.24-1.44 0-.523-.08-.997-.24-1.424a2.19 2.19 0 00-.744-1.024c-.336-.256-.763-.384-1.28-.384-.491 0-.891.12-1.2.36-.31.235-.539.565-.688.992-.144.421-.216.915-.216 1.48 0 .56.072 1.053.216 1.48.149.427.381.76.696 1 .32.235.738.352 1.256.352zm5.843-2.8V87.2h4.8v1.512h-4.8zM197.507 93v-6.928h-2.888V84.36h7.704v1.712h-2.888V93h-1.928zm5.371 0v-1.976h1.976V93h-1.976zm7.742 0V81.48h7.44v1.808h-5.512V93h-1.928zm10.01.24c-.624 0-1.152-.117-1.584-.352a2.49 2.49 0 01-.984-.952 2.642 2.642 0 01-.328-1.304c0-.416.069-.79.208-1.12.138-.336.352-.624.64-.864.288-.245.661-.445 1.12-.6a10.59 10.59 0 011.216-.304c.469-.09.976-.173 1.52-.248.549-.08 1.122-.165 1.72-.256l-.688.392c.005-.597-.128-1.037-.4-1.32-.272-.283-.731-.424-1.376-.424-.39 0-.766.09-1.128.272-.363.181-.616.493-.76.936l-1.76-.552a3.265 3.265 0 011.216-1.76c.602-.443 1.413-.664 2.432-.664.768 0 1.442.125 2.024.376.586.25 1.021.661 1.304 1.232.154.304.248.616.28.936.032.315.048.659.048 1.032V93h-1.688v-1.872l.28.304c-.39.624-.846 1.083-1.368 1.376-.518.288-1.166.432-1.944.432zm.384-1.536c.437 0 .81-.077 1.12-.232a2.2 2.2 0 00.736-.568 1.98 1.98 0 00.376-.632c.101-.245.157-.525.168-.84.016-.32.024-.579.024-.776l.592.176c-.582.09-1.08.17-1.496.24-.416.07-.774.136-1.072.2a6.795 6.795 0 00-.792.2c-.224.08-.414.173-.568.28-.155.107-.275.23-.36.368a.96.96 0 00-.12.488c0 .213.053.403.16.568.106.16.261.288.464.384.208.096.464.144.768.144zM227.433 93v-8.64h6.16v1.808h-4.232V93h-1.928zm9.9.24c-.624 0-1.152-.117-1.584-.352a2.49 2.49 0 01-.984-.952 2.642 2.642 0 01-.328-1.304c0-.416.069-.79.208-1.12.139-.336.352-.624.64-.864.288-.245.661-.445 1.12-.6.347-.112.752-.213 1.216-.304.469-.09.976-.173 1.52-.248.549-.08 1.123-.165 1.72-.256l-.688.392c.005-.597-.128-1.037-.4-1.32-.272-.283-.731-.424-1.376-.424-.389 0-.765.09-1.128.272-.363.181-.616.493-.76.936l-1.76-.552a3.27 3.27 0 011.216-1.76c.603-.443 1.413-.664 2.432-.664.768 0 1.443.125 2.024.376a2.51 2.51 0 011.304 1.232c.155.304.248.616.28.936.032.315.048.659.048 1.032V93h-1.688v-1.872l.28.304c-.389.624-.845 1.083-1.368 1.376-.517.288-1.165.432-1.944.432zm.384-1.536c.437 0 .811-.077 1.12-.232a2.19 2.19 0 00.736-.568 1.96 1.96 0 00.376-.632c.101-.245.157-.525.168-.84.016-.32.024-.579.024-.776l.592.176c-.581.09-1.08.17-1.496.24-.416.07-.773.136-1.072.2a6.795 6.795 0 00-.792.2c-.224.08-.413.173-.568.28-.155.107-.275.23-.36.368a.96.96 0 00-.12.488c0 .213.053.403.16.568.107.16.261.288.464.384.208.096.464.144.768.144zm10.571 1.536c-.843 0-1.55-.2-2.12-.6-.571-.4-1-.944-1.288-1.632-.288-.693-.432-1.47-.432-2.328 0-.87.144-1.648.432-2.336.288-.688.709-1.23 1.264-1.624.56-.4 1.25-.6 2.072-.6.816 0 1.522.2 2.12.6a3.936 3.936 0 011.4 1.624c.33.683.496 1.461.496 2.336 0 .864-.163 1.64-.488 2.328a3.976 3.976 0 01-1.376 1.632c-.592.4-1.286.6-2.08.6zm-4.168 3.6V84.36h1.704v6.064h.24v6.416h-1.944zm3.872-5.328c.501 0 .914-.125 1.24-.376.325-.25.565-.59.72-1.016.16-.432.24-.912.24-1.44 0-.523-.08-.997-.24-1.424a2.19 2.19 0 00-.744-1.024c-.336-.256-.763-.384-1.28-.384-.491 0-.891.12-1.2.36-.31.235-.539.565-.688.992-.144.421-.216.915-.216 1.48 0 .56.072 1.053.216 1.48.149.427.381.76.696 1 .32.235.738.352 1.256.352zm13.491-7.152V93h-1.848v-5.64L255.523 93h-1.544v-8.64h1.848v5.496l4.128-5.496h1.528zm2.23 8.64v-8.64h1.928v3.408h3.88V84.36h1.928V93h-1.928v-3.424h-3.88V93h-1.928zm12.386.24c-.624 0-1.152-.117-1.584-.352a2.49 2.49 0 01-.984-.952 2.642 2.642 0 01-.328-1.304c0-.416.069-.79.208-1.12.138-.336.352-.624.64-.864.288-.245.661-.445 1.12-.6a10.59 10.59 0 011.216-.304c.469-.09.976-.173 1.52-.248.549-.08 1.122-.165 1.72-.256l-.688.392c.005-.597-.128-1.037-.4-1.32-.272-.283-.731-.424-1.376-.424-.39 0-.766.09-1.128.272-.363.181-.616.493-.76.936l-1.76-.552a3.265 3.265 0 011.216-1.76c.602-.443 1.413-.664 2.432-.664.768 0 1.442.125 2.024.376.586.25 1.021.661 1.304 1.232.154.304.248.616.28.936.032.315.048.659.048 1.032V93h-1.688v-1.872l.28.304c-.39.624-.846 1.083-1.368 1.376-.518.288-1.166.432-1.944.432zm.384-1.536c.437 0 .81-.077 1.12-.232a2.2 2.2 0 00.736-.568 1.98 1.98 0 00.376-.632c.101-.245.157-.525.168-.84.016-.32.024-.579.024-.776l.592.176c-.582.09-1.08.17-1.496.24-.416.07-.774.136-1.072.2a6.795 6.795 0 00-.792.2c-.224.08-.414.173-.568.28-.155.107-.275.23-.36.368a.96.96 0 00-.12.488c0 .213.053.403.16.568.106.16.261.288.464.384.208.096.464.144.768.144zm6.258 3.336l.112-.832c.246.021.44-.021.584-.128a.733.733 0 00.288-.44c.054-.187.067-.4.04-.64h-1.024v-2.056h1.976v2.136c0 .699-.165 1.227-.496 1.584-.33.357-.824.483-1.48.376zm7.903-2.056v-1.68l4.928-4.392c.384-.341.65-.664.8-.968.149-.304.224-.597.224-.88 0-.384-.083-.725-.248-1.024a1.868 1.868 0 00-1.688-.984c-.4 0-.755.093-1.064.28a1.937 1.937 0 00-.712.728 1.852 1.852 0 00-.24.984h-1.984c0-.768.17-1.437.512-2.008a3.554 3.554 0 011.424-1.328c.608-.315 1.309-.472 2.104-.472.736 0 1.397.165 1.984.496a3.574 3.574 0 011.384 1.36c.336.576.504 1.24.504 1.992 0 .55-.075 1.01-.224 1.384-.15.373-.374.717-.672 1.032-.294.315-.659.664-1.096 1.048l-3.496 3.096-.176-.48h5.664v1.816h-7.928zm13.571-11.728a3.91 3.91 0 012.032.536 3.781 3.781 0 011.424 1.472c.352.624.528 1.344.528 2.16v3.512c0 .87-.176 1.63-.528 2.28a3.667 3.667 0 01-1.464 1.496c-.629.352-1.365.528-2.208.528a4.585 4.585 0 01-1.648-.296 3.992 3.992 0 01-1.392-.928l1.384-1.352c.208.24.456.43.744.568.293.133.597.2.912.2.448 0 .84-.104 1.176-.312a2.246 2.246 0 001.064-1.92v-1.912l.344.384a3.47 3.47 0 01-1.184.904 3.47 3.47 0 01-1.464.32c-.72 0-1.36-.165-1.92-.496a3.604 3.604 0 01-1.312-1.344c-.315-.57-.472-1.216-.472-1.936s.181-1.37.544-1.952a3.982 3.982 0 011.448-1.392 3.952 3.952 0 011.992-.52zm0 1.84a2.029 2.029 0 00-2.032 2.024c0 .373.088.715.264 1.024a1.988 1.988 0 001.752 1.008 2.029 2.029 0 001.76-1.008c.187-.31.28-.65.28-1.024a1.92 1.92 0 00-.272-1 2.093 2.093 0 00-.736-.744 1.904 1.904 0 00-1.016-.28z" fill="#F4F6FA"/><path d="M362.553 104.505L402.106 85V4H323v81l39.553 19.505z" fill="#C8102E"/><path fill-rule="evenodd" clip-rule="evenodd" d="M362.553 108.407l43.053-21.23V.5H319.5v86.676l43.053 21.231zM326.5 82.823V7.5h72.106v75.323l-36.053 17.779L326.5 82.823z" fill="#F4F6FA"/><path d="M380 35.503l-2.988-5.399h-30.726l2.989 5.399h20.851v2.862h-23.905l1.754 3.187v18.993h6.431V43.828h4.677v16.717h6.431V43.828h4.677v16.717h6.431V35.503H380z" fill="#F4F6FA"/></svg>