<svg width="275" height="214" viewBox="0 0 275 214" fill="none" xmlns="http://www.w3.org/2000/svg"><path d="M193.169 106.158l1.104 1.1v1.56" stroke="#fff" stroke-miterlimit="10"/><path d="M194.273 110.808v40.384" stroke="#fff" stroke-miterlimit="10" stroke-dasharray="8.16 5.1"/><path d="M194.273 152.187v1.56l-1.35.78" stroke="#fff" stroke-miterlimit="10"/><path d="M234.915 145.469l-77.925 44.988-6.281 23.437h11.481l4.323-16.131 76.52-44.18 24.85-43.041-9.605-5.543-23.363 40.47z" fill="#00205B"/><path d="M190.588 133.709l-12.301 45.889 10.755 2.883 12.3-45.89-10.754-2.882zm36.403-35.404h-11.09v61.341h11.09V98.305z" fill="#00205B"/><path d="M153.076 22.091l-7.84 7.84 72.292 72.292 7.84-7.84-72.292-72.292z" fill="#00205B"/><path d="M208.288.94l-18.254 68.098 10.755 2.882 18.253-68.098L208.288.94zm9.235 93.444l7.842 7.841L275 52.59l-7.886-7.797-49.591 49.591z" fill="#00205B"/><path d="M224.205 38.924L198.913 45.7l2.871 10.713 25.292-6.777-2.871-10.713zm46.202 105.059h-31.431v11.091h31.431v-11.091z" fill="#00205B"/><path d="M241.324 150.178l-77.008 44.461-.331.191-5.111 19.065h1.916l4.782-17.848 76.891-44.395.215-.124 24.23-41.968-1.6-.925-23.984 41.543z" fill="#fff"/><path d="M196.969 137.483l-12.244 45.696 1.786.479 12.244-45.697-1.786-.478zm28.427-37.853h-1.849v61.342h1.849V99.631z" fill="#fff"/><path d="M152.833 26.686l-1.307 1.308 72.292 72.292 1.307-1.308-72.292-72.292z" fill="#fff"/><path d="M215.137 4.963l-18.171 67.812 1.786.478 18.171-67.812-1.786-.478zm8.683 94.013l1.307 1.307 46.8-46.8-1.524-1.09-46.583 46.583z" fill="#fff"/><path d="M228.427 44.714l-25.292 6.776.479 1.787 25.292-6.777-.479-1.786zm41.976 105.214h-28.404v1.849h28.404v-1.849z" fill="#fff"/><path d="M82.466 154.527l-1.354-.78v-1.56" stroke="#fff" stroke-miterlimit="10"/><path d="M81.112 150.197v-40.384" stroke="#fff" stroke-miterlimit="10" stroke-dasharray="8.16 5.1"/><path d="M81.112 108.818v-1.56l1.104-1.101m56.62-56.62l1.104-1.104 1.104 1.104m.25 137.397l-1.353.78-1.35-.78" stroke="#fff" stroke-miterlimit="10"/><path d="M7.572 110.542l24.85 43.041 76.524 44.18 4.319 16.131h11.481l-6.281-23.437-77.924-44.988-23.364-40.47-9.605 5.543z" fill="#00205B"/><path d="M85.985 134.958l-10.71 2.87 12.245 45.696 10.71-2.869-12.245-45.697zM59.554 98.305H48.468v61.341h11.087V98.305z" fill="#00205B"/><path d="M122.383 22.092L50.091 94.384l7.84 7.839 72.291-72.291-7.839-7.84z" fill="#00205B"/><path d="M67.82 2.432l-10.71 2.87 18.171 67.812 10.71-2.87L67.82 2.432zM8.34 44.797L.5 52.637l49.592 49.591 7.84-7.84L8.34 44.798z" fill="#00205B"/><path d="M51.256 38.926l-2.87 10.713 25.291 6.777 2.87-10.713-25.291-6.777zM36.483 143.983H4.42v11.09h32.063v-11.09z" fill="#00205B"/><path d="M14.626 109.559l24.23 41.968.214.125 76.891 44.395 4.782 17.851h1.916l-5.111-19.068-.331-.192-77.008-44.46-23.984-41.543-1.6.924z" fill="#fff"/><path d="M84.58 137.467l-1.787.479 12.245 45.696 1.786-.478-12.245-45.697zM57.986 99.63h-1.849v61.342h1.85V99.631z" fill="#fff"/><path d="M128.697 26.682L56.405 98.974l1.308 1.307 72.291-72.292-1.307-1.307z" fill="#fff"/><path d="M66.406 4.946l-1.786.479 18.17 67.812 1.787-.479-18.17-67.812zM8.122 49.383l-1.308 1.308 49.593 49.592 1.307-1.308L8.122 49.383z" fill="#fff"/><path d="M53.11 44.716l-.48 1.786 25.293 6.777.478-1.786-25.292-6.777zM39.534 149.928H7.47v1.849h32.063v-1.849z" fill="#fff"/><path d="M135.564 161.023l-43.728-40.766V95.032l21.836-15.524 21.835 13.567 21.891-13.565 21.846 15.521v25.226l-43.68 40.766z" fill="#C8102E"/></svg>