<svg width="235" height="119" viewBox="0 0 235 119" fill="none" xmlns="http://www.w3.org/2000/svg"><path fill-rule="evenodd" clip-rule="evenodd" d="M235 65H0v54h235V65zM31.487 100.489c-1.687 0-3.023-.448-4.007-1.345-.966-.914-1.45-2.153-1.45-3.717v-7.802c0-1.547.492-2.777 1.476-3.69.985-.915 2.311-1.371 3.98-1.371 1.688 0 3.015.456 3.981 1.37.985.914 1.477 2.144 1.477 3.69v7.803c0 1.564-.492 2.803-1.477 3.717-.966.897-2.293 1.345-3.98 1.345zm0-2.795c.773 0 1.37-.21 1.792-.632.422-.44.633-1.055.633-1.846v-7.354c0-.808-.21-1.423-.633-1.845-.421-.44-1.019-.66-1.792-.66-.773 0-1.37.22-1.793.66-.404.422-.606 1.037-.606 1.845v7.355c0 .79.202 1.405.606 1.845.422.422 1.02.632 1.793.632zM49.326 82.88v2.794h-6.169v4.877h5.72v2.794h-5.72v6.827H40.1V82.88h9.227zm11.622 2.794V82.88h-9.226v17.292h3.057v-6.827h5.72V90.55h-5.72v-4.877h6.169zm5.48-2.794v17.292H63.37V82.88h3.058zm4.659 16.264c.984.897 2.32 1.345 4.007 1.345 1.792 0 3.145-.466 4.06-1.398.913-.93 1.37-2.32 1.37-4.164v-1.608h-3.058v1.608c0 1.845-.8 2.767-2.399 2.767-.773 0-1.37-.21-1.792-.632-.404-.422-.607-1.037-.607-1.846v-7.354c0-.808.203-1.423.607-1.845.421-.44 1.019-.66 1.792-.66.826 0 1.433.238 1.82.712.386.475.58 1.204.58 2.188v1.608h3.057v-1.608c0-3.796-1.81-5.694-5.43-5.694-1.688 0-3.023.457-4.007 1.371-.984.897-1.476 2.127-1.476 3.69v7.803c0 1.564.492 2.803 1.476 3.717zm15.42-16.264v17.292h-3.058V82.88h3.058zm14.57 17.292v-.448l-4.27-16.844h-3.612l-4.297 16.844v.448h3.11l.791-3.347h4.403l.764 3.347h3.111zm-6.09-12.864l1.582 6.775h-3.137l1.555-6.775zm11.494-4.428v14.498h6.3v2.794h-9.358V82.88h3.058zm22.748 1.291c-.878-.86-2.152-1.291-3.822-1.291h-5.509v17.292h3.057v-6.827h2.452c1.687 0 2.97-.422 3.849-1.265.878-.844 1.318-2.083 1.318-3.717v-.527c0-1.6-.448-2.821-1.345-3.665zm-2.319 5.879c-.405.334-.985.5-1.74.5h-2.215v-4.876h2.215c1.564 0 2.346.72 2.346 2.162v.527c0 .773-.202 1.335-.606 1.687zm16.961 9.674v.448h-3.032l-3.532-6.88H136.2v6.88h-3.058V82.88h5.509c1.67 0 2.944.43 3.822 1.291.897.844 1.345 2.065 1.345 3.665v.527c0 1.3-.29 2.355-.87 3.163-.562.79-1.397 1.318-2.504 1.582l3.427 6.616zm-7.671-9.173h2.214c.756 0 1.335-.167 1.74-.501.404-.352.606-.914.606-1.687v-.527c0-1.442-.782-2.162-2.346-2.162H136.2v4.877zm11.686 8.593c.984.897 2.32 1.345 4.007 1.345 1.687 0 3.014-.448 3.98-1.345.984-.914 1.476-2.153 1.476-3.717v-7.802c0-1.547-.492-2.777-1.476-3.69-.966-.915-2.293-1.371-3.98-1.371-1.67 0-2.997.456-3.981 1.37-.984.914-1.476 2.144-1.476 3.69v7.803c0 1.564.483 2.803 1.45 3.717zm5.799-2.082c-.422.422-1.019.632-1.792.632-.774 0-1.371-.21-1.793-.632-.404-.44-.606-1.055-.606-1.846v-7.354c0-.808.202-1.423.606-1.845.422-.44 1.019-.66 1.793-.66.773 0 1.37.22 1.792.66.422.422.633 1.037.633 1.845v7.355c0 .79-.211 1.405-.633 1.845zm11.75-14.182c1.739 0 3.093.466 4.059 1.397.984.914 1.476 2.197 1.476 3.849v6.827c0 1.634-.492 2.917-1.476 3.849-.966.913-2.32 1.37-4.059 1.37h-4.93V82.88h4.93zm.105 14.498c.773 0 1.362-.22 1.766-.659.422-.44.633-1.08.633-1.924v-6.538c0-.843-.211-1.485-.633-1.924-.404-.44-.993-.659-1.766-.659h-1.977v11.704h1.977zm9.914 1.845c.878.844 2.17 1.266 3.875 1.266 1.704 0 2.987-.413 3.848-1.24.879-.843 1.318-2.09 1.318-3.742V82.88h-3.058v12.6c0 1.476-.703 2.214-2.108 2.214-1.424 0-2.136-.738-2.136-2.214v-12.6h-3.058v12.627c0 1.634.44 2.873 1.319 3.716zm17.69 1.266c-1.687 0-3.022-.448-4.006-1.345-.984-.914-1.477-2.153-1.477-3.717v-7.802c0-1.564.493-2.794 1.477-3.69.984-.915 2.319-1.371 4.006-1.371 3.621 0 5.431 1.897 5.431 5.693v1.608h-3.058v-1.608c0-.984-.193-1.713-.58-2.188-.387-.474-.993-.711-1.819-.711-.773 0-1.371.22-1.792.659-.405.422-.607 1.037-.607 1.845v7.355c0 .808.202 1.423.607 1.845.421.422 1.019.632 1.792.632 1.599 0 2.399-.922 2.399-2.767v-1.608h3.058v1.608c0 1.845-.457 3.233-1.371 4.164-.914.932-2.267 1.398-4.06 1.398zM210 82.879h-10.122v2.795h3.532v14.498h3.058V85.674H210V82.88z" fill="#C8102E"/><path fill-rule="evenodd" clip-rule="evenodd" d="M71.04 11.727H49.272l-2.314 2.317v24.63l2.314 2.318h21.77l2.314-2.317v-24.63l-2.314-2.318zm-6.17 21.97h-9.428V18.85h9.428v14.847zM235 13.958l-2.314-2.317h-21.77l-2.314 2.318v24.63l2.314 2.317h21.77L235 38.589v-24.63zm-8.485 19.74h-9.428V18.85h9.428v14.847zM200.203.741l2.314 2.317v35.616l-2.314 2.317h-21.77l-2.314-2.317v-24.63l2.314-2.318h14.57l-3.942 7.123h-4.543v14.847h9.428V7.865h-13.97L176.033.742h24.17zm-96.936 10.985l2.314 2.317v17.508l-2.314 2.317h-14.57l3.942-7.123h4.543v-7.724h-9.428v22.056h-8.485V14.13l-2.314-2.317h26.312v-.086zM41.043.742l3.943 7.123h-4.457v33.041h-8.485V18.85h-6.171v22.056h-8.485V18.85h-6.171v22.056H2.732v-25.06L.417 11.641h31.541V7.865H4.446L.503.742h40.54zm96.679 10.985v29.179h-8.485V18.85h-9.428v22.056h-8.485V13.959l-2.315-2.318h28.713v.086zm30.854 0l2.315 2.317v13.56l-2.315 2.317h-14.57l3.943-7.123h4.542v-3.862h-9.428v14.933h17.828l-3.943 7.123h-20.141l-2.314-2.317v-24.63l-2.315-2.318h26.398z" fill="#00205B"/></svg>