<svg width="322" height="195" viewBox="0 0 322 195" fill="none" xmlns="http://www.w3.org/2000/svg"><path fill="#00205B" d="M3.135 55.316L251.287 11.56l13.272 75.273-248.151 43.756z"/><path d="M35.866 94.265l-2.73-15.485 2.925-.516 1.259 7.14 4.634-8.179 3.57-.63-5.128 8.777 8.267 6.636-3.7.653-7.416-5.966 1.244 7.054-2.925.516zm16.941-2.655c-.832.147-1.566.114-2.202-.1a3.416 3.416 0 01-1.538-1.047 3.695 3.695 0 01-.754-1.697 4.272 4.272 0 01-.012-1.517c.087-.473.283-.91.59-1.312.311-.41.759-.785 1.342-1.124.403-.234.89-.464 1.464-.69a34.585 34.585 0 011.96-.701c.733-.248 1.54-.52 2.419-.815l-.952.767c-.121-.688-.375-1.165-.762-1.43-.387-.264-.967-.328-1.741-.191-.43.076-.86.259-1.29.549-.429.29-.69.717-.783 1.28l-2.793-.372a4.556 4.556 0 011.243-2.636c.704-.745 1.755-1.241 3.153-1.488 1.025-.18 1.963-.183 2.814-.008.852.175 1.55.614 2.095 1.316.305.39.517.795.636 1.218.12.423.225.9.319 1.43l1.251 7.097-2.559.451-.421-2.387.453.43c-.429.881-.942 1.556-1.54 2.023-.591.46-1.389.777-2.392.954zm.218-2.41c.537-.096.972-.268 1.305-.52.339-.259.594-.529.766-.81.18-.284.294-.514.344-.693.095-.342.116-.723.065-1.143a16.34 16.34 0 00-.143-1.061l.898.063c-.842.297-1.523.542-2.043.738-.521.188-.94.35-1.256.487a7.693 7.693 0 00-.825.412 3.044 3.044 0 00-.633.5c-.15.159-.253.325-.311.498a1.18 1.18 0 00-.026.547c.047.266.152.484.315.655.17.162.385.272.646.33.261.057.56.056.898-.004zm8.371.563l-2.027-11.617 2.968-.523.986 5.591 2.95-6.285 3.613-.637-3.17 6.546 5.497 5.018-3.806.671-5.008-4.883.986 5.592-2.99.527zm14.881-2.623L74.23 75.525l5.441-.96c.43-.076.811-.117 1.143-.124a5.44 5.44 0 01.835.02c.558.064 1.096.287 1.615.668.518.382.854 1.01 1.008 1.885.091.516.083.95-.025 1.302-.11.344-.282.644-.518.9a2.853 2.853 0 01-.345.305 2.28 2.28 0 01-.36.219 2.9 2.9 0 01.858.092 2.65 2.65 0 011.155.64c.351.314.59.834.718 1.558.137.774.063 1.467-.22 2.08-.277.61-.773 1.089-1.488 1.437a5.64 5.64 0 01-.886.322c-.337.097-.696.178-1.076.245l-5.807 1.024zm2.577-2.74l2.624-.462c.15-.026.302-.068.455-.124a2.99 2.99 0 00.418-.207.796.796 0 00.363-.519c.057-.224.066-.444.028-.659-.053-.301-.163-.526-.33-.674a1.126 1.126 0 00-.505-.287 1.178 1.178 0 00-.47-.028c-.16.013-.29.029-.391.046l-2.624.463.432 2.452zm-.83-4.71l1.785-.314c.23-.04.442-.089.64-.146a1.81 1.81 0 00.49-.23.874.874 0 00.348-.483c.06-.21.068-.434.026-.67a1.432 1.432 0 00-.28-.65.797.797 0 00-.58-.33 1.986 1.986 0 00-.62.01 29.6 29.6 0 00-.453.069l-1.785.315.429 2.43zm13.115 5.161c-.832.147-1.566.114-2.202-.1a3.417 3.417 0 01-1.538-1.047 3.695 3.695 0 01-.753-1.697 4.272 4.272 0 01-.013-1.517c.087-.473.283-.91.59-1.312.311-.41.759-.785 1.342-1.124.403-.234.89-.464 1.464-.69a34.99 34.99 0 011.96-.701c.733-.248 1.54-.52 2.419-.815l-.952.767c-.121-.688-.375-1.165-.762-1.43-.386-.264-.967-.328-1.741-.191-.43.076-.86.259-1.29.549-.429.29-.69.717-.783 1.28l-2.793-.372a4.557 4.557 0 011.243-2.636c.704-.745 1.755-1.241 3.153-1.488 1.025-.18 1.963-.183 2.814-.008.852.175 1.55.614 2.095 1.316.305.39.517.795.636 1.218.12.423.225.9.319 1.43l1.251 7.097-2.559.451-.42-2.387.452.43c-.429.881-.942 1.556-1.54 2.023-.591.46-1.389.777-2.392.954zm.218-2.41c.537-.096.972-.268 1.305-.52.339-.259.594-.529.766-.81.18-.284.294-.514.344-.693.095-.342.116-.723.065-1.143a16.34 16.34 0 00-.143-1.061l.898.063c-.842.297-1.523.543-2.043.738-.522.188-.94.35-1.256.487a7.721 7.721 0 00-.825.412 3.047 3.047 0 00-.633.5c-.15.159-.253.325-.311.498a1.18 1.18 0 00-.026.548c.047.265.152.483.315.654.17.162.385.272.646.33.261.057.56.056.898-.004zm8.371.563L97.68 71.391l2.366-.417 5.37 6.814 2.716-8.24 2.366-.417 2.047 11.613-2.795.493-1.02-5.785-2.077 6.331-1.033.182-4.117-5.239 1.02 5.785-2.795.493zm15.488.263l-.044-1.256c.349-.032.618-.139.808-.32.191-.174.303-.4.335-.68.04-.273.005-.578-.106-.913l-1.505.266-.516-2.925 2.925-.516.516 2.925c.182 1.032.079 1.856-.308 2.471-.386.615-1.088.931-2.105.948zm9.501-4.669l-2.048-11.614 10.367-1.827 2.047 11.613-2.925.516-1.566-8.882-4.516.796 1.566 8.882-2.925.516zm18.017-2.844c-1.168.206-2.24.125-3.214-.243a5.585 5.585 0 01-2.446-1.797c-.65-.84-1.081-1.857-1.292-3.054-.214-1.212-.15-2.32.19-3.327a5.553 5.553 0 011.694-2.527c.791-.672 1.759-1.109 2.906-1.311 1.169-.206 2.24-.125 3.214.243a5.538 5.538 0 012.459 1.806c.656.83 1.09 1.844 1.301 3.041.212 1.205.149 2.314-.19 3.327a5.547 5.547 0 01-1.694 2.527c-.791.672-1.767 1.11-2.928 1.315zm-.482-2.732c.94-.165 1.583-.604 1.93-1.316.354-.72.443-1.578.267-2.575-.182-1.032-.564-1.815-1.146-2.348-.574-.534-1.324-.72-2.249-.557-.638.113-1.136.349-1.494.707-.358.36-.593.81-.704 1.355-.103.543-.096 1.152.023 1.826.183 1.04.562 1.826 1.137 2.36.58.526 1.326.709 2.236.548zm7.632 3.799l-.853-4.839c.617-.108 1.016-.4 1.198-.876.19-.477.262-1.28.218-2.411a39.162 39.162 0 00-.139-2.05 68.246 68.246 0 00-.22-2.189c-.087-.746-.179-1.498-.276-2.258l8.968-1.58 1.649 9.355 1.183-.209.854 4.839-2.753.485-.455-2.58-7.076 1.247.455 2.581-2.753.485zm2.889-5.498l4.732-.835-1.252-7.097-3.505.618c.048.398.092.797.133 1.196.048.398.088.794.121 1.188l.113 1.144c.034.363.063.713.085 1.05.047.641.047 1.17.002 1.584a2.49 2.49 0 01-.429 1.152zm9.443.663l3.115-6.603-5.077-5.026 3.441-.606 2.929 3.031 1.673-3.843 3.441-.607-3.052 6.46 5.208 5.135-3.441.607-3.017-3.15-1.779 3.995-3.441.607zm17.626-2.776c-1.168.207-2.24.126-3.214-.242a5.585 5.585 0 01-2.446-1.797c-.65-.84-1.081-1.857-1.292-3.055-.214-1.211-.15-2.32.19-3.326a5.553 5.553 0 011.694-2.527c.791-.672 1.759-1.109 2.907-1.311 1.168-.206 2.239-.125 3.213.243A5.538 5.538 0 01183.353 59c.656.83 1.09 1.844 1.301 3.041.212 1.205.149 2.313-.19 3.327a5.548 5.548 0 01-1.694 2.527c-.791.672-1.767 1.11-2.928 1.315zm-.482-2.73c.94-.166 1.583-.605 1.93-1.317.354-.72.443-1.578.267-2.575-.182-1.032-.564-1.815-1.146-2.348-.574-.534-1.324-.72-2.249-.557-.638.113-1.136.348-1.494.707-.358.359-.593.81-.704 1.355-.103.543-.096 1.152.023 1.825.183 1.04.562 1.827 1.137 2.361.58.526 1.326.709 2.236.548zm7.632 3.798l-.853-4.839c.617-.108 1.016-.4 1.198-.876.19-.477.262-1.28.218-2.411a39.154 39.154 0 00-.139-2.05 68.252 68.252 0 00-.22-2.19c-.087-.745-.179-1.498-.276-2.257l8.968-1.58 1.65 9.354 1.182-.208.854 4.839-2.753.485-.455-2.58-7.076 1.247.455 2.58-2.753.486zm2.889-5.499l4.732-.834-1.252-7.097-3.505.618c.048.398.092.797.133 1.196.048.398.088.794.121 1.188l.113 1.144c.034.363.063.713.085 1.05.047.641.047 1.17.002 1.584a2.49 2.49 0 01-.429 1.151zm19.03-13.001l2.048 11.613-2.796.493-1.252-7.097-3.996 8.023-2.323.41-2.047-11.614 2.796-.493 1.209 6.86 4.06-7.79 2.301-.405zm7.254 10.695l-1.593-9.032-3.806.67-.455-2.58 10.538-1.858.455 2.58-3.807.672 1.593 9.033-2.925.515zm10.122-6.109a6.517 6.517 0 01-.089-1.448c.032-.493.124-.953.278-1.38.115-.396.258-.717.429-.962.177-.253.383-.514.616-.785.24-.271.515-.641.824-1.11.237-.374.375-.724.414-1.048a3.426 3.426 0 00-.032-1.06 2.398 2.398 0 00-.163-.547 1.117 1.117 0 00-.298-.435 1.424 1.424 0 00-.777-.384 2.535 2.535 0 00-.932-.002 3.104 3.104 0 00-.706.213 1.59 1.59 0 00-.542.384 1.428 1.428 0 00-.351.65 1.89 1.89 0 00.006.785l-3.097.547a5.71 5.71 0 01.284-2.224c.239-.7.606-1.282 1.1-1.746a4.958 4.958 0 011.245-.863c.47-.23.952-.39 1.446-.476a6.945 6.945 0 012.381-.02c.768.122 1.44.433 2.015.93.38.31.699.693.957 1.15.257.45.428.92.514 1.407a4.414 4.414 0 01-.151 2.222 9.018 9.018 0 01-.987 2.014 26.4 26.4 0 01-.492.73 15.3 15.3 0 00-.386.578 3.878 3.878 0 00-.282.538c-.143.365-.217.655-.223.87-.007.216.025.525.096.926l-3.097.546zm.761 4.19l-.546-3.097 3.076-.542.546 3.097-3.076.542z" fill="#F4F6FA"/><path d="M205.015 18.587l13.648-2.406L217.96.1l-12.945 18.487z" fill="#00205B"/><path stroke="#00205B" stroke-width="4.2" d="M3.135 55.316L251.287 11.56l13.272 75.273-248.151 43.756z"/><path fill="#C8102E" d="M67.92 100.893H319.9v76.434H67.92z"/><path d="M92.556 147.554v-5.394c.474 0 .874-.117 1.201-.35.335-.24.608-.575.82-1.004.21-.437.378-.947.502-1.529s.215-1.216.273-1.9c.072-.873.138-1.732.196-2.577.058-.851.117-1.732.175-2.642.058-.917.124-1.907.197-2.97l10.438.022v12.95h1.201v5.394h-2.97v-2.621h-9.063v2.621h-2.97zm4.434-5.394h6.398v-10.177l-4.76-.022c-.052.721-.095 1.383-.132 1.988a82.232 82.232 0 01-.283 3.909 38.587 38.587 0 01-.219 1.889 5.344 5.344 0 01-.338 1.277 4.936 4.936 0 01-.666 1.136zm15.589 3.101c-.845 0-1.562-.16-2.152-.481a3.413 3.413 0 01-1.332-1.299 3.7 3.7 0 01-.447-1.802c0-.546.083-1.044.251-1.496.167-.451.437-.848.808-1.19.378-.349.884-.64 1.518-.873.436-.16.957-.302 1.561-.426a35.28 35.28 0 012.053-.35l2.522-.382-1.07.59c0-.699-.167-1.212-.502-1.54-.335-.327-.896-.491-1.682-.491-.437 0-.892.105-1.365.317-.473.211-.804.586-.993 1.124l-2.686-.851a4.558 4.558 0 011.681-2.381c.823-.611 1.944-.917 3.363-.917 1.041 0 1.966.16 2.774.48a3.466 3.466 0 011.834 1.66c.233.437.371.874.415 1.31.044.437.066.925.066 1.464v7.206h-2.599v-2.424l.371.502c-.575.794-1.197 1.369-1.867 1.726-.663.349-1.503.524-2.522.524zm.633-2.337c.546 0 1.004-.095 1.376-.284.378-.196.677-.418.895-.666.226-.247.379-.455.459-.622a2.92 2.92 0 00.262-1.114c.029-.429.043-.786.043-1.07l.874.218c-.881.146-1.594.27-2.14.372-.546.094-.987.182-1.321.262-.335.08-.63.167-.885.262a3.045 3.045 0 00-.71.382 1.384 1.384 0 00-.393.437c-.08.16-.12.338-.12.535 0 .269.066.502.197.698.138.19.331.335.578.437.248.102.543.153.885.153zm7.949 4.957l.175-1.244c.349.029.633-.029.852-.175.218-.138.367-.342.447-.612.088-.262.106-.567.055-.917h-1.529v-2.97h2.97v2.97c0 1.048-.244 1.842-.731 2.381-.488.538-1.234.728-2.239.567zm10.168-2.948v-11.792h2.97v4.498h4.848v-4.498h2.97v11.792h-2.97v-4.52h-4.848v4.52h-2.97zm18.974.328c-1.172 0-2.152-.273-2.938-.819-.786-.546-1.379-1.289-1.78-2.228-.393-.939-.589-1.998-.589-3.177s.196-2.239.589-3.178c.394-.939.972-1.681 1.737-2.227.764-.546 1.707-.819 2.828-.819 1.128 0 2.111.269 2.948.808.837.539 1.485 1.278 1.943 2.217.466.931.699 1.998.699 3.199 0 1.179-.229 2.238-.688 3.177-.451.939-1.084 1.682-1.9 2.228-.815.546-1.765.819-2.849.819zm-5.809 4.913v-17.033h2.62v8.08h.371v8.953h-2.991zm5.328-7.556c.641 0 1.165-.16 1.572-.48.408-.32.71-.75.907-1.289.196-.545.295-1.15.295-1.812 0-.655-.102-1.252-.306-1.791a2.798 2.798 0 00-.95-1.299c-.422-.328-.965-.492-1.627-.492-.619 0-1.121.15-1.507.448-.378.299-.655.717-.83 1.256-.175.538-.262 1.165-.262 1.878 0 .713.087 1.339.262 1.878.175.539.459.957.852 1.256.4.298.932.447 1.594.447zm10.942 2.643c-.845 0-1.562-.16-2.151-.481a3.409 3.409 0 01-1.333-1.299 3.7 3.7 0 01-.447-1.802c0-.546.083-1.044.251-1.496.167-.451.437-.848.808-1.19.378-.349.884-.64 1.518-.873.436-.16.957-.302 1.561-.426s1.289-.24 2.053-.35l2.522-.382-1.07.59c0-.699-.167-1.212-.502-1.54-.335-.327-.896-.491-1.682-.491-.437 0-.891.105-1.365.317-.473.211-.804.586-.993 1.124l-2.686-.851a4.558 4.558 0 011.681-2.381c.823-.611 1.944-.917 3.363-.917 1.041 0 1.966.16 2.774.48a3.466 3.466 0 011.834 1.66c.233.437.371.874.415 1.31.044.437.066.925.066 1.464v7.206h-2.599v-2.424l.371.502c-.575.794-1.197 1.369-1.867 1.726-.663.349-1.503.524-2.522.524zm.633-2.337c.546 0 1.004-.095 1.376-.284.378-.196.677-.418.895-.666.226-.247.379-.455.459-.622a2.92 2.92 0 00.262-1.114c.029-.429.043-.786.043-1.07l.874.218c-.881.146-1.594.27-2.14.372-.546.094-.987.182-1.321.262-.335.08-.63.167-.885.262a3.045 3.045 0 00-.71.382 1.384 1.384 0 00-.393.437c-.08.16-.12.338-.12.535 0 .269.066.502.197.698.138.19.331.335.578.437.248.102.543.153.885.153zm8.146 2.009v-11.792h5.525c.437 0 .819.025 1.146.076.328.044.601.098.819.164.539.16 1.03.473 1.474.939.444.466.666 1.143.666 2.031 0 .524-.083.95-.251 1.277a2.35 2.35 0 01-.666.797 2.869 2.869 0 01-.393.241 2.276 2.276 0 01-.393.153c.306.043.582.123.83.24.393.174.735.451 1.026.83.292.371.437.924.437 1.659 0 .786-.193 1.456-.579 2.009-.378.554-.95.939-1.714 1.158a5.677 5.677 0 01-.928.164c-.349.036-.717.054-1.103.054h-5.896zm3.013-2.249h2.665c.153 0 .309-.015.469-.044.168-.036.317-.08.448-.131a.797.797 0 00.448-.447c.094-.212.142-.426.142-.645 0-.305-.07-.546-.208-.72a1.124 1.124 0 00-.448-.372 1.181 1.181 0 00-.458-.109 4.752 4.752 0 00-.393-.022h-2.665v2.49zm0-4.783h1.813a6.4 6.4 0 00.655-.032c.211-.03.386-.077.524-.142a.872.872 0 00.426-.415c.095-.197.142-.415.142-.655 0-.255-.055-.485-.164-.688a.799.799 0 00-.513-.426 2.013 2.013 0 00-.611-.099c-.241-.007-.393-.01-.459-.01h-1.813v2.467zm19.248-4.76v11.792h-2.839v-7.206l-5.328 7.206h-2.359v-11.792h2.839v6.966l5.351-6.966h2.336zm5.287 11.792v-9.172h-3.865v-2.62h10.701v2.62h-3.866v9.172h-2.97zm13.24.328c-1.223 0-2.271-.273-3.144-.819a5.407 5.407 0 01-2.01-2.228c-.465-.939-.698-1.998-.698-3.177 0-1.194.24-2.26.72-3.199a5.538 5.538 0 012.053-2.217c.881-.539 1.922-.808 3.123-.808 1.39 0 2.555.353 3.494 1.059.946.699 1.551 1.656 1.813 2.872l-2.97.786c-.175-.611-.481-1.088-.918-1.43a2.285 2.285 0 00-1.463-.514c-.626 0-1.139.153-1.539.459-.401.299-.696.71-.885 1.234-.189.517-.284 1.103-.284 1.758 0 1.026.226 1.86.677 2.5.459.634 1.136.95 2.031.95.67 0 1.18-.153 1.529-.458.349-.306.611-.743.786-1.311l3.036.634c-.335 1.252-.969 2.216-1.9 2.893-.932.677-2.082 1.016-3.451 1.016zm13.611-.328v-3.756h-1.9c-.248 0-.586-.004-1.016-.011a8.39 8.39 0 01-1.19-.12c-.939-.167-1.71-.575-2.315-1.223-.597-.648-.895-1.529-.895-2.642 0-1.085.288-1.959.863-2.621.575-.662 1.343-1.085 2.304-1.267.393-.08.797-.123 1.212-.131a32.5 32.5 0 011.037-.021h4.87v11.792h-2.97zm-7.6 0l2.664-4.367h3.058l-2.621 4.367h-3.101zm5.372-6.049h2.228v-3.45h-2.228c-.131 0-.276.007-.436.021a3.088 3.088 0 00-.481.088 1.41 1.41 0 00-.568.327 1.786 1.786 0 00-.426.568 1.594 1.594 0 00-.163.721c0 .415.123.768.371 1.059.247.284.524.469.83.557.153.044.305.073.458.087.161.015.299.022.415.022zm7.376 8.997l.175-1.244c.349.029.633-.029.852-.175.218-.138.367-.342.447-.612.088-.262.106-.567.055-.917h-1.529v-2.97h2.97v2.97c0 1.048-.244 1.842-.731 2.381-.488.538-1.234.728-2.239.567zm15.158-2.598c-1.135-.015-2.096-.266-2.882-.754-.787-.495-1.405-1.175-1.857-2.042-.444-.873-.72-1.885-.83-3.035a16.068 16.068 0 01-.043-2.086c.036-.779.12-1.543.251-2.293.131-.75.317-1.394.557-1.932.233-.503.531-.961.895-1.376a6.695 6.695 0 011.179-1.07 5.9 5.9 0 011.573-.787c.56-.189 1.15-.334 1.769-.436a44.858 44.858 0 011.921-.273 29.21 29.21 0 002.031-.317l.262 2.621a8.988 8.988 0 01-1.419.24c-.531.051-1.077.105-1.638.164-.56.051-1.095.134-1.605.251-.51.116-.95.291-1.321.524-.503.313-.888.75-1.158 1.31a4.745 4.745 0 00-.458 1.682c.451-.655 1.001-1.107 1.649-1.354a5.43 5.43 0 011.932-.371c1.041 0 1.933.251 2.675.753a4.843 4.843 0 011.726 2.009c.4.837.6 1.765.6 2.784 0 1.158-.251 2.173-.753 3.047a5.281 5.281 0 01-2.053 2.042c-.874.48-1.874.713-3.003.699zm.131-2.774c.845 0 1.482-.262 1.911-.786.43-.524.644-1.223.644-2.096 0-.896-.222-1.598-.666-2.108-.437-.517-1.066-.775-1.889-.775-.837 0-1.474.258-1.911.775-.429.51-.644 1.212-.644 2.108 0 .924.222 1.637.666 2.14.444.495 1.074.742 1.889.742zm12.907 2.752c-1.208 0-2.275-.259-3.199-.775a5.734 5.734 0 01-2.162-2.152c-.517-.917-.776-1.965-.776-3.144 0-1.289.255-2.41.765-3.363.509-.954 1.212-1.693 2.107-2.217.896-.531 1.926-.797 3.09-.797 1.238 0 2.29.291 3.156.874.866.582 1.507 1.401 1.922 2.456.415 1.056.56 2.297.436 3.724h-2.937v-1.092c0-1.201-.193-2.064-.578-2.588-.379-.531-1.001-.797-1.868-.797-1.012 0-1.758.309-2.238.928-.473.611-.71 1.518-.71 2.719 0 1.099.237 1.951.71 2.555.48.597 1.183.895 2.107.895.583 0 1.081-.127 1.496-.382.415-.255.732-.622.95-1.103l2.97.852c-.444 1.077-1.146 1.915-2.107 2.511a5.792 5.792 0 01-3.134.896zm-3.909-5.394v-2.206h7.818v2.206h-7.818zm16.846 5.394c-1.172 0-2.151-.273-2.937-.819-.786-.546-1.38-1.289-1.78-2.228-.393-.939-.59-1.998-.59-3.177s.197-2.239.59-3.178c.393-.939.972-1.681 1.736-2.227.764-.546 1.707-.819 2.828-.819 1.128 0 2.111.269 2.948.808.837.539 1.485 1.278 1.944 2.217.466.931.699 1.998.699 3.199 0 1.179-.23 2.238-.688 3.177-.452.939-1.085 1.682-1.9 2.228-.815.546-1.765.819-2.85.819zm-5.809 4.913v-17.033h2.621v8.08h.371v8.953h-2.992zm5.329-7.556c.64 0 1.164-.16 1.572-.48.408-.32.71-.75.906-1.289.197-.545.295-1.15.295-1.812 0-.655-.102-1.252-.306-1.791-.204-.546-.52-.979-.95-1.299-.422-.328-.964-.492-1.627-.492-.618 0-1.121.15-1.506.448-.379.299-.656.717-.83 1.256-.175.538-.262 1.165-.262 1.878 0 .713.087 1.339.262 1.878.174.539.458.957.851 1.256.401.298.932.447 1.595.447zm8.746 7.556l2.271-6.245.043 1.834-5.132-12.622h3.08l3.45 8.931h-.699l3.429-8.931h2.97l-6.661 17.033h-2.751zm11.384-5.241v-2.62h2.97v2.62h-2.97zm0-3.931V129.21h2.97v11.792h-2.97z" fill="#F4F6FA"/><path d="M123.775 178.427h-13.859l-2.099 15.959 15.958-15.959z" fill="#C8102E"/><path stroke="#C8102E" stroke-width="4.2" d="M67.92 100.893H319.9v76.434H67.92z"/></svg>